M48
; DRILL file {KiCad 7.0.7} date Wed Oct  2 11:43:49 2024
; FORMAT={-:-/ absolute / inch / decimal}
; #@! TF.CreationDate,2024-10-02T11:43:49-03:00
; #@! TF.GenerationSoftware,Kicad,Pcbnew,7.0.7
; #@! TF.FileFunction,Plated,1,2,PTH
FMAT,2
INCH
; #@! TA.AperFunction,Plated,PTH,ViaDrill
T1C0.0157
; #@! TA.AperFunction,Plated,PTH,ComponentDrill
T2C0.0236
; #@! TA.AperFunction,Plated,PTH,ComponentDrill
T3C0.0300
; #@! TA.AperFunction,Plated,PTH,ComponentDrill
T4C0.0315
; #@! TA.AperFunction,Plated,PTH,ComponentDrill
T5C0.0354
; #@! TA.AperFunction,Plated,PTH,ComponentDrill
T6C0.0374
; #@! TA.AperFunction,Plated,PTH,ComponentDrill
T7C0.0398
; #@! TA.AperFunction,Plated,PTH,ComponentDrill
T8C0.0400
; #@! TA.AperFunction,Plated,PTH,ComponentDrill
T9C0.0433
; #@! TA.AperFunction,Plated,PTH,ComponentDrill
T10C0.0472
; #@! TA.AperFunction,Plated,PTH,ComponentDrill
T11C0.0512
; #@! TA.AperFunction,Plated,PTH,ComponentDrill
T12C0.1693
%
G90
G05
T1
X3.02Y-2.5559
X3.12Y-2.7159
X3.12Y-3.4
X3.12Y-3.47
X3.2326Y-2.505
X3.3381Y-3.4335
X3.545Y-3.605
X3.595Y-4.555
X3.63Y-4.605
X3.64Y-4.09
X3.645Y-1.505
X3.654Y-4.31
X3.716Y-4.2815
X3.87Y-4.66
X4.09Y-4.88
X4.0905Y-4.427
X4.125Y-4.925
X4.15Y-3.95
X4.2609Y-4.815
X4.32Y-2.88
X4.34Y-4.49
X4.37Y-3.355
X4.37Y-3.55
X4.3827Y-4.8152
X4.4Y-2.375
X4.4Y-2.615
X4.401Y-2.453
X4.401Y-2.544
X4.405Y-2.16
X4.405Y-2.705
X4.41Y-1.995
X4.425Y-2.965
X4.485Y-2.27
X4.6Y-2.88
X4.61Y-2.45
X4.61Y-2.615
X4.61Y-2.77
X4.61Y-5.09
X4.612Y-2.543
X4.615Y-2.965
X4.705Y-3.355
X4.708Y-2.228
X4.77Y-5.09
X4.828Y-3.75
X4.829Y-3.486
X4.835Y-2.77
X4.84Y-2.45
X4.851Y-2.542
X4.87Y-2.0
X4.96Y-3.4259
X4.96Y-3.62
X4.99Y-5.16
X5.01Y-3.16
X5.03Y-4.79
X5.0646Y-2.5441
X5.07Y-2.775
X5.073Y-2.001
X5.085Y-2.86
X5.11Y-3.36
X5.16Y-4.79
X5.245Y-3.835
X5.27Y-2.075
X5.275Y-3.4274
X5.289Y-2.697
X5.291Y-2.618
X5.34Y-2.875
X5.6709Y-3.95
X5.705Y-4.21
X5.74Y-4.792
X5.79Y-5.105
X5.85Y-4.2134
X5.855Y-3.385
X5.87Y-3.01
X5.875Y-2.645
X5.905Y-4.792
X6.0Y-4.2134
X6.005Y-3.38
X6.2623Y-3.8293
X6.2623Y-4.127
X6.2623Y-4.4247
X6.485Y-2.365
X6.58Y-2.17
T2
X3.0455Y-1.6819
X3.0455Y-4.9488
X3.0827Y-1.5921
X3.0827Y-1.7717
X3.0827Y-4.859
X3.0827Y-5.0386
X3.1724Y-1.5549
X3.1724Y-1.8089
X3.1724Y-4.8219
X3.1724Y-5.0758
X3.2622Y-1.5921
X3.2622Y-1.7717
X3.2622Y-4.859
X3.2622Y-5.0386
X3.2994Y-1.6819
X3.2994Y-4.9488
X6.4734Y-1.6819
X6.4734Y-4.9453
X6.5106Y-1.5921
X6.5106Y-1.7717
X6.5106Y-4.8555
X6.5106Y-5.0351
X6.6004Y-1.5549
X6.6004Y-1.8089
X6.6004Y-4.8183
X6.6004Y-5.0722
X6.6902Y-1.5921
X6.6902Y-1.7717
X6.6902Y-4.8555
X6.6902Y-5.0351
X6.7274Y-1.6819
X6.7274Y-4.9453
T3
X4.4091Y-3.8576
X4.5091Y-3.8576
X4.6091Y-3.8576
X4.7091Y-3.8576
X4.7791Y-1.6376
X4.7791Y-1.7376
X4.8091Y-3.8576
T4
X4.18Y-4.07
X4.58Y-4.07
X6.2064Y-2.6894
X6.2064Y-2.7894
X6.2064Y-2.8894
X6.2064Y-2.9894
X6.5064Y-2.6894
X6.5064Y-2.7894
X6.5064Y-2.8894
X6.5064Y-2.9894
T5
X3.5732Y-4.4248
X3.6732Y-4.4248
X4.4821Y-4.2795
X4.5821Y-4.2795
X4.7948Y-4.2795
X4.8948Y-4.2795
X5.1075Y-4.2795
X5.2075Y-4.2795
X5.4203Y-4.2795
X5.5203Y-4.2795
X6.5Y-3.5332
X6.5Y-3.6332
X6.5Y-3.8298
X6.5Y-3.9298
X6.5Y-4.1264
X6.5Y-4.2264
X6.5Y-4.423
X6.5Y-4.523
T6
X3.5564Y-1.6487
X3.6548Y-1.6487
X3.7532Y-1.6487
X3.8516Y-1.6487
X5.9174Y-1.6557
X6.0158Y-1.6557
X6.1142Y-1.6557
X6.2126Y-1.6557
T7
X3.5276Y-4.0754
X3.6024Y-3.8746
T8
X4.1094Y-3.4772
X4.1094Y-3.5776
X4.1094Y-3.6776
X4.1126Y-1.5748
X4.1126Y-1.6748
X4.1126Y-1.7748
X4.1126Y-1.8748
X4.1126Y-1.9748
X4.1126Y-2.0748
X4.1126Y-2.1748
X4.1126Y-2.2748
X4.1126Y-2.3748
X4.1126Y-2.4748
X4.1126Y-2.5748
X4.1126Y-2.6748
X4.1126Y-2.7748
X4.1126Y-2.8748
X4.1126Y-2.9748
X4.1126Y-3.0748
X4.1126Y-3.1748
X4.1126Y-3.2748
X4.1126Y-3.3748
X4.2094Y-3.5776
X4.2094Y-3.6776
X4.2098Y-3.4783
X4.2126Y-1.5748
X4.2126Y-1.6748
X4.2126Y-1.7748
X4.2126Y-1.8748
X4.2126Y-1.9748
X4.2126Y-2.0748
X4.2126Y-2.1748
X4.2126Y-2.2748
X4.2126Y-2.3748
X4.2126Y-2.4748
X4.2126Y-2.5748
X4.2126Y-2.6748
X4.2126Y-2.7748
X4.2126Y-2.8748
X4.2126Y-2.9748
X4.2126Y-3.0748
X4.2126Y-3.1748
X4.2126Y-3.2748
X4.2126Y-3.3748
X5.5091Y-3.4772
X5.5091Y-3.5776
X5.5091Y-3.6776
X5.5122Y-1.5728
X5.5122Y-1.6748
X5.5122Y-1.7748
X5.5122Y-1.8748
X5.5122Y-1.9748
X5.5122Y-2.0748
X5.5122Y-2.1748
X5.5122Y-2.2748
X5.5122Y-2.3748
X5.5122Y-2.4748
X5.5122Y-2.5748
X5.5122Y-2.6748
X5.5122Y-2.7748
X5.5122Y-2.8748
X5.5122Y-2.9748
X5.5122Y-3.0748
X5.5122Y-3.1748
X5.5122Y-3.2748
X5.5122Y-3.3748
X5.6091Y-3.5776
X5.6091Y-3.6776
X5.6094Y-3.4783
X5.6122Y-1.5728
X5.6122Y-1.6748
X5.6122Y-1.7748
X5.6122Y-1.8748
X5.6122Y-1.9748
X5.6122Y-2.0748
X5.6122Y-2.1748
X5.6122Y-2.2748
X5.6122Y-2.3748
X5.6122Y-2.4748
X5.6122Y-2.5748
X5.6122Y-2.6748
X5.6122Y-2.7748
X5.6122Y-2.8748
X5.6122Y-2.9748
X5.6122Y-3.0748
X5.6122Y-3.1748
X5.6122Y-3.2748
X5.6122Y-3.3748
T9
X3.05Y-4.615
X3.078Y-4.3639
X3.178Y-4.3639
X3.278Y-4.3639
X3.35Y-4.615
T10
X3.945Y-3.705
X3.945Y-4.205
T11
X3.3744Y-5.29
X3.3744Y-5.4554
X3.3744Y-5.6207
X3.5378Y-5.29
X3.5378Y-5.4554
X3.5378Y-5.6207
X3.6689Y-5.29
X3.6689Y-5.4554
X3.6689Y-5.6207
X3.8Y-5.29
X3.8Y-5.4554
X3.8Y-5.6207
X3.9311Y-5.29
X3.9311Y-5.4554
X3.9311Y-5.6207
X4.0622Y-5.29
X4.0622Y-5.4554
X4.0622Y-5.6207
X4.1933Y-5.29
X4.1933Y-5.4554
X4.1933Y-5.6207
X4.3567Y-5.29
X4.3567Y-5.4554
X4.3567Y-5.6207
X5.4882Y-5.2833
X5.4882Y-5.4486
X5.4882Y-5.614
X5.6516Y-5.2833
X5.6516Y-5.4486
X5.6516Y-5.614
X5.7827Y-5.2833
X5.7827Y-5.4486
X5.7827Y-5.614
X5.9138Y-5.2833
X5.9138Y-5.4486
X5.9138Y-5.614
X6.0449Y-5.2833
X6.0449Y-5.4486
X6.0449Y-5.614
X6.176Y-5.2833
X6.176Y-5.4486
X6.176Y-5.614
X6.3071Y-5.2833
X6.3071Y-5.4486
X6.3071Y-5.614
X6.4705Y-5.2833
X6.4705Y-5.4486
X6.4705Y-5.614
T12
X3.1724Y-1.6819
X3.1724Y-4.9488
X6.6004Y-1.6819
X6.6004Y-4.9453
T0
M30
