%TF.GenerationSoftware,KiCad,Pcbnew,7.0.7*%
%TF.CreationDate,2024-10-02T11:43:54-03:00*%
%TF.ProjectId,v0.4.3d,76302e34-2e33-4642-9e6b-696361645f70,rev?*%
%TF.SameCoordinates,Original*%
%TF.FileFunction,Legend,Bot*%
%TF.FilePolarity,Positive*%
%FSLAX46Y46*%
G04 Gerber Fmt 4.6, Leading zero omitted, Abs format (unit mm)*
G04 Created by KiCad (PCBNEW 7.0.7) date 2024-10-02 11:43:54*
%MOMM*%
%LPD*%
G01*
G04 APERTURE LIST*
%ADD10C,0.100000*%
%ADD11C,0.150000*%
%ADD12C,0.300000*%
%ADD13C,0.400000*%
%ADD14C,0.120000*%
G04 APERTURE END LIST*
D10*
D11*
X177002200Y-166007200D02*
X285002200Y-166007200D01*
X285002200Y-198007200D01*
X177002200Y-198007200D01*
X177002200Y-166007200D01*
D10*
D11*
X10000000Y-10000000D02*
X287002200Y-10000000D01*
X287002200Y-200007200D01*
X10000000Y-200007200D01*
X10000000Y-10000000D01*
D10*
D11*
X12000000Y-12000000D02*
X285002200Y-12000000D01*
X285002200Y-198007200D01*
X12000000Y-198007200D01*
X12000000Y-12000000D01*
D10*
D11*
X60000000Y-12000000D02*
X60000000Y-10000000D01*
D10*
D11*
X110000000Y-12000000D02*
X110000000Y-10000000D01*
D10*
D11*
X160000000Y-12000000D02*
X160000000Y-10000000D01*
D10*
D11*
X210000000Y-12000000D02*
X210000000Y-10000000D01*
D10*
D11*
X260000000Y-12000000D02*
X260000000Y-10000000D01*
D10*
D11*
X36089160Y-11593604D02*
X35346303Y-11593604D01*
X35717731Y-11593604D02*
X35717731Y-10293604D01*
X35717731Y-10293604D02*
X35593922Y-10479319D01*
X35593922Y-10479319D02*
X35470112Y-10603128D01*
X35470112Y-10603128D02*
X35346303Y-10665033D01*
D10*
D11*
X85346303Y-10417414D02*
X85408207Y-10355509D01*
X85408207Y-10355509D02*
X85532017Y-10293604D01*
X85532017Y-10293604D02*
X85841541Y-10293604D01*
X85841541Y-10293604D02*
X85965350Y-10355509D01*
X85965350Y-10355509D02*
X86027255Y-10417414D01*
X86027255Y-10417414D02*
X86089160Y-10541223D01*
X86089160Y-10541223D02*
X86089160Y-10665033D01*
X86089160Y-10665033D02*
X86027255Y-10850747D01*
X86027255Y-10850747D02*
X85284398Y-11593604D01*
X85284398Y-11593604D02*
X86089160Y-11593604D01*
D10*
D11*
X135284398Y-10293604D02*
X136089160Y-10293604D01*
X136089160Y-10293604D02*
X135655826Y-10788842D01*
X135655826Y-10788842D02*
X135841541Y-10788842D01*
X135841541Y-10788842D02*
X135965350Y-10850747D01*
X135965350Y-10850747D02*
X136027255Y-10912652D01*
X136027255Y-10912652D02*
X136089160Y-11036461D01*
X136089160Y-11036461D02*
X136089160Y-11345985D01*
X136089160Y-11345985D02*
X136027255Y-11469795D01*
X136027255Y-11469795D02*
X135965350Y-11531700D01*
X135965350Y-11531700D02*
X135841541Y-11593604D01*
X135841541Y-11593604D02*
X135470112Y-11593604D01*
X135470112Y-11593604D02*
X135346303Y-11531700D01*
X135346303Y-11531700D02*
X135284398Y-11469795D01*
D10*
D11*
X185965350Y-10726938D02*
X185965350Y-11593604D01*
X185655826Y-10231700D02*
X185346303Y-11160271D01*
X185346303Y-11160271D02*
X186151064Y-11160271D01*
D10*
D11*
X236027255Y-10293604D02*
X235408207Y-10293604D01*
X235408207Y-10293604D02*
X235346303Y-10912652D01*
X235346303Y-10912652D02*
X235408207Y-10850747D01*
X235408207Y-10850747D02*
X235532017Y-10788842D01*
X235532017Y-10788842D02*
X235841541Y-10788842D01*
X235841541Y-10788842D02*
X235965350Y-10850747D01*
X235965350Y-10850747D02*
X236027255Y-10912652D01*
X236027255Y-10912652D02*
X236089160Y-11036461D01*
X236089160Y-11036461D02*
X236089160Y-11345985D01*
X236089160Y-11345985D02*
X236027255Y-11469795D01*
X236027255Y-11469795D02*
X235965350Y-11531700D01*
X235965350Y-11531700D02*
X235841541Y-11593604D01*
X235841541Y-11593604D02*
X235532017Y-11593604D01*
X235532017Y-11593604D02*
X235408207Y-11531700D01*
X235408207Y-11531700D02*
X235346303Y-11469795D01*
D10*
D11*
X285965350Y-10293604D02*
X285717731Y-10293604D01*
X285717731Y-10293604D02*
X285593922Y-10355509D01*
X285593922Y-10355509D02*
X285532017Y-10417414D01*
X285532017Y-10417414D02*
X285408207Y-10603128D01*
X285408207Y-10603128D02*
X285346303Y-10850747D01*
X285346303Y-10850747D02*
X285346303Y-11345985D01*
X285346303Y-11345985D02*
X285408207Y-11469795D01*
X285408207Y-11469795D02*
X285470112Y-11531700D01*
X285470112Y-11531700D02*
X285593922Y-11593604D01*
X285593922Y-11593604D02*
X285841541Y-11593604D01*
X285841541Y-11593604D02*
X285965350Y-11531700D01*
X285965350Y-11531700D02*
X286027255Y-11469795D01*
X286027255Y-11469795D02*
X286089160Y-11345985D01*
X286089160Y-11345985D02*
X286089160Y-11036461D01*
X286089160Y-11036461D02*
X286027255Y-10912652D01*
X286027255Y-10912652D02*
X285965350Y-10850747D01*
X285965350Y-10850747D02*
X285841541Y-10788842D01*
X285841541Y-10788842D02*
X285593922Y-10788842D01*
X285593922Y-10788842D02*
X285470112Y-10850747D01*
X285470112Y-10850747D02*
X285408207Y-10912652D01*
X285408207Y-10912652D02*
X285346303Y-11036461D01*
D10*
D11*
X60000000Y-198007200D02*
X60000000Y-200007200D01*
D10*
D11*
X110000000Y-198007200D02*
X110000000Y-200007200D01*
D10*
D11*
X160000000Y-198007200D02*
X160000000Y-200007200D01*
D10*
D11*
X210000000Y-198007200D02*
X210000000Y-200007200D01*
D10*
D11*
X260000000Y-198007200D02*
X260000000Y-200007200D01*
D10*
D11*
X36089160Y-199600804D02*
X35346303Y-199600804D01*
X35717731Y-199600804D02*
X35717731Y-198300804D01*
X35717731Y-198300804D02*
X35593922Y-198486519D01*
X35593922Y-198486519D02*
X35470112Y-198610328D01*
X35470112Y-198610328D02*
X35346303Y-198672233D01*
D10*
D11*
X85346303Y-198424614D02*
X85408207Y-198362709D01*
X85408207Y-198362709D02*
X85532017Y-198300804D01*
X85532017Y-198300804D02*
X85841541Y-198300804D01*
X85841541Y-198300804D02*
X85965350Y-198362709D01*
X85965350Y-198362709D02*
X86027255Y-198424614D01*
X86027255Y-198424614D02*
X86089160Y-198548423D01*
X86089160Y-198548423D02*
X86089160Y-198672233D01*
X86089160Y-198672233D02*
X86027255Y-198857947D01*
X86027255Y-198857947D02*
X85284398Y-199600804D01*
X85284398Y-199600804D02*
X86089160Y-199600804D01*
D10*
D11*
X135284398Y-198300804D02*
X136089160Y-198300804D01*
X136089160Y-198300804D02*
X135655826Y-198796042D01*
X135655826Y-198796042D02*
X135841541Y-198796042D01*
X135841541Y-198796042D02*
X135965350Y-198857947D01*
X135965350Y-198857947D02*
X136027255Y-198919852D01*
X136027255Y-198919852D02*
X136089160Y-199043661D01*
X136089160Y-199043661D02*
X136089160Y-199353185D01*
X136089160Y-199353185D02*
X136027255Y-199476995D01*
X136027255Y-199476995D02*
X135965350Y-199538900D01*
X135965350Y-199538900D02*
X135841541Y-199600804D01*
X135841541Y-199600804D02*
X135470112Y-199600804D01*
X135470112Y-199600804D02*
X135346303Y-199538900D01*
X135346303Y-199538900D02*
X135284398Y-199476995D01*
D10*
D11*
X185965350Y-198734138D02*
X185965350Y-199600804D01*
X185655826Y-198238900D02*
X185346303Y-199167471D01*
X185346303Y-199167471D02*
X186151064Y-199167471D01*
D10*
D11*
X236027255Y-198300804D02*
X235408207Y-198300804D01*
X235408207Y-198300804D02*
X235346303Y-198919852D01*
X235346303Y-198919852D02*
X235408207Y-198857947D01*
X235408207Y-198857947D02*
X235532017Y-198796042D01*
X235532017Y-198796042D02*
X235841541Y-198796042D01*
X235841541Y-198796042D02*
X235965350Y-198857947D01*
X235965350Y-198857947D02*
X236027255Y-198919852D01*
X236027255Y-198919852D02*
X236089160Y-199043661D01*
X236089160Y-199043661D02*
X236089160Y-199353185D01*
X236089160Y-199353185D02*
X236027255Y-199476995D01*
X236027255Y-199476995D02*
X235965350Y-199538900D01*
X235965350Y-199538900D02*
X235841541Y-199600804D01*
X235841541Y-199600804D02*
X235532017Y-199600804D01*
X235532017Y-199600804D02*
X235408207Y-199538900D01*
X235408207Y-199538900D02*
X235346303Y-199476995D01*
D10*
D11*
X285965350Y-198300804D02*
X285717731Y-198300804D01*
X285717731Y-198300804D02*
X285593922Y-198362709D01*
X285593922Y-198362709D02*
X285532017Y-198424614D01*
X285532017Y-198424614D02*
X285408207Y-198610328D01*
X285408207Y-198610328D02*
X285346303Y-198857947D01*
X285346303Y-198857947D02*
X285346303Y-199353185D01*
X285346303Y-199353185D02*
X285408207Y-199476995D01*
X285408207Y-199476995D02*
X285470112Y-199538900D01*
X285470112Y-199538900D02*
X285593922Y-199600804D01*
X285593922Y-199600804D02*
X285841541Y-199600804D01*
X285841541Y-199600804D02*
X285965350Y-199538900D01*
X285965350Y-199538900D02*
X286027255Y-199476995D01*
X286027255Y-199476995D02*
X286089160Y-199353185D01*
X286089160Y-199353185D02*
X286089160Y-199043661D01*
X286089160Y-199043661D02*
X286027255Y-198919852D01*
X286027255Y-198919852D02*
X285965350Y-198857947D01*
X285965350Y-198857947D02*
X285841541Y-198796042D01*
X285841541Y-198796042D02*
X285593922Y-198796042D01*
X285593922Y-198796042D02*
X285470112Y-198857947D01*
X285470112Y-198857947D02*
X285408207Y-198919852D01*
X285408207Y-198919852D02*
X285346303Y-199043661D01*
D10*
D11*
X10000000Y-60000000D02*
X12000000Y-60000000D01*
D10*
D11*
X10000000Y-110000000D02*
X12000000Y-110000000D01*
D10*
D11*
X10000000Y-160000000D02*
X12000000Y-160000000D01*
D10*
D11*
X10690476Y-35222176D02*
X11309523Y-35222176D01*
X10566666Y-35593604D02*
X10999999Y-34293604D01*
X10999999Y-34293604D02*
X11433333Y-35593604D01*
D10*
D11*
X11092857Y-84912652D02*
X11278571Y-84974557D01*
X11278571Y-84974557D02*
X11340476Y-85036461D01*
X11340476Y-85036461D02*
X11402380Y-85160271D01*
X11402380Y-85160271D02*
X11402380Y-85345985D01*
X11402380Y-85345985D02*
X11340476Y-85469795D01*
X11340476Y-85469795D02*
X11278571Y-85531700D01*
X11278571Y-85531700D02*
X11154761Y-85593604D01*
X11154761Y-85593604D02*
X10659523Y-85593604D01*
X10659523Y-85593604D02*
X10659523Y-84293604D01*
X10659523Y-84293604D02*
X11092857Y-84293604D01*
X11092857Y-84293604D02*
X11216666Y-84355509D01*
X11216666Y-84355509D02*
X11278571Y-84417414D01*
X11278571Y-84417414D02*
X11340476Y-84541223D01*
X11340476Y-84541223D02*
X11340476Y-84665033D01*
X11340476Y-84665033D02*
X11278571Y-84788842D01*
X11278571Y-84788842D02*
X11216666Y-84850747D01*
X11216666Y-84850747D02*
X11092857Y-84912652D01*
X11092857Y-84912652D02*
X10659523Y-84912652D01*
D10*
D11*
X11402380Y-135469795D02*
X11340476Y-135531700D01*
X11340476Y-135531700D02*
X11154761Y-135593604D01*
X11154761Y-135593604D02*
X11030952Y-135593604D01*
X11030952Y-135593604D02*
X10845238Y-135531700D01*
X10845238Y-135531700D02*
X10721428Y-135407890D01*
X10721428Y-135407890D02*
X10659523Y-135284080D01*
X10659523Y-135284080D02*
X10597619Y-135036461D01*
X10597619Y-135036461D02*
X10597619Y-134850747D01*
X10597619Y-134850747D02*
X10659523Y-134603128D01*
X10659523Y-134603128D02*
X10721428Y-134479319D01*
X10721428Y-134479319D02*
X10845238Y-134355509D01*
X10845238Y-134355509D02*
X11030952Y-134293604D01*
X11030952Y-134293604D02*
X11154761Y-134293604D01*
X11154761Y-134293604D02*
X11340476Y-134355509D01*
X11340476Y-134355509D02*
X11402380Y-134417414D01*
D10*
D11*
X10659523Y-185593604D02*
X10659523Y-184293604D01*
X10659523Y-184293604D02*
X10969047Y-184293604D01*
X10969047Y-184293604D02*
X11154761Y-184355509D01*
X11154761Y-184355509D02*
X11278571Y-184479319D01*
X11278571Y-184479319D02*
X11340476Y-184603128D01*
X11340476Y-184603128D02*
X11402380Y-184850747D01*
X11402380Y-184850747D02*
X11402380Y-185036461D01*
X11402380Y-185036461D02*
X11340476Y-185284080D01*
X11340476Y-185284080D02*
X11278571Y-185407890D01*
X11278571Y-185407890D02*
X11154761Y-185531700D01*
X11154761Y-185531700D02*
X10969047Y-185593604D01*
X10969047Y-185593604D02*
X10659523Y-185593604D01*
D10*
D11*
X287002200Y-60000000D02*
X285002200Y-60000000D01*
D10*
D11*
X287002200Y-110000000D02*
X285002200Y-110000000D01*
D10*
D11*
X287002200Y-160000000D02*
X285002200Y-160000000D01*
D10*
D11*
X285692676Y-35222176D02*
X286311723Y-35222176D01*
X285568866Y-35593604D02*
X286002199Y-34293604D01*
X286002199Y-34293604D02*
X286435533Y-35593604D01*
D10*
D11*
X286095057Y-84912652D02*
X286280771Y-84974557D01*
X286280771Y-84974557D02*
X286342676Y-85036461D01*
X286342676Y-85036461D02*
X286404580Y-85160271D01*
X286404580Y-85160271D02*
X286404580Y-85345985D01*
X286404580Y-85345985D02*
X286342676Y-85469795D01*
X286342676Y-85469795D02*
X286280771Y-85531700D01*
X286280771Y-85531700D02*
X286156961Y-85593604D01*
X286156961Y-85593604D02*
X285661723Y-85593604D01*
X285661723Y-85593604D02*
X285661723Y-84293604D01*
X285661723Y-84293604D02*
X286095057Y-84293604D01*
X286095057Y-84293604D02*
X286218866Y-84355509D01*
X286218866Y-84355509D02*
X286280771Y-84417414D01*
X286280771Y-84417414D02*
X286342676Y-84541223D01*
X286342676Y-84541223D02*
X286342676Y-84665033D01*
X286342676Y-84665033D02*
X286280771Y-84788842D01*
X286280771Y-84788842D02*
X286218866Y-84850747D01*
X286218866Y-84850747D02*
X286095057Y-84912652D01*
X286095057Y-84912652D02*
X285661723Y-84912652D01*
D10*
D11*
X286404580Y-135469795D02*
X286342676Y-135531700D01*
X286342676Y-135531700D02*
X286156961Y-135593604D01*
X286156961Y-135593604D02*
X286033152Y-135593604D01*
X286033152Y-135593604D02*
X285847438Y-135531700D01*
X285847438Y-135531700D02*
X285723628Y-135407890D01*
X285723628Y-135407890D02*
X285661723Y-135284080D01*
X285661723Y-135284080D02*
X285599819Y-135036461D01*
X285599819Y-135036461D02*
X285599819Y-134850747D01*
X285599819Y-134850747D02*
X285661723Y-134603128D01*
X285661723Y-134603128D02*
X285723628Y-134479319D01*
X285723628Y-134479319D02*
X285847438Y-134355509D01*
X285847438Y-134355509D02*
X286033152Y-134293604D01*
X286033152Y-134293604D02*
X286156961Y-134293604D01*
X286156961Y-134293604D02*
X286342676Y-134355509D01*
X286342676Y-134355509D02*
X286404580Y-134417414D01*
D10*
D11*
X285661723Y-185593604D02*
X285661723Y-184293604D01*
X285661723Y-184293604D02*
X285971247Y-184293604D01*
X285971247Y-184293604D02*
X286156961Y-184355509D01*
X286156961Y-184355509D02*
X286280771Y-184479319D01*
X286280771Y-184479319D02*
X286342676Y-184603128D01*
X286342676Y-184603128D02*
X286404580Y-184850747D01*
X286404580Y-184850747D02*
X286404580Y-185036461D01*
X286404580Y-185036461D02*
X286342676Y-185284080D01*
X286342676Y-185284080D02*
X286280771Y-185407890D01*
X286280771Y-185407890D02*
X286156961Y-185531700D01*
X286156961Y-185531700D02*
X285971247Y-185593604D01*
X285971247Y-185593604D02*
X285661723Y-185593604D01*
D10*
D11*
X200458026Y-193793328D02*
X200458026Y-192293328D01*
X200458026Y-192293328D02*
X200815169Y-192293328D01*
X200815169Y-192293328D02*
X201029455Y-192364757D01*
X201029455Y-192364757D02*
X201172312Y-192507614D01*
X201172312Y-192507614D02*
X201243741Y-192650471D01*
X201243741Y-192650471D02*
X201315169Y-192936185D01*
X201315169Y-192936185D02*
X201315169Y-193150471D01*
X201315169Y-193150471D02*
X201243741Y-193436185D01*
X201243741Y-193436185D02*
X201172312Y-193579042D01*
X201172312Y-193579042D02*
X201029455Y-193721900D01*
X201029455Y-193721900D02*
X200815169Y-193793328D01*
X200815169Y-193793328D02*
X200458026Y-193793328D01*
X202600884Y-193793328D02*
X202600884Y-193007614D01*
X202600884Y-193007614D02*
X202529455Y-192864757D01*
X202529455Y-192864757D02*
X202386598Y-192793328D01*
X202386598Y-192793328D02*
X202100884Y-192793328D01*
X202100884Y-192793328D02*
X201958026Y-192864757D01*
X202600884Y-193721900D02*
X202458026Y-193793328D01*
X202458026Y-193793328D02*
X202100884Y-193793328D01*
X202100884Y-193793328D02*
X201958026Y-193721900D01*
X201958026Y-193721900D02*
X201886598Y-193579042D01*
X201886598Y-193579042D02*
X201886598Y-193436185D01*
X201886598Y-193436185D02*
X201958026Y-193293328D01*
X201958026Y-193293328D02*
X202100884Y-193221900D01*
X202100884Y-193221900D02*
X202458026Y-193221900D01*
X202458026Y-193221900D02*
X202600884Y-193150471D01*
X203100884Y-192793328D02*
X203672312Y-192793328D01*
X203315169Y-192293328D02*
X203315169Y-193579042D01*
X203315169Y-193579042D02*
X203386598Y-193721900D01*
X203386598Y-193721900D02*
X203529455Y-193793328D01*
X203529455Y-193793328D02*
X203672312Y-193793328D01*
X204743741Y-193721900D02*
X204600884Y-193793328D01*
X204600884Y-193793328D02*
X204315170Y-193793328D01*
X204315170Y-193793328D02*
X204172312Y-193721900D01*
X204172312Y-193721900D02*
X204100884Y-193579042D01*
X204100884Y-193579042D02*
X204100884Y-193007614D01*
X204100884Y-193007614D02*
X204172312Y-192864757D01*
X204172312Y-192864757D02*
X204315170Y-192793328D01*
X204315170Y-192793328D02*
X204600884Y-192793328D01*
X204600884Y-192793328D02*
X204743741Y-192864757D01*
X204743741Y-192864757D02*
X204815170Y-193007614D01*
X204815170Y-193007614D02*
X204815170Y-193150471D01*
X204815170Y-193150471D02*
X204100884Y-193293328D01*
X205458026Y-193650471D02*
X205529455Y-193721900D01*
X205529455Y-193721900D02*
X205458026Y-193793328D01*
X205458026Y-193793328D02*
X205386598Y-193721900D01*
X205386598Y-193721900D02*
X205458026Y-193650471D01*
X205458026Y-193650471D02*
X205458026Y-193793328D01*
X205458026Y-192864757D02*
X205529455Y-192936185D01*
X205529455Y-192936185D02*
X205458026Y-193007614D01*
X205458026Y-193007614D02*
X205386598Y-192936185D01*
X205386598Y-192936185D02*
X205458026Y-192864757D01*
X205458026Y-192864757D02*
X205458026Y-193007614D01*
D10*
D11*
X177002200Y-194507200D02*
X285002200Y-194507200D01*
D10*
D11*
X178458026Y-196593328D02*
X178458026Y-195093328D01*
X179315169Y-196593328D02*
X178672312Y-195736185D01*
X179315169Y-195093328D02*
X178458026Y-195950471D01*
X179958026Y-196593328D02*
X179958026Y-195593328D01*
X179958026Y-195093328D02*
X179886598Y-195164757D01*
X179886598Y-195164757D02*
X179958026Y-195236185D01*
X179958026Y-195236185D02*
X180029455Y-195164757D01*
X180029455Y-195164757D02*
X179958026Y-195093328D01*
X179958026Y-195093328D02*
X179958026Y-195236185D01*
X181529455Y-196450471D02*
X181458027Y-196521900D01*
X181458027Y-196521900D02*
X181243741Y-196593328D01*
X181243741Y-196593328D02*
X181100884Y-196593328D01*
X181100884Y-196593328D02*
X180886598Y-196521900D01*
X180886598Y-196521900D02*
X180743741Y-196379042D01*
X180743741Y-196379042D02*
X180672312Y-196236185D01*
X180672312Y-196236185D02*
X180600884Y-195950471D01*
X180600884Y-195950471D02*
X180600884Y-195736185D01*
X180600884Y-195736185D02*
X180672312Y-195450471D01*
X180672312Y-195450471D02*
X180743741Y-195307614D01*
X180743741Y-195307614D02*
X180886598Y-195164757D01*
X180886598Y-195164757D02*
X181100884Y-195093328D01*
X181100884Y-195093328D02*
X181243741Y-195093328D01*
X181243741Y-195093328D02*
X181458027Y-195164757D01*
X181458027Y-195164757D02*
X181529455Y-195236185D01*
X182815170Y-196593328D02*
X182815170Y-195807614D01*
X182815170Y-195807614D02*
X182743741Y-195664757D01*
X182743741Y-195664757D02*
X182600884Y-195593328D01*
X182600884Y-195593328D02*
X182315170Y-195593328D01*
X182315170Y-195593328D02*
X182172312Y-195664757D01*
X182815170Y-196521900D02*
X182672312Y-196593328D01*
X182672312Y-196593328D02*
X182315170Y-196593328D01*
X182315170Y-196593328D02*
X182172312Y-196521900D01*
X182172312Y-196521900D02*
X182100884Y-196379042D01*
X182100884Y-196379042D02*
X182100884Y-196236185D01*
X182100884Y-196236185D02*
X182172312Y-196093328D01*
X182172312Y-196093328D02*
X182315170Y-196021900D01*
X182315170Y-196021900D02*
X182672312Y-196021900D01*
X182672312Y-196021900D02*
X182815170Y-195950471D01*
X184172313Y-196593328D02*
X184172313Y-195093328D01*
X184172313Y-196521900D02*
X184029455Y-196593328D01*
X184029455Y-196593328D02*
X183743741Y-196593328D01*
X183743741Y-196593328D02*
X183600884Y-196521900D01*
X183600884Y-196521900D02*
X183529455Y-196450471D01*
X183529455Y-196450471D02*
X183458027Y-196307614D01*
X183458027Y-196307614D02*
X183458027Y-195879042D01*
X183458027Y-195879042D02*
X183529455Y-195736185D01*
X183529455Y-195736185D02*
X183600884Y-195664757D01*
X183600884Y-195664757D02*
X183743741Y-195593328D01*
X183743741Y-195593328D02*
X184029455Y-195593328D01*
X184029455Y-195593328D02*
X184172313Y-195664757D01*
X186029455Y-195807614D02*
X186529455Y-195807614D01*
X186743741Y-196593328D02*
X186029455Y-196593328D01*
X186029455Y-196593328D02*
X186029455Y-195093328D01*
X186029455Y-195093328D02*
X186743741Y-195093328D01*
X187386598Y-196450471D02*
X187458027Y-196521900D01*
X187458027Y-196521900D02*
X187386598Y-196593328D01*
X187386598Y-196593328D02*
X187315170Y-196521900D01*
X187315170Y-196521900D02*
X187386598Y-196450471D01*
X187386598Y-196450471D02*
X187386598Y-196593328D01*
X188100884Y-196593328D02*
X188100884Y-195093328D01*
X188100884Y-195093328D02*
X188458027Y-195093328D01*
X188458027Y-195093328D02*
X188672313Y-195164757D01*
X188672313Y-195164757D02*
X188815170Y-195307614D01*
X188815170Y-195307614D02*
X188886599Y-195450471D01*
X188886599Y-195450471D02*
X188958027Y-195736185D01*
X188958027Y-195736185D02*
X188958027Y-195950471D01*
X188958027Y-195950471D02*
X188886599Y-196236185D01*
X188886599Y-196236185D02*
X188815170Y-196379042D01*
X188815170Y-196379042D02*
X188672313Y-196521900D01*
X188672313Y-196521900D02*
X188458027Y-196593328D01*
X188458027Y-196593328D02*
X188100884Y-196593328D01*
X189600884Y-196450471D02*
X189672313Y-196521900D01*
X189672313Y-196521900D02*
X189600884Y-196593328D01*
X189600884Y-196593328D02*
X189529456Y-196521900D01*
X189529456Y-196521900D02*
X189600884Y-196450471D01*
X189600884Y-196450471D02*
X189600884Y-196593328D01*
X190243742Y-196164757D02*
X190958028Y-196164757D01*
X190100885Y-196593328D02*
X190600885Y-195093328D01*
X190600885Y-195093328D02*
X191100885Y-196593328D01*
X191600884Y-196450471D02*
X191672313Y-196521900D01*
X191672313Y-196521900D02*
X191600884Y-196593328D01*
X191600884Y-196593328D02*
X191529456Y-196521900D01*
X191529456Y-196521900D02*
X191600884Y-196450471D01*
X191600884Y-196450471D02*
X191600884Y-196593328D01*
X194600884Y-196593328D02*
X194600884Y-195093328D01*
X194743742Y-196021900D02*
X195172313Y-196593328D01*
X195172313Y-195593328D02*
X194600884Y-196164757D01*
X195815170Y-196593328D02*
X195815170Y-195593328D01*
X195815170Y-195093328D02*
X195743742Y-195164757D01*
X195743742Y-195164757D02*
X195815170Y-195236185D01*
X195815170Y-195236185D02*
X195886599Y-195164757D01*
X195886599Y-195164757D02*
X195815170Y-195093328D01*
X195815170Y-195093328D02*
X195815170Y-195236185D01*
X197172314Y-196521900D02*
X197029456Y-196593328D01*
X197029456Y-196593328D02*
X196743742Y-196593328D01*
X196743742Y-196593328D02*
X196600885Y-196521900D01*
X196600885Y-196521900D02*
X196529456Y-196450471D01*
X196529456Y-196450471D02*
X196458028Y-196307614D01*
X196458028Y-196307614D02*
X196458028Y-195879042D01*
X196458028Y-195879042D02*
X196529456Y-195736185D01*
X196529456Y-195736185D02*
X196600885Y-195664757D01*
X196600885Y-195664757D02*
X196743742Y-195593328D01*
X196743742Y-195593328D02*
X197029456Y-195593328D01*
X197029456Y-195593328D02*
X197172314Y-195664757D01*
X198458028Y-196593328D02*
X198458028Y-195807614D01*
X198458028Y-195807614D02*
X198386599Y-195664757D01*
X198386599Y-195664757D02*
X198243742Y-195593328D01*
X198243742Y-195593328D02*
X197958028Y-195593328D01*
X197958028Y-195593328D02*
X197815170Y-195664757D01*
X198458028Y-196521900D02*
X198315170Y-196593328D01*
X198315170Y-196593328D02*
X197958028Y-196593328D01*
X197958028Y-196593328D02*
X197815170Y-196521900D01*
X197815170Y-196521900D02*
X197743742Y-196379042D01*
X197743742Y-196379042D02*
X197743742Y-196236185D01*
X197743742Y-196236185D02*
X197815170Y-196093328D01*
X197815170Y-196093328D02*
X197958028Y-196021900D01*
X197958028Y-196021900D02*
X198315170Y-196021900D01*
X198315170Y-196021900D02*
X198458028Y-195950471D01*
X199815171Y-196593328D02*
X199815171Y-195093328D01*
X199815171Y-196521900D02*
X199672313Y-196593328D01*
X199672313Y-196593328D02*
X199386599Y-196593328D01*
X199386599Y-196593328D02*
X199243742Y-196521900D01*
X199243742Y-196521900D02*
X199172313Y-196450471D01*
X199172313Y-196450471D02*
X199100885Y-196307614D01*
X199100885Y-196307614D02*
X199100885Y-195879042D01*
X199100885Y-195879042D02*
X199172313Y-195736185D01*
X199172313Y-195736185D02*
X199243742Y-195664757D01*
X199243742Y-195664757D02*
X199386599Y-195593328D01*
X199386599Y-195593328D02*
X199672313Y-195593328D01*
X199672313Y-195593328D02*
X199815171Y-195664757D01*
X201529456Y-195093328D02*
X202529456Y-195093328D01*
X202529456Y-195093328D02*
X201886599Y-196593328D01*
X203100884Y-196450471D02*
X203172313Y-196521900D01*
X203172313Y-196521900D02*
X203100884Y-196593328D01*
X203100884Y-196593328D02*
X203029456Y-196521900D01*
X203029456Y-196521900D02*
X203100884Y-196450471D01*
X203100884Y-196450471D02*
X203100884Y-196593328D01*
X204100885Y-195093328D02*
X204243742Y-195093328D01*
X204243742Y-195093328D02*
X204386599Y-195164757D01*
X204386599Y-195164757D02*
X204458028Y-195236185D01*
X204458028Y-195236185D02*
X204529456Y-195379042D01*
X204529456Y-195379042D02*
X204600885Y-195664757D01*
X204600885Y-195664757D02*
X204600885Y-196021900D01*
X204600885Y-196021900D02*
X204529456Y-196307614D01*
X204529456Y-196307614D02*
X204458028Y-196450471D01*
X204458028Y-196450471D02*
X204386599Y-196521900D01*
X204386599Y-196521900D02*
X204243742Y-196593328D01*
X204243742Y-196593328D02*
X204100885Y-196593328D01*
X204100885Y-196593328D02*
X203958028Y-196521900D01*
X203958028Y-196521900D02*
X203886599Y-196450471D01*
X203886599Y-196450471D02*
X203815170Y-196307614D01*
X203815170Y-196307614D02*
X203743742Y-196021900D01*
X203743742Y-196021900D02*
X203743742Y-195664757D01*
X203743742Y-195664757D02*
X203815170Y-195379042D01*
X203815170Y-195379042D02*
X203886599Y-195236185D01*
X203886599Y-195236185D02*
X203958028Y-195164757D01*
X203958028Y-195164757D02*
X204100885Y-195093328D01*
X205243741Y-196450471D02*
X205315170Y-196521900D01*
X205315170Y-196521900D02*
X205243741Y-196593328D01*
X205243741Y-196593328D02*
X205172313Y-196521900D01*
X205172313Y-196521900D02*
X205243741Y-196450471D01*
X205243741Y-196450471D02*
X205243741Y-196593328D01*
X205815170Y-195093328D02*
X206815170Y-195093328D01*
X206815170Y-195093328D02*
X206172313Y-196593328D01*
D10*
D11*
X177002200Y-191507200D02*
X285002200Y-191507200D01*
D10*
D12*
X264413853Y-193785528D02*
X263913853Y-193071242D01*
X263556710Y-193785528D02*
X263556710Y-192285528D01*
X263556710Y-192285528D02*
X264128139Y-192285528D01*
X264128139Y-192285528D02*
X264270996Y-192356957D01*
X264270996Y-192356957D02*
X264342425Y-192428385D01*
X264342425Y-192428385D02*
X264413853Y-192571242D01*
X264413853Y-192571242D02*
X264413853Y-192785528D01*
X264413853Y-192785528D02*
X264342425Y-192928385D01*
X264342425Y-192928385D02*
X264270996Y-192999814D01*
X264270996Y-192999814D02*
X264128139Y-193071242D01*
X264128139Y-193071242D02*
X263556710Y-193071242D01*
X265628139Y-193714100D02*
X265485282Y-193785528D01*
X265485282Y-193785528D02*
X265199568Y-193785528D01*
X265199568Y-193785528D02*
X265056710Y-193714100D01*
X265056710Y-193714100D02*
X264985282Y-193571242D01*
X264985282Y-193571242D02*
X264985282Y-192999814D01*
X264985282Y-192999814D02*
X265056710Y-192856957D01*
X265056710Y-192856957D02*
X265199568Y-192785528D01*
X265199568Y-192785528D02*
X265485282Y-192785528D01*
X265485282Y-192785528D02*
X265628139Y-192856957D01*
X265628139Y-192856957D02*
X265699568Y-192999814D01*
X265699568Y-192999814D02*
X265699568Y-193142671D01*
X265699568Y-193142671D02*
X264985282Y-193285528D01*
X266199567Y-192785528D02*
X266556710Y-193785528D01*
X266556710Y-193785528D02*
X266913853Y-192785528D01*
X267485281Y-193642671D02*
X267556710Y-193714100D01*
X267556710Y-193714100D02*
X267485281Y-193785528D01*
X267485281Y-193785528D02*
X267413853Y-193714100D01*
X267413853Y-193714100D02*
X267485281Y-193642671D01*
X267485281Y-193642671D02*
X267485281Y-193785528D01*
X267485281Y-192856957D02*
X267556710Y-192928385D01*
X267556710Y-192928385D02*
X267485281Y-192999814D01*
X267485281Y-192999814D02*
X267413853Y-192928385D01*
X267413853Y-192928385D02*
X267485281Y-192856957D01*
X267485281Y-192856957D02*
X267485281Y-192999814D01*
D10*
D11*
X178386598Y-193721900D02*
X178600884Y-193793328D01*
X178600884Y-193793328D02*
X178958026Y-193793328D01*
X178958026Y-193793328D02*
X179100884Y-193721900D01*
X179100884Y-193721900D02*
X179172312Y-193650471D01*
X179172312Y-193650471D02*
X179243741Y-193507614D01*
X179243741Y-193507614D02*
X179243741Y-193364757D01*
X179243741Y-193364757D02*
X179172312Y-193221900D01*
X179172312Y-193221900D02*
X179100884Y-193150471D01*
X179100884Y-193150471D02*
X178958026Y-193079042D01*
X178958026Y-193079042D02*
X178672312Y-193007614D01*
X178672312Y-193007614D02*
X178529455Y-192936185D01*
X178529455Y-192936185D02*
X178458026Y-192864757D01*
X178458026Y-192864757D02*
X178386598Y-192721900D01*
X178386598Y-192721900D02*
X178386598Y-192579042D01*
X178386598Y-192579042D02*
X178458026Y-192436185D01*
X178458026Y-192436185D02*
X178529455Y-192364757D01*
X178529455Y-192364757D02*
X178672312Y-192293328D01*
X178672312Y-192293328D02*
X179029455Y-192293328D01*
X179029455Y-192293328D02*
X179243741Y-192364757D01*
X179886597Y-193793328D02*
X179886597Y-192793328D01*
X179886597Y-192293328D02*
X179815169Y-192364757D01*
X179815169Y-192364757D02*
X179886597Y-192436185D01*
X179886597Y-192436185D02*
X179958026Y-192364757D01*
X179958026Y-192364757D02*
X179886597Y-192293328D01*
X179886597Y-192293328D02*
X179886597Y-192436185D01*
X180458026Y-192793328D02*
X181243741Y-192793328D01*
X181243741Y-192793328D02*
X180458026Y-193793328D01*
X180458026Y-193793328D02*
X181243741Y-193793328D01*
X182386598Y-193721900D02*
X182243741Y-193793328D01*
X182243741Y-193793328D02*
X181958027Y-193793328D01*
X181958027Y-193793328D02*
X181815169Y-193721900D01*
X181815169Y-193721900D02*
X181743741Y-193579042D01*
X181743741Y-193579042D02*
X181743741Y-193007614D01*
X181743741Y-193007614D02*
X181815169Y-192864757D01*
X181815169Y-192864757D02*
X181958027Y-192793328D01*
X181958027Y-192793328D02*
X182243741Y-192793328D01*
X182243741Y-192793328D02*
X182386598Y-192864757D01*
X182386598Y-192864757D02*
X182458027Y-193007614D01*
X182458027Y-193007614D02*
X182458027Y-193150471D01*
X182458027Y-193150471D02*
X181743741Y-193293328D01*
X183100883Y-193650471D02*
X183172312Y-193721900D01*
X183172312Y-193721900D02*
X183100883Y-193793328D01*
X183100883Y-193793328D02*
X183029455Y-193721900D01*
X183029455Y-193721900D02*
X183100883Y-193650471D01*
X183100883Y-193650471D02*
X183100883Y-193793328D01*
X183100883Y-192864757D02*
X183172312Y-192936185D01*
X183172312Y-192936185D02*
X183100883Y-193007614D01*
X183100883Y-193007614D02*
X183029455Y-192936185D01*
X183029455Y-192936185D02*
X183100883Y-192864757D01*
X183100883Y-192864757D02*
X183100883Y-193007614D01*
X184886598Y-193364757D02*
X185600884Y-193364757D01*
X184743741Y-193793328D02*
X185243741Y-192293328D01*
X185243741Y-192293328D02*
X185743741Y-193793328D01*
X186886598Y-192793328D02*
X186886598Y-193793328D01*
X186529455Y-192221900D02*
X186172312Y-193293328D01*
X186172312Y-193293328D02*
X187100883Y-193293328D01*
D10*
D11*
X263458026Y-196593328D02*
X263458026Y-195093328D01*
X264815170Y-196593328D02*
X264815170Y-195093328D01*
X264815170Y-196521900D02*
X264672312Y-196593328D01*
X264672312Y-196593328D02*
X264386598Y-196593328D01*
X264386598Y-196593328D02*
X264243741Y-196521900D01*
X264243741Y-196521900D02*
X264172312Y-196450471D01*
X264172312Y-196450471D02*
X264100884Y-196307614D01*
X264100884Y-196307614D02*
X264100884Y-195879042D01*
X264100884Y-195879042D02*
X264172312Y-195736185D01*
X264172312Y-195736185D02*
X264243741Y-195664757D01*
X264243741Y-195664757D02*
X264386598Y-195593328D01*
X264386598Y-195593328D02*
X264672312Y-195593328D01*
X264672312Y-195593328D02*
X264815170Y-195664757D01*
X265529455Y-196450471D02*
X265600884Y-196521900D01*
X265600884Y-196521900D02*
X265529455Y-196593328D01*
X265529455Y-196593328D02*
X265458027Y-196521900D01*
X265458027Y-196521900D02*
X265529455Y-196450471D01*
X265529455Y-196450471D02*
X265529455Y-196593328D01*
X265529455Y-195664757D02*
X265600884Y-195736185D01*
X265600884Y-195736185D02*
X265529455Y-195807614D01*
X265529455Y-195807614D02*
X265458027Y-195736185D01*
X265458027Y-195736185D02*
X265529455Y-195664757D01*
X265529455Y-195664757D02*
X265529455Y-195807614D01*
X268172313Y-196593328D02*
X267315170Y-196593328D01*
X267743741Y-196593328D02*
X267743741Y-195093328D01*
X267743741Y-195093328D02*
X267600884Y-195307614D01*
X267600884Y-195307614D02*
X267458027Y-195450471D01*
X267458027Y-195450471D02*
X267315170Y-195521900D01*
X269886598Y-195021900D02*
X268600884Y-196950471D01*
X271172313Y-196593328D02*
X270315170Y-196593328D01*
X270743741Y-196593328D02*
X270743741Y-195093328D01*
X270743741Y-195093328D02*
X270600884Y-195307614D01*
X270600884Y-195307614D02*
X270458027Y-195450471D01*
X270458027Y-195450471D02*
X270315170Y-195521900D01*
D10*
D11*
X177002200Y-187507200D02*
X285002200Y-187507200D01*
D10*
D13*
X178693928Y-188211638D02*
X179836785Y-188211638D01*
X179015357Y-190211638D02*
X179265357Y-188211638D01*
X180253452Y-190211638D02*
X180420119Y-188878304D01*
X180503452Y-188211638D02*
X180396309Y-188306876D01*
X180396309Y-188306876D02*
X180479643Y-188402114D01*
X180479643Y-188402114D02*
X180586786Y-188306876D01*
X180586786Y-188306876D02*
X180503452Y-188211638D01*
X180503452Y-188211638D02*
X180479643Y-188402114D01*
X181086786Y-188878304D02*
X181848690Y-188878304D01*
X181455833Y-188211638D02*
X181241548Y-189925923D01*
X181241548Y-189925923D02*
X181312976Y-190116400D01*
X181312976Y-190116400D02*
X181491548Y-190211638D01*
X181491548Y-190211638D02*
X181682024Y-190211638D01*
X182634405Y-190211638D02*
X182455833Y-190116400D01*
X182455833Y-190116400D02*
X182384405Y-189925923D01*
X182384405Y-189925923D02*
X182598690Y-188211638D01*
X184170119Y-190116400D02*
X183967738Y-190211638D01*
X183967738Y-190211638D02*
X183586785Y-190211638D01*
X183586785Y-190211638D02*
X183408214Y-190116400D01*
X183408214Y-190116400D02*
X183336785Y-189925923D01*
X183336785Y-189925923D02*
X183432024Y-189164019D01*
X183432024Y-189164019D02*
X183551071Y-188973542D01*
X183551071Y-188973542D02*
X183753452Y-188878304D01*
X183753452Y-188878304D02*
X184134404Y-188878304D01*
X184134404Y-188878304D02*
X184312976Y-188973542D01*
X184312976Y-188973542D02*
X184384404Y-189164019D01*
X184384404Y-189164019D02*
X184360595Y-189354495D01*
X184360595Y-189354495D02*
X183384404Y-189544971D01*
X185134405Y-190021161D02*
X185217738Y-190116400D01*
X185217738Y-190116400D02*
X185110595Y-190211638D01*
X185110595Y-190211638D02*
X185027262Y-190116400D01*
X185027262Y-190116400D02*
X185134405Y-190021161D01*
X185134405Y-190021161D02*
X185110595Y-190211638D01*
X185265357Y-188973542D02*
X185348690Y-189068780D01*
X185348690Y-189068780D02*
X185241548Y-189164019D01*
X185241548Y-189164019D02*
X185158214Y-189068780D01*
X185158214Y-189068780D02*
X185265357Y-188973542D01*
X185265357Y-188973542D02*
X185241548Y-189164019D01*
D10*
D11*
X178958026Y-185607614D02*
X178458026Y-185607614D01*
X178458026Y-186393328D02*
X178458026Y-184893328D01*
X178458026Y-184893328D02*
X179172312Y-184893328D01*
X179743740Y-186393328D02*
X179743740Y-185393328D01*
X179743740Y-184893328D02*
X179672312Y-184964757D01*
X179672312Y-184964757D02*
X179743740Y-185036185D01*
X179743740Y-185036185D02*
X179815169Y-184964757D01*
X179815169Y-184964757D02*
X179743740Y-184893328D01*
X179743740Y-184893328D02*
X179743740Y-185036185D01*
X180672312Y-186393328D02*
X180529455Y-186321900D01*
X180529455Y-186321900D02*
X180458026Y-186179042D01*
X180458026Y-186179042D02*
X180458026Y-184893328D01*
X181815169Y-186321900D02*
X181672312Y-186393328D01*
X181672312Y-186393328D02*
X181386598Y-186393328D01*
X181386598Y-186393328D02*
X181243740Y-186321900D01*
X181243740Y-186321900D02*
X181172312Y-186179042D01*
X181172312Y-186179042D02*
X181172312Y-185607614D01*
X181172312Y-185607614D02*
X181243740Y-185464757D01*
X181243740Y-185464757D02*
X181386598Y-185393328D01*
X181386598Y-185393328D02*
X181672312Y-185393328D01*
X181672312Y-185393328D02*
X181815169Y-185464757D01*
X181815169Y-185464757D02*
X181886598Y-185607614D01*
X181886598Y-185607614D02*
X181886598Y-185750471D01*
X181886598Y-185750471D02*
X181172312Y-185893328D01*
X182529454Y-186250471D02*
X182600883Y-186321900D01*
X182600883Y-186321900D02*
X182529454Y-186393328D01*
X182529454Y-186393328D02*
X182458026Y-186321900D01*
X182458026Y-186321900D02*
X182529454Y-186250471D01*
X182529454Y-186250471D02*
X182529454Y-186393328D01*
X182529454Y-185464757D02*
X182600883Y-185536185D01*
X182600883Y-185536185D02*
X182529454Y-185607614D01*
X182529454Y-185607614D02*
X182458026Y-185536185D01*
X182458026Y-185536185D02*
X182529454Y-185464757D01*
X182529454Y-185464757D02*
X182529454Y-185607614D01*
X184243740Y-185393328D02*
X184600883Y-186393328D01*
X184600883Y-186393328D02*
X184958026Y-185393328D01*
X185815169Y-184893328D02*
X185958026Y-184893328D01*
X185958026Y-184893328D02*
X186100883Y-184964757D01*
X186100883Y-184964757D02*
X186172312Y-185036185D01*
X186172312Y-185036185D02*
X186243740Y-185179042D01*
X186243740Y-185179042D02*
X186315169Y-185464757D01*
X186315169Y-185464757D02*
X186315169Y-185821900D01*
X186315169Y-185821900D02*
X186243740Y-186107614D01*
X186243740Y-186107614D02*
X186172312Y-186250471D01*
X186172312Y-186250471D02*
X186100883Y-186321900D01*
X186100883Y-186321900D02*
X185958026Y-186393328D01*
X185958026Y-186393328D02*
X185815169Y-186393328D01*
X185815169Y-186393328D02*
X185672312Y-186321900D01*
X185672312Y-186321900D02*
X185600883Y-186250471D01*
X185600883Y-186250471D02*
X185529454Y-186107614D01*
X185529454Y-186107614D02*
X185458026Y-185821900D01*
X185458026Y-185821900D02*
X185458026Y-185464757D01*
X185458026Y-185464757D02*
X185529454Y-185179042D01*
X185529454Y-185179042D02*
X185600883Y-185036185D01*
X185600883Y-185036185D02*
X185672312Y-184964757D01*
X185672312Y-184964757D02*
X185815169Y-184893328D01*
X186958025Y-186250471D02*
X187029454Y-186321900D01*
X187029454Y-186321900D02*
X186958025Y-186393328D01*
X186958025Y-186393328D02*
X186886597Y-186321900D01*
X186886597Y-186321900D02*
X186958025Y-186250471D01*
X186958025Y-186250471D02*
X186958025Y-186393328D01*
X188315169Y-185393328D02*
X188315169Y-186393328D01*
X187958026Y-184821900D02*
X187600883Y-185893328D01*
X187600883Y-185893328D02*
X188529454Y-185893328D01*
X189100882Y-186250471D02*
X189172311Y-186321900D01*
X189172311Y-186321900D02*
X189100882Y-186393328D01*
X189100882Y-186393328D02*
X189029454Y-186321900D01*
X189029454Y-186321900D02*
X189100882Y-186250471D01*
X189100882Y-186250471D02*
X189100882Y-186393328D01*
X189672311Y-184893328D02*
X190600883Y-184893328D01*
X190600883Y-184893328D02*
X190100883Y-185464757D01*
X190100883Y-185464757D02*
X190315168Y-185464757D01*
X190315168Y-185464757D02*
X190458026Y-185536185D01*
X190458026Y-185536185D02*
X190529454Y-185607614D01*
X190529454Y-185607614D02*
X190600883Y-185750471D01*
X190600883Y-185750471D02*
X190600883Y-186107614D01*
X190600883Y-186107614D02*
X190529454Y-186250471D01*
X190529454Y-186250471D02*
X190458026Y-186321900D01*
X190458026Y-186321900D02*
X190315168Y-186393328D01*
X190315168Y-186393328D02*
X189886597Y-186393328D01*
X189886597Y-186393328D02*
X189743740Y-186321900D01*
X189743740Y-186321900D02*
X189672311Y-186250471D01*
X191886597Y-186393328D02*
X191886597Y-184893328D01*
X191886597Y-186321900D02*
X191743739Y-186393328D01*
X191743739Y-186393328D02*
X191458025Y-186393328D01*
X191458025Y-186393328D02*
X191315168Y-186321900D01*
X191315168Y-186321900D02*
X191243739Y-186250471D01*
X191243739Y-186250471D02*
X191172311Y-186107614D01*
X191172311Y-186107614D02*
X191172311Y-185679042D01*
X191172311Y-185679042D02*
X191243739Y-185536185D01*
X191243739Y-185536185D02*
X191315168Y-185464757D01*
X191315168Y-185464757D02*
X191458025Y-185393328D01*
X191458025Y-185393328D02*
X191743739Y-185393328D01*
X191743739Y-185393328D02*
X191886597Y-185464757D01*
X192600882Y-186250471D02*
X192672311Y-186321900D01*
X192672311Y-186321900D02*
X192600882Y-186393328D01*
X192600882Y-186393328D02*
X192529454Y-186321900D01*
X192529454Y-186321900D02*
X192600882Y-186250471D01*
X192600882Y-186250471D02*
X192600882Y-186393328D01*
X193315168Y-186393328D02*
X193315168Y-184893328D01*
X193458026Y-185821900D02*
X193886597Y-186393328D01*
X193886597Y-185393328D02*
X193315168Y-185964757D01*
X194529454Y-186393328D02*
X194529454Y-185393328D01*
X194529454Y-184893328D02*
X194458026Y-184964757D01*
X194458026Y-184964757D02*
X194529454Y-185036185D01*
X194529454Y-185036185D02*
X194600883Y-184964757D01*
X194600883Y-184964757D02*
X194529454Y-184893328D01*
X194529454Y-184893328D02*
X194529454Y-185036185D01*
X195886598Y-186321900D02*
X195743740Y-186393328D01*
X195743740Y-186393328D02*
X195458026Y-186393328D01*
X195458026Y-186393328D02*
X195315169Y-186321900D01*
X195315169Y-186321900D02*
X195243740Y-186250471D01*
X195243740Y-186250471D02*
X195172312Y-186107614D01*
X195172312Y-186107614D02*
X195172312Y-185679042D01*
X195172312Y-185679042D02*
X195243740Y-185536185D01*
X195243740Y-185536185D02*
X195315169Y-185464757D01*
X195315169Y-185464757D02*
X195458026Y-185393328D01*
X195458026Y-185393328D02*
X195743740Y-185393328D01*
X195743740Y-185393328D02*
X195886598Y-185464757D01*
X197172312Y-186393328D02*
X197172312Y-185607614D01*
X197172312Y-185607614D02*
X197100883Y-185464757D01*
X197100883Y-185464757D02*
X196958026Y-185393328D01*
X196958026Y-185393328D02*
X196672312Y-185393328D01*
X196672312Y-185393328D02*
X196529454Y-185464757D01*
X197172312Y-186321900D02*
X197029454Y-186393328D01*
X197029454Y-186393328D02*
X196672312Y-186393328D01*
X196672312Y-186393328D02*
X196529454Y-186321900D01*
X196529454Y-186321900D02*
X196458026Y-186179042D01*
X196458026Y-186179042D02*
X196458026Y-186036185D01*
X196458026Y-186036185D02*
X196529454Y-185893328D01*
X196529454Y-185893328D02*
X196672312Y-185821900D01*
X196672312Y-185821900D02*
X197029454Y-185821900D01*
X197029454Y-185821900D02*
X197172312Y-185750471D01*
X198529455Y-186393328D02*
X198529455Y-184893328D01*
X198529455Y-186321900D02*
X198386597Y-186393328D01*
X198386597Y-186393328D02*
X198100883Y-186393328D01*
X198100883Y-186393328D02*
X197958026Y-186321900D01*
X197958026Y-186321900D02*
X197886597Y-186250471D01*
X197886597Y-186250471D02*
X197815169Y-186107614D01*
X197815169Y-186107614D02*
X197815169Y-185679042D01*
X197815169Y-185679042D02*
X197886597Y-185536185D01*
X197886597Y-185536185D02*
X197958026Y-185464757D01*
X197958026Y-185464757D02*
X198100883Y-185393328D01*
X198100883Y-185393328D02*
X198386597Y-185393328D01*
X198386597Y-185393328D02*
X198529455Y-185464757D01*
X198886598Y-186536185D02*
X200029455Y-186536185D01*
X200386597Y-185393328D02*
X200386597Y-186893328D01*
X200386597Y-185464757D02*
X200529455Y-185393328D01*
X200529455Y-185393328D02*
X200815169Y-185393328D01*
X200815169Y-185393328D02*
X200958026Y-185464757D01*
X200958026Y-185464757D02*
X201029455Y-185536185D01*
X201029455Y-185536185D02*
X201100883Y-185679042D01*
X201100883Y-185679042D02*
X201100883Y-186107614D01*
X201100883Y-186107614D02*
X201029455Y-186250471D01*
X201029455Y-186250471D02*
X200958026Y-186321900D01*
X200958026Y-186321900D02*
X200815169Y-186393328D01*
X200815169Y-186393328D02*
X200529455Y-186393328D01*
X200529455Y-186393328D02*
X200386597Y-186321900D01*
X202386598Y-186321900D02*
X202243740Y-186393328D01*
X202243740Y-186393328D02*
X201958026Y-186393328D01*
X201958026Y-186393328D02*
X201815169Y-186321900D01*
X201815169Y-186321900D02*
X201743740Y-186250471D01*
X201743740Y-186250471D02*
X201672312Y-186107614D01*
X201672312Y-186107614D02*
X201672312Y-185679042D01*
X201672312Y-185679042D02*
X201743740Y-185536185D01*
X201743740Y-185536185D02*
X201815169Y-185464757D01*
X201815169Y-185464757D02*
X201958026Y-185393328D01*
X201958026Y-185393328D02*
X202243740Y-185393328D01*
X202243740Y-185393328D02*
X202386598Y-185464757D01*
X203029454Y-186393328D02*
X203029454Y-184893328D01*
X203029454Y-185464757D02*
X203172312Y-185393328D01*
X203172312Y-185393328D02*
X203458026Y-185393328D01*
X203458026Y-185393328D02*
X203600883Y-185464757D01*
X203600883Y-185464757D02*
X203672312Y-185536185D01*
X203672312Y-185536185D02*
X203743740Y-185679042D01*
X203743740Y-185679042D02*
X203743740Y-186107614D01*
X203743740Y-186107614D02*
X203672312Y-186250471D01*
X203672312Y-186250471D02*
X203600883Y-186321900D01*
X203600883Y-186321900D02*
X203458026Y-186393328D01*
X203458026Y-186393328D02*
X203172312Y-186393328D01*
X203172312Y-186393328D02*
X203029454Y-186321900D01*
D10*
D11*
X177002200Y-181507200D02*
X285002200Y-181507200D01*
D10*
D11*
X178386598Y-183621900D02*
X178600884Y-183693328D01*
X178600884Y-183693328D02*
X178958026Y-183693328D01*
X178958026Y-183693328D02*
X179100884Y-183621900D01*
X179100884Y-183621900D02*
X179172312Y-183550471D01*
X179172312Y-183550471D02*
X179243741Y-183407614D01*
X179243741Y-183407614D02*
X179243741Y-183264757D01*
X179243741Y-183264757D02*
X179172312Y-183121900D01*
X179172312Y-183121900D02*
X179100884Y-183050471D01*
X179100884Y-183050471D02*
X178958026Y-182979042D01*
X178958026Y-182979042D02*
X178672312Y-182907614D01*
X178672312Y-182907614D02*
X178529455Y-182836185D01*
X178529455Y-182836185D02*
X178458026Y-182764757D01*
X178458026Y-182764757D02*
X178386598Y-182621900D01*
X178386598Y-182621900D02*
X178386598Y-182479042D01*
X178386598Y-182479042D02*
X178458026Y-182336185D01*
X178458026Y-182336185D02*
X178529455Y-182264757D01*
X178529455Y-182264757D02*
X178672312Y-182193328D01*
X178672312Y-182193328D02*
X179029455Y-182193328D01*
X179029455Y-182193328D02*
X179243741Y-182264757D01*
X179886597Y-183693328D02*
X179886597Y-182193328D01*
X180529455Y-183693328D02*
X180529455Y-182907614D01*
X180529455Y-182907614D02*
X180458026Y-182764757D01*
X180458026Y-182764757D02*
X180315169Y-182693328D01*
X180315169Y-182693328D02*
X180100883Y-182693328D01*
X180100883Y-182693328D02*
X179958026Y-182764757D01*
X179958026Y-182764757D02*
X179886597Y-182836185D01*
X181815169Y-183621900D02*
X181672312Y-183693328D01*
X181672312Y-183693328D02*
X181386598Y-183693328D01*
X181386598Y-183693328D02*
X181243740Y-183621900D01*
X181243740Y-183621900D02*
X181172312Y-183479042D01*
X181172312Y-183479042D02*
X181172312Y-182907614D01*
X181172312Y-182907614D02*
X181243740Y-182764757D01*
X181243740Y-182764757D02*
X181386598Y-182693328D01*
X181386598Y-182693328D02*
X181672312Y-182693328D01*
X181672312Y-182693328D02*
X181815169Y-182764757D01*
X181815169Y-182764757D02*
X181886598Y-182907614D01*
X181886598Y-182907614D02*
X181886598Y-183050471D01*
X181886598Y-183050471D02*
X181172312Y-183193328D01*
X183100883Y-183621900D02*
X182958026Y-183693328D01*
X182958026Y-183693328D02*
X182672312Y-183693328D01*
X182672312Y-183693328D02*
X182529454Y-183621900D01*
X182529454Y-183621900D02*
X182458026Y-183479042D01*
X182458026Y-183479042D02*
X182458026Y-182907614D01*
X182458026Y-182907614D02*
X182529454Y-182764757D01*
X182529454Y-182764757D02*
X182672312Y-182693328D01*
X182672312Y-182693328D02*
X182958026Y-182693328D01*
X182958026Y-182693328D02*
X183100883Y-182764757D01*
X183100883Y-182764757D02*
X183172312Y-182907614D01*
X183172312Y-182907614D02*
X183172312Y-183050471D01*
X183172312Y-183050471D02*
X182458026Y-183193328D01*
X183600883Y-182693328D02*
X184172311Y-182693328D01*
X183815168Y-182193328D02*
X183815168Y-183479042D01*
X183815168Y-183479042D02*
X183886597Y-183621900D01*
X183886597Y-183621900D02*
X184029454Y-183693328D01*
X184029454Y-183693328D02*
X184172311Y-183693328D01*
X184672311Y-183550471D02*
X184743740Y-183621900D01*
X184743740Y-183621900D02*
X184672311Y-183693328D01*
X184672311Y-183693328D02*
X184600883Y-183621900D01*
X184600883Y-183621900D02*
X184672311Y-183550471D01*
X184672311Y-183550471D02*
X184672311Y-183693328D01*
X184672311Y-182764757D02*
X184743740Y-182836185D01*
X184743740Y-182836185D02*
X184672311Y-182907614D01*
X184672311Y-182907614D02*
X184600883Y-182836185D01*
X184600883Y-182836185D02*
X184672311Y-182764757D01*
X184672311Y-182764757D02*
X184672311Y-182907614D01*
D10*
D12*
D10*
D11*
D10*
D11*
D10*
D11*
D10*
D11*
D10*
D11*
X197002200Y-191507200D02*
X197002200Y-194507200D01*
D10*
D11*
X261002200Y-191507200D02*
X261002200Y-198007200D01*
X78052819Y-67429142D02*
X77576628Y-67095809D01*
X78052819Y-66857714D02*
X77052819Y-66857714D01*
X77052819Y-66857714D02*
X77052819Y-67238666D01*
X77052819Y-67238666D02*
X77100438Y-67333904D01*
X77100438Y-67333904D02*
X77148057Y-67381523D01*
X77148057Y-67381523D02*
X77243295Y-67429142D01*
X77243295Y-67429142D02*
X77386152Y-67429142D01*
X77386152Y-67429142D02*
X77481390Y-67381523D01*
X77481390Y-67381523D02*
X77529009Y-67333904D01*
X77529009Y-67333904D02*
X77576628Y-67238666D01*
X77576628Y-67238666D02*
X77576628Y-66857714D01*
X77386152Y-68286285D02*
X78052819Y-68286285D01*
X77005200Y-68048190D02*
X77719485Y-67810095D01*
X77719485Y-67810095D02*
X77719485Y-68429142D01*
X77386152Y-69238666D02*
X78052819Y-69238666D01*
X77005200Y-69000571D02*
X77719485Y-68762476D01*
X77719485Y-68762476D02*
X77719485Y-69381523D01*
X81352819Y-86629642D02*
X80876628Y-86296309D01*
X81352819Y-86058214D02*
X80352819Y-86058214D01*
X80352819Y-86058214D02*
X80352819Y-86439166D01*
X80352819Y-86439166D02*
X80400438Y-86534404D01*
X80400438Y-86534404D02*
X80448057Y-86582023D01*
X80448057Y-86582023D02*
X80543295Y-86629642D01*
X80543295Y-86629642D02*
X80686152Y-86629642D01*
X80686152Y-86629642D02*
X80781390Y-86582023D01*
X80781390Y-86582023D02*
X80829009Y-86534404D01*
X80829009Y-86534404D02*
X80876628Y-86439166D01*
X80876628Y-86439166D02*
X80876628Y-86058214D01*
X80448057Y-87010595D02*
X80400438Y-87058214D01*
X80400438Y-87058214D02*
X80352819Y-87153452D01*
X80352819Y-87153452D02*
X80352819Y-87391547D01*
X80352819Y-87391547D02*
X80400438Y-87486785D01*
X80400438Y-87486785D02*
X80448057Y-87534404D01*
X80448057Y-87534404D02*
X80543295Y-87582023D01*
X80543295Y-87582023D02*
X80638533Y-87582023D01*
X80638533Y-87582023D02*
X80781390Y-87534404D01*
X80781390Y-87534404D02*
X81352819Y-86962976D01*
X81352819Y-86962976D02*
X81352819Y-87582023D01*
X80781390Y-88153452D02*
X80733771Y-88058214D01*
X80733771Y-88058214D02*
X80686152Y-88010595D01*
X80686152Y-88010595D02*
X80590914Y-87962976D01*
X80590914Y-87962976D02*
X80543295Y-87962976D01*
X80543295Y-87962976D02*
X80448057Y-88010595D01*
X80448057Y-88010595D02*
X80400438Y-88058214D01*
X80400438Y-88058214D02*
X80352819Y-88153452D01*
X80352819Y-88153452D02*
X80352819Y-88343928D01*
X80352819Y-88343928D02*
X80400438Y-88439166D01*
X80400438Y-88439166D02*
X80448057Y-88486785D01*
X80448057Y-88486785D02*
X80543295Y-88534404D01*
X80543295Y-88534404D02*
X80590914Y-88534404D01*
X80590914Y-88534404D02*
X80686152Y-88486785D01*
X80686152Y-88486785D02*
X80733771Y-88439166D01*
X80733771Y-88439166D02*
X80781390Y-88343928D01*
X80781390Y-88343928D02*
X80781390Y-88153452D01*
X80781390Y-88153452D02*
X80829009Y-88058214D01*
X80829009Y-88058214D02*
X80876628Y-88010595D01*
X80876628Y-88010595D02*
X80971866Y-87962976D01*
X80971866Y-87962976D02*
X81162342Y-87962976D01*
X81162342Y-87962976D02*
X81257580Y-88010595D01*
X81257580Y-88010595D02*
X81305200Y-88058214D01*
X81305200Y-88058214D02*
X81352819Y-88153452D01*
X81352819Y-88153452D02*
X81352819Y-88343928D01*
X81352819Y-88343928D02*
X81305200Y-88439166D01*
X81305200Y-88439166D02*
X81257580Y-88486785D01*
X81257580Y-88486785D02*
X81162342Y-88534404D01*
X81162342Y-88534404D02*
X80971866Y-88534404D01*
X80971866Y-88534404D02*
X80876628Y-88486785D01*
X80876628Y-88486785D02*
X80829009Y-88439166D01*
X80829009Y-88439166D02*
X80781390Y-88343928D01*
X85820238Y-53014057D02*
X85915476Y-52966438D01*
X85915476Y-52966438D02*
X86010714Y-52871200D01*
X86010714Y-52871200D02*
X86153571Y-52728342D01*
X86153571Y-52728342D02*
X86248809Y-52680723D01*
X86248809Y-52680723D02*
X86344047Y-52680723D01*
X86296428Y-52918819D02*
X86391666Y-52871200D01*
X86391666Y-52871200D02*
X86486904Y-52775961D01*
X86486904Y-52775961D02*
X86534523Y-52585485D01*
X86534523Y-52585485D02*
X86534523Y-52252152D01*
X86534523Y-52252152D02*
X86486904Y-52061676D01*
X86486904Y-52061676D02*
X86391666Y-51966438D01*
X86391666Y-51966438D02*
X86296428Y-51918819D01*
X86296428Y-51918819D02*
X86105952Y-51918819D01*
X86105952Y-51918819D02*
X86010714Y-51966438D01*
X86010714Y-51966438D02*
X85915476Y-52061676D01*
X85915476Y-52061676D02*
X85867857Y-52252152D01*
X85867857Y-52252152D02*
X85867857Y-52585485D01*
X85867857Y-52585485D02*
X85915476Y-52775961D01*
X85915476Y-52775961D02*
X86010714Y-52871200D01*
X86010714Y-52871200D02*
X86105952Y-52918819D01*
X86105952Y-52918819D02*
X86296428Y-52918819D01*
X85010714Y-52252152D02*
X85010714Y-52918819D01*
X85248809Y-51871200D02*
X85486904Y-52585485D01*
X85486904Y-52585485D02*
X84867857Y-52585485D01*
X121917619Y-55084742D02*
X121441428Y-54751409D01*
X121917619Y-54513314D02*
X120917619Y-54513314D01*
X120917619Y-54513314D02*
X120917619Y-54894266D01*
X120917619Y-54894266D02*
X120965238Y-54989504D01*
X120965238Y-54989504D02*
X121012857Y-55037123D01*
X121012857Y-55037123D02*
X121108095Y-55084742D01*
X121108095Y-55084742D02*
X121250952Y-55084742D01*
X121250952Y-55084742D02*
X121346190Y-55037123D01*
X121346190Y-55037123D02*
X121393809Y-54989504D01*
X121393809Y-54989504D02*
X121441428Y-54894266D01*
X121441428Y-54894266D02*
X121441428Y-54513314D01*
X120917619Y-55418076D02*
X120917619Y-56037123D01*
X120917619Y-56037123D02*
X121298571Y-55703790D01*
X121298571Y-55703790D02*
X121298571Y-55846647D01*
X121298571Y-55846647D02*
X121346190Y-55941885D01*
X121346190Y-55941885D02*
X121393809Y-55989504D01*
X121393809Y-55989504D02*
X121489047Y-56037123D01*
X121489047Y-56037123D02*
X121727142Y-56037123D01*
X121727142Y-56037123D02*
X121822380Y-55989504D01*
X121822380Y-55989504D02*
X121870000Y-55941885D01*
X121870000Y-55941885D02*
X121917619Y-55846647D01*
X121917619Y-55846647D02*
X121917619Y-55560933D01*
X121917619Y-55560933D02*
X121870000Y-55465695D01*
X121870000Y-55465695D02*
X121822380Y-55418076D01*
X121917619Y-56989504D02*
X121917619Y-56418076D01*
X121917619Y-56703790D02*
X120917619Y-56703790D01*
X120917619Y-56703790D02*
X121060476Y-56608552D01*
X121060476Y-56608552D02*
X121155714Y-56513314D01*
X121155714Y-56513314D02*
X121203333Y-56418076D01*
X85820238Y-85361557D02*
X85915476Y-85313938D01*
X85915476Y-85313938D02*
X86010714Y-85218700D01*
X86010714Y-85218700D02*
X86153571Y-85075842D01*
X86153571Y-85075842D02*
X86248809Y-85028223D01*
X86248809Y-85028223D02*
X86344047Y-85028223D01*
X86296428Y-85266319D02*
X86391666Y-85218700D01*
X86391666Y-85218700D02*
X86486904Y-85123461D01*
X86486904Y-85123461D02*
X86534523Y-84932985D01*
X86534523Y-84932985D02*
X86534523Y-84599652D01*
X86534523Y-84599652D02*
X86486904Y-84409176D01*
X86486904Y-84409176D02*
X86391666Y-84313938D01*
X86391666Y-84313938D02*
X86296428Y-84266319D01*
X86296428Y-84266319D02*
X86105952Y-84266319D01*
X86105952Y-84266319D02*
X86010714Y-84313938D01*
X86010714Y-84313938D02*
X85915476Y-84409176D01*
X85915476Y-84409176D02*
X85867857Y-84599652D01*
X85867857Y-84599652D02*
X85867857Y-84932985D01*
X85867857Y-84932985D02*
X85915476Y-85123461D01*
X85915476Y-85123461D02*
X86010714Y-85218700D01*
X86010714Y-85218700D02*
X86105952Y-85266319D01*
X86105952Y-85266319D02*
X86296428Y-85266319D01*
X85486904Y-84361557D02*
X85439285Y-84313938D01*
X85439285Y-84313938D02*
X85344047Y-84266319D01*
X85344047Y-84266319D02*
X85105952Y-84266319D01*
X85105952Y-84266319D02*
X85010714Y-84313938D01*
X85010714Y-84313938D02*
X84963095Y-84361557D01*
X84963095Y-84361557D02*
X84915476Y-84456795D01*
X84915476Y-84456795D02*
X84915476Y-84552033D01*
X84915476Y-84552033D02*
X84963095Y-84694890D01*
X84963095Y-84694890D02*
X85534523Y-85266319D01*
X85534523Y-85266319D02*
X84915476Y-85266319D01*
X91413219Y-67403742D02*
X90937028Y-67070409D01*
X91413219Y-66832314D02*
X90413219Y-66832314D01*
X90413219Y-66832314D02*
X90413219Y-67213266D01*
X90413219Y-67213266D02*
X90460838Y-67308504D01*
X90460838Y-67308504D02*
X90508457Y-67356123D01*
X90508457Y-67356123D02*
X90603695Y-67403742D01*
X90603695Y-67403742D02*
X90746552Y-67403742D01*
X90746552Y-67403742D02*
X90841790Y-67356123D01*
X90841790Y-67356123D02*
X90889409Y-67308504D01*
X90889409Y-67308504D02*
X90937028Y-67213266D01*
X90937028Y-67213266D02*
X90937028Y-66832314D01*
X90413219Y-68260885D02*
X90413219Y-68070409D01*
X90413219Y-68070409D02*
X90460838Y-67975171D01*
X90460838Y-67975171D02*
X90508457Y-67927552D01*
X90508457Y-67927552D02*
X90651314Y-67832314D01*
X90651314Y-67832314D02*
X90841790Y-67784695D01*
X90841790Y-67784695D02*
X91222742Y-67784695D01*
X91222742Y-67784695D02*
X91317980Y-67832314D01*
X91317980Y-67832314D02*
X91365600Y-67879933D01*
X91365600Y-67879933D02*
X91413219Y-67975171D01*
X91413219Y-67975171D02*
X91413219Y-68165647D01*
X91413219Y-68165647D02*
X91365600Y-68260885D01*
X91365600Y-68260885D02*
X91317980Y-68308504D01*
X91317980Y-68308504D02*
X91222742Y-68356123D01*
X91222742Y-68356123D02*
X90984647Y-68356123D01*
X90984647Y-68356123D02*
X90889409Y-68308504D01*
X90889409Y-68308504D02*
X90841790Y-68260885D01*
X90841790Y-68260885D02*
X90794171Y-68165647D01*
X90794171Y-68165647D02*
X90794171Y-67975171D01*
X90794171Y-67975171D02*
X90841790Y-67879933D01*
X90841790Y-67879933D02*
X90889409Y-67832314D01*
X90889409Y-67832314D02*
X90984647Y-67784695D01*
X90413219Y-68689457D02*
X90413219Y-69356123D01*
X90413219Y-69356123D02*
X91413219Y-68927552D01*
X114227780Y-55433933D02*
X114275400Y-55386314D01*
X114275400Y-55386314D02*
X114323019Y-55243457D01*
X114323019Y-55243457D02*
X114323019Y-55148219D01*
X114323019Y-55148219D02*
X114275400Y-55005362D01*
X114275400Y-55005362D02*
X114180161Y-54910124D01*
X114180161Y-54910124D02*
X114084923Y-54862505D01*
X114084923Y-54862505D02*
X113894447Y-54814886D01*
X113894447Y-54814886D02*
X113751590Y-54814886D01*
X113751590Y-54814886D02*
X113561114Y-54862505D01*
X113561114Y-54862505D02*
X113465876Y-54910124D01*
X113465876Y-54910124D02*
X113370638Y-55005362D01*
X113370638Y-55005362D02*
X113323019Y-55148219D01*
X113323019Y-55148219D02*
X113323019Y-55243457D01*
X113323019Y-55243457D02*
X113370638Y-55386314D01*
X113370638Y-55386314D02*
X113418257Y-55433933D01*
X113323019Y-55767267D02*
X113323019Y-56386314D01*
X113323019Y-56386314D02*
X113703971Y-56052981D01*
X113703971Y-56052981D02*
X113703971Y-56195838D01*
X113703971Y-56195838D02*
X113751590Y-56291076D01*
X113751590Y-56291076D02*
X113799209Y-56338695D01*
X113799209Y-56338695D02*
X113894447Y-56386314D01*
X113894447Y-56386314D02*
X114132542Y-56386314D01*
X114132542Y-56386314D02*
X114227780Y-56338695D01*
X114227780Y-56338695D02*
X114275400Y-56291076D01*
X114275400Y-56291076D02*
X114323019Y-56195838D01*
X114323019Y-56195838D02*
X114323019Y-55910124D01*
X114323019Y-55910124D02*
X114275400Y-55814886D01*
X114275400Y-55814886D02*
X114227780Y-55767267D01*
X125040819Y-68826142D02*
X124564628Y-68492809D01*
X125040819Y-68254714D02*
X124040819Y-68254714D01*
X124040819Y-68254714D02*
X124040819Y-68635666D01*
X124040819Y-68635666D02*
X124088438Y-68730904D01*
X124088438Y-68730904D02*
X124136057Y-68778523D01*
X124136057Y-68778523D02*
X124231295Y-68826142D01*
X124231295Y-68826142D02*
X124374152Y-68826142D01*
X124374152Y-68826142D02*
X124469390Y-68778523D01*
X124469390Y-68778523D02*
X124517009Y-68730904D01*
X124517009Y-68730904D02*
X124564628Y-68635666D01*
X124564628Y-68635666D02*
X124564628Y-68254714D01*
X124040819Y-69159476D02*
X124040819Y-69778523D01*
X124040819Y-69778523D02*
X124421771Y-69445190D01*
X124421771Y-69445190D02*
X124421771Y-69588047D01*
X124421771Y-69588047D02*
X124469390Y-69683285D01*
X124469390Y-69683285D02*
X124517009Y-69730904D01*
X124517009Y-69730904D02*
X124612247Y-69778523D01*
X124612247Y-69778523D02*
X124850342Y-69778523D01*
X124850342Y-69778523D02*
X124945580Y-69730904D01*
X124945580Y-69730904D02*
X124993200Y-69683285D01*
X124993200Y-69683285D02*
X125040819Y-69588047D01*
X125040819Y-69588047D02*
X125040819Y-69302333D01*
X125040819Y-69302333D02*
X124993200Y-69207095D01*
X124993200Y-69207095D02*
X124945580Y-69159476D01*
X125040819Y-70254714D02*
X125040819Y-70445190D01*
X125040819Y-70445190D02*
X124993200Y-70540428D01*
X124993200Y-70540428D02*
X124945580Y-70588047D01*
X124945580Y-70588047D02*
X124802723Y-70683285D01*
X124802723Y-70683285D02*
X124612247Y-70730904D01*
X124612247Y-70730904D02*
X124231295Y-70730904D01*
X124231295Y-70730904D02*
X124136057Y-70683285D01*
X124136057Y-70683285D02*
X124088438Y-70635666D01*
X124088438Y-70635666D02*
X124040819Y-70540428D01*
X124040819Y-70540428D02*
X124040819Y-70349952D01*
X124040819Y-70349952D02*
X124088438Y-70254714D01*
X124088438Y-70254714D02*
X124136057Y-70207095D01*
X124136057Y-70207095D02*
X124231295Y-70159476D01*
X124231295Y-70159476D02*
X124469390Y-70159476D01*
X124469390Y-70159476D02*
X124564628Y-70207095D01*
X124564628Y-70207095D02*
X124612247Y-70254714D01*
X124612247Y-70254714D02*
X124659866Y-70349952D01*
X124659866Y-70349952D02*
X124659866Y-70540428D01*
X124659866Y-70540428D02*
X124612247Y-70635666D01*
X124612247Y-70635666D02*
X124564628Y-70683285D01*
X124564628Y-70683285D02*
X124469390Y-70730904D01*
X96467819Y-67429142D02*
X95991628Y-67095809D01*
X96467819Y-66857714D02*
X95467819Y-66857714D01*
X95467819Y-66857714D02*
X95467819Y-67238666D01*
X95467819Y-67238666D02*
X95515438Y-67333904D01*
X95515438Y-67333904D02*
X95563057Y-67381523D01*
X95563057Y-67381523D02*
X95658295Y-67429142D01*
X95658295Y-67429142D02*
X95801152Y-67429142D01*
X95801152Y-67429142D02*
X95896390Y-67381523D01*
X95896390Y-67381523D02*
X95944009Y-67333904D01*
X95944009Y-67333904D02*
X95991628Y-67238666D01*
X95991628Y-67238666D02*
X95991628Y-66857714D01*
X95467819Y-68286285D02*
X95467819Y-68095809D01*
X95467819Y-68095809D02*
X95515438Y-68000571D01*
X95515438Y-68000571D02*
X95563057Y-67952952D01*
X95563057Y-67952952D02*
X95705914Y-67857714D01*
X95705914Y-67857714D02*
X95896390Y-67810095D01*
X95896390Y-67810095D02*
X96277342Y-67810095D01*
X96277342Y-67810095D02*
X96372580Y-67857714D01*
X96372580Y-67857714D02*
X96420200Y-67905333D01*
X96420200Y-67905333D02*
X96467819Y-68000571D01*
X96467819Y-68000571D02*
X96467819Y-68191047D01*
X96467819Y-68191047D02*
X96420200Y-68286285D01*
X96420200Y-68286285D02*
X96372580Y-68333904D01*
X96372580Y-68333904D02*
X96277342Y-68381523D01*
X96277342Y-68381523D02*
X96039247Y-68381523D01*
X96039247Y-68381523D02*
X95944009Y-68333904D01*
X95944009Y-68333904D02*
X95896390Y-68286285D01*
X95896390Y-68286285D02*
X95848771Y-68191047D01*
X95848771Y-68191047D02*
X95848771Y-68000571D01*
X95848771Y-68000571D02*
X95896390Y-67905333D01*
X95896390Y-67905333D02*
X95944009Y-67857714D01*
X95944009Y-67857714D02*
X96039247Y-67810095D01*
X95467819Y-69000571D02*
X95467819Y-69095809D01*
X95467819Y-69095809D02*
X95515438Y-69191047D01*
X95515438Y-69191047D02*
X95563057Y-69238666D01*
X95563057Y-69238666D02*
X95658295Y-69286285D01*
X95658295Y-69286285D02*
X95848771Y-69333904D01*
X95848771Y-69333904D02*
X96086866Y-69333904D01*
X96086866Y-69333904D02*
X96277342Y-69286285D01*
X96277342Y-69286285D02*
X96372580Y-69238666D01*
X96372580Y-69238666D02*
X96420200Y-69191047D01*
X96420200Y-69191047D02*
X96467819Y-69095809D01*
X96467819Y-69095809D02*
X96467819Y-69000571D01*
X96467819Y-69000571D02*
X96420200Y-68905333D01*
X96420200Y-68905333D02*
X96372580Y-68857714D01*
X96372580Y-68857714D02*
X96277342Y-68810095D01*
X96277342Y-68810095D02*
X96086866Y-68762476D01*
X96086866Y-68762476D02*
X95848771Y-68762476D01*
X95848771Y-68762476D02*
X95658295Y-68810095D01*
X95658295Y-68810095D02*
X95563057Y-68857714D01*
X95563057Y-68857714D02*
X95515438Y-68905333D01*
X95515438Y-68905333D02*
X95467819Y-69000571D01*
X96467819Y-73398142D02*
X95991628Y-73064809D01*
X96467819Y-72826714D02*
X95467819Y-72826714D01*
X95467819Y-72826714D02*
X95467819Y-73207666D01*
X95467819Y-73207666D02*
X95515438Y-73302904D01*
X95515438Y-73302904D02*
X95563057Y-73350523D01*
X95563057Y-73350523D02*
X95658295Y-73398142D01*
X95658295Y-73398142D02*
X95801152Y-73398142D01*
X95801152Y-73398142D02*
X95896390Y-73350523D01*
X95896390Y-73350523D02*
X95944009Y-73302904D01*
X95944009Y-73302904D02*
X95991628Y-73207666D01*
X95991628Y-73207666D02*
X95991628Y-72826714D01*
X95467819Y-74302904D02*
X95467819Y-73826714D01*
X95467819Y-73826714D02*
X95944009Y-73779095D01*
X95944009Y-73779095D02*
X95896390Y-73826714D01*
X95896390Y-73826714D02*
X95848771Y-73921952D01*
X95848771Y-73921952D02*
X95848771Y-74160047D01*
X95848771Y-74160047D02*
X95896390Y-74255285D01*
X95896390Y-74255285D02*
X95944009Y-74302904D01*
X95944009Y-74302904D02*
X96039247Y-74350523D01*
X96039247Y-74350523D02*
X96277342Y-74350523D01*
X96277342Y-74350523D02*
X96372580Y-74302904D01*
X96372580Y-74302904D02*
X96420200Y-74255285D01*
X96420200Y-74255285D02*
X96467819Y-74160047D01*
X96467819Y-74160047D02*
X96467819Y-73921952D01*
X96467819Y-73921952D02*
X96420200Y-73826714D01*
X96420200Y-73826714D02*
X96372580Y-73779095D01*
X96467819Y-74826714D02*
X96467819Y-75017190D01*
X96467819Y-75017190D02*
X96420200Y-75112428D01*
X96420200Y-75112428D02*
X96372580Y-75160047D01*
X96372580Y-75160047D02*
X96229723Y-75255285D01*
X96229723Y-75255285D02*
X96039247Y-75302904D01*
X96039247Y-75302904D02*
X95658295Y-75302904D01*
X95658295Y-75302904D02*
X95563057Y-75255285D01*
X95563057Y-75255285D02*
X95515438Y-75207666D01*
X95515438Y-75207666D02*
X95467819Y-75112428D01*
X95467819Y-75112428D02*
X95467819Y-74921952D01*
X95467819Y-74921952D02*
X95515438Y-74826714D01*
X95515438Y-74826714D02*
X95563057Y-74779095D01*
X95563057Y-74779095D02*
X95658295Y-74731476D01*
X95658295Y-74731476D02*
X95896390Y-74731476D01*
X95896390Y-74731476D02*
X95991628Y-74779095D01*
X95991628Y-74779095D02*
X96039247Y-74826714D01*
X96039247Y-74826714D02*
X96086866Y-74921952D01*
X96086866Y-74921952D02*
X96086866Y-75112428D01*
X96086866Y-75112428D02*
X96039247Y-75207666D01*
X96039247Y-75207666D02*
X95991628Y-75255285D01*
X95991628Y-75255285D02*
X95896390Y-75302904D01*
X128445419Y-90339942D02*
X127969228Y-90006609D01*
X128445419Y-89768514D02*
X127445419Y-89768514D01*
X127445419Y-89768514D02*
X127445419Y-90149466D01*
X127445419Y-90149466D02*
X127493038Y-90244704D01*
X127493038Y-90244704D02*
X127540657Y-90292323D01*
X127540657Y-90292323D02*
X127635895Y-90339942D01*
X127635895Y-90339942D02*
X127778752Y-90339942D01*
X127778752Y-90339942D02*
X127873990Y-90292323D01*
X127873990Y-90292323D02*
X127921609Y-90244704D01*
X127921609Y-90244704D02*
X127969228Y-90149466D01*
X127969228Y-90149466D02*
X127969228Y-89768514D01*
X127778752Y-91197085D02*
X128445419Y-91197085D01*
X127397800Y-90958990D02*
X128112085Y-90720895D01*
X128112085Y-90720895D02*
X128112085Y-91339942D01*
X128445419Y-92244704D02*
X128445419Y-91673276D01*
X128445419Y-91958990D02*
X127445419Y-91958990D01*
X127445419Y-91958990D02*
X127588276Y-91863752D01*
X127588276Y-91863752D02*
X127683514Y-91768514D01*
X127683514Y-91768514D02*
X127731133Y-91673276D01*
X91387819Y-86502642D02*
X90911628Y-86169309D01*
X91387819Y-85931214D02*
X90387819Y-85931214D01*
X90387819Y-85931214D02*
X90387819Y-86312166D01*
X90387819Y-86312166D02*
X90435438Y-86407404D01*
X90435438Y-86407404D02*
X90483057Y-86455023D01*
X90483057Y-86455023D02*
X90578295Y-86502642D01*
X90578295Y-86502642D02*
X90721152Y-86502642D01*
X90721152Y-86502642D02*
X90816390Y-86455023D01*
X90816390Y-86455023D02*
X90864009Y-86407404D01*
X90864009Y-86407404D02*
X90911628Y-86312166D01*
X90911628Y-86312166D02*
X90911628Y-85931214D01*
X90387819Y-87359785D02*
X90387819Y-87169309D01*
X90387819Y-87169309D02*
X90435438Y-87074071D01*
X90435438Y-87074071D02*
X90483057Y-87026452D01*
X90483057Y-87026452D02*
X90625914Y-86931214D01*
X90625914Y-86931214D02*
X90816390Y-86883595D01*
X90816390Y-86883595D02*
X91197342Y-86883595D01*
X91197342Y-86883595D02*
X91292580Y-86931214D01*
X91292580Y-86931214D02*
X91340200Y-86978833D01*
X91340200Y-86978833D02*
X91387819Y-87074071D01*
X91387819Y-87074071D02*
X91387819Y-87264547D01*
X91387819Y-87264547D02*
X91340200Y-87359785D01*
X91340200Y-87359785D02*
X91292580Y-87407404D01*
X91292580Y-87407404D02*
X91197342Y-87455023D01*
X91197342Y-87455023D02*
X90959247Y-87455023D01*
X90959247Y-87455023D02*
X90864009Y-87407404D01*
X90864009Y-87407404D02*
X90816390Y-87359785D01*
X90816390Y-87359785D02*
X90768771Y-87264547D01*
X90768771Y-87264547D02*
X90768771Y-87074071D01*
X90768771Y-87074071D02*
X90816390Y-86978833D01*
X90816390Y-86978833D02*
X90864009Y-86931214D01*
X90864009Y-86931214D02*
X90959247Y-86883595D01*
X91387819Y-87931214D02*
X91387819Y-88121690D01*
X91387819Y-88121690D02*
X91340200Y-88216928D01*
X91340200Y-88216928D02*
X91292580Y-88264547D01*
X91292580Y-88264547D02*
X91149723Y-88359785D01*
X91149723Y-88359785D02*
X90959247Y-88407404D01*
X90959247Y-88407404D02*
X90578295Y-88407404D01*
X90578295Y-88407404D02*
X90483057Y-88359785D01*
X90483057Y-88359785D02*
X90435438Y-88312166D01*
X90435438Y-88312166D02*
X90387819Y-88216928D01*
X90387819Y-88216928D02*
X90387819Y-88026452D01*
X90387819Y-88026452D02*
X90435438Y-87931214D01*
X90435438Y-87931214D02*
X90483057Y-87883595D01*
X90483057Y-87883595D02*
X90578295Y-87835976D01*
X90578295Y-87835976D02*
X90816390Y-87835976D01*
X90816390Y-87835976D02*
X90911628Y-87883595D01*
X90911628Y-87883595D02*
X90959247Y-87931214D01*
X90959247Y-87931214D02*
X91006866Y-88026452D01*
X91006866Y-88026452D02*
X91006866Y-88216928D01*
X91006866Y-88216928D02*
X90959247Y-88312166D01*
X90959247Y-88312166D02*
X90911628Y-88359785D01*
X90911628Y-88359785D02*
X90816390Y-88407404D01*
X119377619Y-68749942D02*
X118901428Y-68416609D01*
X119377619Y-68178514D02*
X118377619Y-68178514D01*
X118377619Y-68178514D02*
X118377619Y-68559466D01*
X118377619Y-68559466D02*
X118425238Y-68654704D01*
X118425238Y-68654704D02*
X118472857Y-68702323D01*
X118472857Y-68702323D02*
X118568095Y-68749942D01*
X118568095Y-68749942D02*
X118710952Y-68749942D01*
X118710952Y-68749942D02*
X118806190Y-68702323D01*
X118806190Y-68702323D02*
X118853809Y-68654704D01*
X118853809Y-68654704D02*
X118901428Y-68559466D01*
X118901428Y-68559466D02*
X118901428Y-68178514D01*
X118377619Y-69083276D02*
X118377619Y-69702323D01*
X118377619Y-69702323D02*
X118758571Y-69368990D01*
X118758571Y-69368990D02*
X118758571Y-69511847D01*
X118758571Y-69511847D02*
X118806190Y-69607085D01*
X118806190Y-69607085D02*
X118853809Y-69654704D01*
X118853809Y-69654704D02*
X118949047Y-69702323D01*
X118949047Y-69702323D02*
X119187142Y-69702323D01*
X119187142Y-69702323D02*
X119282380Y-69654704D01*
X119282380Y-69654704D02*
X119330000Y-69607085D01*
X119330000Y-69607085D02*
X119377619Y-69511847D01*
X119377619Y-69511847D02*
X119377619Y-69226133D01*
X119377619Y-69226133D02*
X119330000Y-69130895D01*
X119330000Y-69130895D02*
X119282380Y-69083276D01*
X118377619Y-70607085D02*
X118377619Y-70130895D01*
X118377619Y-70130895D02*
X118853809Y-70083276D01*
X118853809Y-70083276D02*
X118806190Y-70130895D01*
X118806190Y-70130895D02*
X118758571Y-70226133D01*
X118758571Y-70226133D02*
X118758571Y-70464228D01*
X118758571Y-70464228D02*
X118806190Y-70559466D01*
X118806190Y-70559466D02*
X118853809Y-70607085D01*
X118853809Y-70607085D02*
X118949047Y-70654704D01*
X118949047Y-70654704D02*
X119187142Y-70654704D01*
X119187142Y-70654704D02*
X119282380Y-70607085D01*
X119282380Y-70607085D02*
X119330000Y-70559466D01*
X119330000Y-70559466D02*
X119377619Y-70464228D01*
X119377619Y-70464228D02*
X119377619Y-70226133D01*
X119377619Y-70226133D02*
X119330000Y-70130895D01*
X119330000Y-70130895D02*
X119282380Y-70083276D01*
X136405580Y-68826142D02*
X136453200Y-68778523D01*
X136453200Y-68778523D02*
X136500819Y-68635666D01*
X136500819Y-68635666D02*
X136500819Y-68540428D01*
X136500819Y-68540428D02*
X136453200Y-68397571D01*
X136453200Y-68397571D02*
X136357961Y-68302333D01*
X136357961Y-68302333D02*
X136262723Y-68254714D01*
X136262723Y-68254714D02*
X136072247Y-68207095D01*
X136072247Y-68207095D02*
X135929390Y-68207095D01*
X135929390Y-68207095D02*
X135738914Y-68254714D01*
X135738914Y-68254714D02*
X135643676Y-68302333D01*
X135643676Y-68302333D02*
X135548438Y-68397571D01*
X135548438Y-68397571D02*
X135500819Y-68540428D01*
X135500819Y-68540428D02*
X135500819Y-68635666D01*
X135500819Y-68635666D02*
X135548438Y-68778523D01*
X135548438Y-68778523D02*
X135596057Y-68826142D01*
X136500819Y-69778523D02*
X136500819Y-69207095D01*
X136500819Y-69492809D02*
X135500819Y-69492809D01*
X135500819Y-69492809D02*
X135643676Y-69397571D01*
X135643676Y-69397571D02*
X135738914Y-69302333D01*
X135738914Y-69302333D02*
X135786533Y-69207095D01*
X135500819Y-70111857D02*
X135500819Y-70730904D01*
X135500819Y-70730904D02*
X135881771Y-70397571D01*
X135881771Y-70397571D02*
X135881771Y-70540428D01*
X135881771Y-70540428D02*
X135929390Y-70635666D01*
X135929390Y-70635666D02*
X135977009Y-70683285D01*
X135977009Y-70683285D02*
X136072247Y-70730904D01*
X136072247Y-70730904D02*
X136310342Y-70730904D01*
X136310342Y-70730904D02*
X136405580Y-70683285D01*
X136405580Y-70683285D02*
X136453200Y-70635666D01*
X136453200Y-70635666D02*
X136500819Y-70540428D01*
X136500819Y-70540428D02*
X136500819Y-70254714D01*
X136500819Y-70254714D02*
X136453200Y-70159476D01*
X136453200Y-70159476D02*
X136405580Y-70111857D01*
X85947238Y-72584457D02*
X86042476Y-72536838D01*
X86042476Y-72536838D02*
X86137714Y-72441600D01*
X86137714Y-72441600D02*
X86280571Y-72298742D01*
X86280571Y-72298742D02*
X86375809Y-72251123D01*
X86375809Y-72251123D02*
X86471047Y-72251123D01*
X86423428Y-72489219D02*
X86518666Y-72441600D01*
X86518666Y-72441600D02*
X86613904Y-72346361D01*
X86613904Y-72346361D02*
X86661523Y-72155885D01*
X86661523Y-72155885D02*
X86661523Y-71822552D01*
X86661523Y-71822552D02*
X86613904Y-71632076D01*
X86613904Y-71632076D02*
X86518666Y-71536838D01*
X86518666Y-71536838D02*
X86423428Y-71489219D01*
X86423428Y-71489219D02*
X86232952Y-71489219D01*
X86232952Y-71489219D02*
X86137714Y-71536838D01*
X86137714Y-71536838D02*
X86042476Y-71632076D01*
X86042476Y-71632076D02*
X85994857Y-71822552D01*
X85994857Y-71822552D02*
X85994857Y-72155885D01*
X85994857Y-72155885D02*
X86042476Y-72346361D01*
X86042476Y-72346361D02*
X86137714Y-72441600D01*
X86137714Y-72441600D02*
X86232952Y-72489219D01*
X86232952Y-72489219D02*
X86423428Y-72489219D01*
X85661523Y-71489219D02*
X85042476Y-71489219D01*
X85042476Y-71489219D02*
X85375809Y-71870171D01*
X85375809Y-71870171D02*
X85232952Y-71870171D01*
X85232952Y-71870171D02*
X85137714Y-71917790D01*
X85137714Y-71917790D02*
X85090095Y-71965409D01*
X85090095Y-71965409D02*
X85042476Y-72060647D01*
X85042476Y-72060647D02*
X85042476Y-72298742D01*
X85042476Y-72298742D02*
X85090095Y-72393980D01*
X85090095Y-72393980D02*
X85137714Y-72441600D01*
X85137714Y-72441600D02*
X85232952Y-72489219D01*
X85232952Y-72489219D02*
X85518666Y-72489219D01*
X85518666Y-72489219D02*
X85613904Y-72441600D01*
X85613904Y-72441600D02*
X85661523Y-72393980D01*
X136572419Y-55032042D02*
X136096228Y-54698709D01*
X136572419Y-54460614D02*
X135572419Y-54460614D01*
X135572419Y-54460614D02*
X135572419Y-54841566D01*
X135572419Y-54841566D02*
X135620038Y-54936804D01*
X135620038Y-54936804D02*
X135667657Y-54984423D01*
X135667657Y-54984423D02*
X135762895Y-55032042D01*
X135762895Y-55032042D02*
X135905752Y-55032042D01*
X135905752Y-55032042D02*
X136000990Y-54984423D01*
X136000990Y-54984423D02*
X136048609Y-54936804D01*
X136048609Y-54936804D02*
X136096228Y-54841566D01*
X136096228Y-54841566D02*
X136096228Y-54460614D01*
X135905752Y-55889185D02*
X136572419Y-55889185D01*
X135524800Y-55651090D02*
X136239085Y-55412995D01*
X136239085Y-55412995D02*
X136239085Y-56032042D01*
X136000990Y-56555852D02*
X135953371Y-56460614D01*
X135953371Y-56460614D02*
X135905752Y-56412995D01*
X135905752Y-56412995D02*
X135810514Y-56365376D01*
X135810514Y-56365376D02*
X135762895Y-56365376D01*
X135762895Y-56365376D02*
X135667657Y-56412995D01*
X135667657Y-56412995D02*
X135620038Y-56460614D01*
X135620038Y-56460614D02*
X135572419Y-56555852D01*
X135572419Y-56555852D02*
X135572419Y-56746328D01*
X135572419Y-56746328D02*
X135620038Y-56841566D01*
X135620038Y-56841566D02*
X135667657Y-56889185D01*
X135667657Y-56889185D02*
X135762895Y-56936804D01*
X135762895Y-56936804D02*
X135810514Y-56936804D01*
X135810514Y-56936804D02*
X135905752Y-56889185D01*
X135905752Y-56889185D02*
X135953371Y-56841566D01*
X135953371Y-56841566D02*
X136000990Y-56746328D01*
X136000990Y-56746328D02*
X136000990Y-56555852D01*
X136000990Y-56555852D02*
X136048609Y-56460614D01*
X136048609Y-56460614D02*
X136096228Y-56412995D01*
X136096228Y-56412995D02*
X136191466Y-56365376D01*
X136191466Y-56365376D02*
X136381942Y-56365376D01*
X136381942Y-56365376D02*
X136477180Y-56412995D01*
X136477180Y-56412995D02*
X136524800Y-56460614D01*
X136524800Y-56460614D02*
X136572419Y-56555852D01*
X136572419Y-56555852D02*
X136572419Y-56746328D01*
X136572419Y-56746328D02*
X136524800Y-56841566D01*
X136524800Y-56841566D02*
X136477180Y-56889185D01*
X136477180Y-56889185D02*
X136381942Y-56936804D01*
X136381942Y-56936804D02*
X136191466Y-56936804D01*
X136191466Y-56936804D02*
X136096228Y-56889185D01*
X136096228Y-56889185D02*
X136048609Y-56841566D01*
X136048609Y-56841566D02*
X136000990Y-56746328D01*
X121669980Y-91019333D02*
X121717600Y-90971714D01*
X121717600Y-90971714D02*
X121765219Y-90828857D01*
X121765219Y-90828857D02*
X121765219Y-90733619D01*
X121765219Y-90733619D02*
X121717600Y-90590762D01*
X121717600Y-90590762D02*
X121622361Y-90495524D01*
X121622361Y-90495524D02*
X121527123Y-90447905D01*
X121527123Y-90447905D02*
X121336647Y-90400286D01*
X121336647Y-90400286D02*
X121193790Y-90400286D01*
X121193790Y-90400286D02*
X121003314Y-90447905D01*
X121003314Y-90447905D02*
X120908076Y-90495524D01*
X120908076Y-90495524D02*
X120812838Y-90590762D01*
X120812838Y-90590762D02*
X120765219Y-90733619D01*
X120765219Y-90733619D02*
X120765219Y-90828857D01*
X120765219Y-90828857D02*
X120812838Y-90971714D01*
X120812838Y-90971714D02*
X120860457Y-91019333D01*
X120860457Y-91400286D02*
X120812838Y-91447905D01*
X120812838Y-91447905D02*
X120765219Y-91543143D01*
X120765219Y-91543143D02*
X120765219Y-91781238D01*
X120765219Y-91781238D02*
X120812838Y-91876476D01*
X120812838Y-91876476D02*
X120860457Y-91924095D01*
X120860457Y-91924095D02*
X120955695Y-91971714D01*
X120955695Y-91971714D02*
X121050933Y-91971714D01*
X121050933Y-91971714D02*
X121193790Y-91924095D01*
X121193790Y-91924095D02*
X121765219Y-91352667D01*
X121765219Y-91352667D02*
X121765219Y-91971714D01*
X114075380Y-68800742D02*
X114123000Y-68753123D01*
X114123000Y-68753123D02*
X114170619Y-68610266D01*
X114170619Y-68610266D02*
X114170619Y-68515028D01*
X114170619Y-68515028D02*
X114123000Y-68372171D01*
X114123000Y-68372171D02*
X114027761Y-68276933D01*
X114027761Y-68276933D02*
X113932523Y-68229314D01*
X113932523Y-68229314D02*
X113742047Y-68181695D01*
X113742047Y-68181695D02*
X113599190Y-68181695D01*
X113599190Y-68181695D02*
X113408714Y-68229314D01*
X113408714Y-68229314D02*
X113313476Y-68276933D01*
X113313476Y-68276933D02*
X113218238Y-68372171D01*
X113218238Y-68372171D02*
X113170619Y-68515028D01*
X113170619Y-68515028D02*
X113170619Y-68610266D01*
X113170619Y-68610266D02*
X113218238Y-68753123D01*
X113218238Y-68753123D02*
X113265857Y-68800742D01*
X114170619Y-69753123D02*
X114170619Y-69181695D01*
X114170619Y-69467409D02*
X113170619Y-69467409D01*
X113170619Y-69467409D02*
X113313476Y-69372171D01*
X113313476Y-69372171D02*
X113408714Y-69276933D01*
X113408714Y-69276933D02*
X113456333Y-69181695D01*
X113170619Y-70372171D02*
X113170619Y-70467409D01*
X113170619Y-70467409D02*
X113218238Y-70562647D01*
X113218238Y-70562647D02*
X113265857Y-70610266D01*
X113265857Y-70610266D02*
X113361095Y-70657885D01*
X113361095Y-70657885D02*
X113551571Y-70705504D01*
X113551571Y-70705504D02*
X113789666Y-70705504D01*
X113789666Y-70705504D02*
X113980142Y-70657885D01*
X113980142Y-70657885D02*
X114075380Y-70610266D01*
X114075380Y-70610266D02*
X114123000Y-70562647D01*
X114123000Y-70562647D02*
X114170619Y-70467409D01*
X114170619Y-70467409D02*
X114170619Y-70372171D01*
X114170619Y-70372171D02*
X114123000Y-70276933D01*
X114123000Y-70276933D02*
X114075380Y-70229314D01*
X114075380Y-70229314D02*
X113980142Y-70181695D01*
X113980142Y-70181695D02*
X113789666Y-70134076D01*
X113789666Y-70134076D02*
X113551571Y-70134076D01*
X113551571Y-70134076D02*
X113361095Y-70181695D01*
X113361095Y-70181695D02*
X113265857Y-70229314D01*
X113265857Y-70229314D02*
X113218238Y-70276933D01*
X113218238Y-70276933D02*
X113170619Y-70372171D01*
X96418319Y-86568642D02*
X95942128Y-86235309D01*
X96418319Y-85997214D02*
X95418319Y-85997214D01*
X95418319Y-85997214D02*
X95418319Y-86378166D01*
X95418319Y-86378166D02*
X95465938Y-86473404D01*
X95465938Y-86473404D02*
X95513557Y-86521023D01*
X95513557Y-86521023D02*
X95608795Y-86568642D01*
X95608795Y-86568642D02*
X95751652Y-86568642D01*
X95751652Y-86568642D02*
X95846890Y-86521023D01*
X95846890Y-86521023D02*
X95894509Y-86473404D01*
X95894509Y-86473404D02*
X95942128Y-86378166D01*
X95942128Y-86378166D02*
X95942128Y-85997214D01*
X95418319Y-87425785D02*
X95418319Y-87235309D01*
X95418319Y-87235309D02*
X95465938Y-87140071D01*
X95465938Y-87140071D02*
X95513557Y-87092452D01*
X95513557Y-87092452D02*
X95656414Y-86997214D01*
X95656414Y-86997214D02*
X95846890Y-86949595D01*
X95846890Y-86949595D02*
X96227842Y-86949595D01*
X96227842Y-86949595D02*
X96323080Y-86997214D01*
X96323080Y-86997214D02*
X96370700Y-87044833D01*
X96370700Y-87044833D02*
X96418319Y-87140071D01*
X96418319Y-87140071D02*
X96418319Y-87330547D01*
X96418319Y-87330547D02*
X96370700Y-87425785D01*
X96370700Y-87425785D02*
X96323080Y-87473404D01*
X96323080Y-87473404D02*
X96227842Y-87521023D01*
X96227842Y-87521023D02*
X95989747Y-87521023D01*
X95989747Y-87521023D02*
X95894509Y-87473404D01*
X95894509Y-87473404D02*
X95846890Y-87425785D01*
X95846890Y-87425785D02*
X95799271Y-87330547D01*
X95799271Y-87330547D02*
X95799271Y-87140071D01*
X95799271Y-87140071D02*
X95846890Y-87044833D01*
X95846890Y-87044833D02*
X95894509Y-86997214D01*
X95894509Y-86997214D02*
X95989747Y-86949595D01*
X95846890Y-88092452D02*
X95799271Y-87997214D01*
X95799271Y-87997214D02*
X95751652Y-87949595D01*
X95751652Y-87949595D02*
X95656414Y-87901976D01*
X95656414Y-87901976D02*
X95608795Y-87901976D01*
X95608795Y-87901976D02*
X95513557Y-87949595D01*
X95513557Y-87949595D02*
X95465938Y-87997214D01*
X95465938Y-87997214D02*
X95418319Y-88092452D01*
X95418319Y-88092452D02*
X95418319Y-88282928D01*
X95418319Y-88282928D02*
X95465938Y-88378166D01*
X95465938Y-88378166D02*
X95513557Y-88425785D01*
X95513557Y-88425785D02*
X95608795Y-88473404D01*
X95608795Y-88473404D02*
X95656414Y-88473404D01*
X95656414Y-88473404D02*
X95751652Y-88425785D01*
X95751652Y-88425785D02*
X95799271Y-88378166D01*
X95799271Y-88378166D02*
X95846890Y-88282928D01*
X95846890Y-88282928D02*
X95846890Y-88092452D01*
X95846890Y-88092452D02*
X95894509Y-87997214D01*
X95894509Y-87997214D02*
X95942128Y-87949595D01*
X95942128Y-87949595D02*
X96037366Y-87901976D01*
X96037366Y-87901976D02*
X96227842Y-87901976D01*
X96227842Y-87901976D02*
X96323080Y-87949595D01*
X96323080Y-87949595D02*
X96370700Y-87997214D01*
X96370700Y-87997214D02*
X96418319Y-88092452D01*
X96418319Y-88092452D02*
X96418319Y-88282928D01*
X96418319Y-88282928D02*
X96370700Y-88378166D01*
X96370700Y-88378166D02*
X96323080Y-88425785D01*
X96323080Y-88425785D02*
X96227842Y-88473404D01*
X96227842Y-88473404D02*
X96037366Y-88473404D01*
X96037366Y-88473404D02*
X95942128Y-88425785D01*
X95942128Y-88425785D02*
X95894509Y-88378166D01*
X95894509Y-88378166D02*
X95846890Y-88282928D01*
X91387819Y-73398142D02*
X90911628Y-73064809D01*
X91387819Y-72826714D02*
X90387819Y-72826714D01*
X90387819Y-72826714D02*
X90387819Y-73207666D01*
X90387819Y-73207666D02*
X90435438Y-73302904D01*
X90435438Y-73302904D02*
X90483057Y-73350523D01*
X90483057Y-73350523D02*
X90578295Y-73398142D01*
X90578295Y-73398142D02*
X90721152Y-73398142D01*
X90721152Y-73398142D02*
X90816390Y-73350523D01*
X90816390Y-73350523D02*
X90864009Y-73302904D01*
X90864009Y-73302904D02*
X90911628Y-73207666D01*
X90911628Y-73207666D02*
X90911628Y-72826714D01*
X90387819Y-74255285D02*
X90387819Y-74064809D01*
X90387819Y-74064809D02*
X90435438Y-73969571D01*
X90435438Y-73969571D02*
X90483057Y-73921952D01*
X90483057Y-73921952D02*
X90625914Y-73826714D01*
X90625914Y-73826714D02*
X90816390Y-73779095D01*
X90816390Y-73779095D02*
X91197342Y-73779095D01*
X91197342Y-73779095D02*
X91292580Y-73826714D01*
X91292580Y-73826714D02*
X91340200Y-73874333D01*
X91340200Y-73874333D02*
X91387819Y-73969571D01*
X91387819Y-73969571D02*
X91387819Y-74160047D01*
X91387819Y-74160047D02*
X91340200Y-74255285D01*
X91340200Y-74255285D02*
X91292580Y-74302904D01*
X91292580Y-74302904D02*
X91197342Y-74350523D01*
X91197342Y-74350523D02*
X90959247Y-74350523D01*
X90959247Y-74350523D02*
X90864009Y-74302904D01*
X90864009Y-74302904D02*
X90816390Y-74255285D01*
X90816390Y-74255285D02*
X90768771Y-74160047D01*
X90768771Y-74160047D02*
X90768771Y-73969571D01*
X90768771Y-73969571D02*
X90816390Y-73874333D01*
X90816390Y-73874333D02*
X90864009Y-73826714D01*
X90864009Y-73826714D02*
X90959247Y-73779095D01*
X91387819Y-75302904D02*
X91387819Y-74731476D01*
X91387819Y-75017190D02*
X90387819Y-75017190D01*
X90387819Y-75017190D02*
X90530676Y-74921952D01*
X90530676Y-74921952D02*
X90625914Y-74826714D01*
X90625914Y-74826714D02*
X90673533Y-74731476D01*
X114075380Y-60875942D02*
X114123000Y-60828323D01*
X114123000Y-60828323D02*
X114170619Y-60685466D01*
X114170619Y-60685466D02*
X114170619Y-60590228D01*
X114170619Y-60590228D02*
X114123000Y-60447371D01*
X114123000Y-60447371D02*
X114027761Y-60352133D01*
X114027761Y-60352133D02*
X113932523Y-60304514D01*
X113932523Y-60304514D02*
X113742047Y-60256895D01*
X113742047Y-60256895D02*
X113599190Y-60256895D01*
X113599190Y-60256895D02*
X113408714Y-60304514D01*
X113408714Y-60304514D02*
X113313476Y-60352133D01*
X113313476Y-60352133D02*
X113218238Y-60447371D01*
X113218238Y-60447371D02*
X113170619Y-60590228D01*
X113170619Y-60590228D02*
X113170619Y-60685466D01*
X113170619Y-60685466D02*
X113218238Y-60828323D01*
X113218238Y-60828323D02*
X113265857Y-60875942D01*
X114170619Y-61828323D02*
X114170619Y-61256895D01*
X114170619Y-61542609D02*
X113170619Y-61542609D01*
X113170619Y-61542609D02*
X113313476Y-61447371D01*
X113313476Y-61447371D02*
X113408714Y-61352133D01*
X113408714Y-61352133D02*
X113456333Y-61256895D01*
X114170619Y-62780704D02*
X114170619Y-62209276D01*
X114170619Y-62494990D02*
X113170619Y-62494990D01*
X113170619Y-62494990D02*
X113313476Y-62399752D01*
X113313476Y-62399752D02*
X113408714Y-62304514D01*
X113408714Y-62304514D02*
X113456333Y-62209276D01*
X136049980Y-90831333D02*
X136097600Y-90783714D01*
X136097600Y-90783714D02*
X136145219Y-90640857D01*
X136145219Y-90640857D02*
X136145219Y-90545619D01*
X136145219Y-90545619D02*
X136097600Y-90402762D01*
X136097600Y-90402762D02*
X136002361Y-90307524D01*
X136002361Y-90307524D02*
X135907123Y-90259905D01*
X135907123Y-90259905D02*
X135716647Y-90212286D01*
X135716647Y-90212286D02*
X135573790Y-90212286D01*
X135573790Y-90212286D02*
X135383314Y-90259905D01*
X135383314Y-90259905D02*
X135288076Y-90307524D01*
X135288076Y-90307524D02*
X135192838Y-90402762D01*
X135192838Y-90402762D02*
X135145219Y-90545619D01*
X135145219Y-90545619D02*
X135145219Y-90640857D01*
X135145219Y-90640857D02*
X135192838Y-90783714D01*
X135192838Y-90783714D02*
X135240457Y-90831333D01*
X136145219Y-91783714D02*
X136145219Y-91212286D01*
X136145219Y-91498000D02*
X135145219Y-91498000D01*
X135145219Y-91498000D02*
X135288076Y-91402762D01*
X135288076Y-91402762D02*
X135383314Y-91307524D01*
X135383314Y-91307524D02*
X135430933Y-91212286D01*
X113383219Y-90593942D02*
X112907028Y-90260609D01*
X113383219Y-90022514D02*
X112383219Y-90022514D01*
X112383219Y-90022514D02*
X112383219Y-90403466D01*
X112383219Y-90403466D02*
X112430838Y-90498704D01*
X112430838Y-90498704D02*
X112478457Y-90546323D01*
X112478457Y-90546323D02*
X112573695Y-90593942D01*
X112573695Y-90593942D02*
X112716552Y-90593942D01*
X112716552Y-90593942D02*
X112811790Y-90546323D01*
X112811790Y-90546323D02*
X112859409Y-90498704D01*
X112859409Y-90498704D02*
X112907028Y-90403466D01*
X112907028Y-90403466D02*
X112907028Y-90022514D01*
X112716552Y-91451085D02*
X113383219Y-91451085D01*
X112335600Y-91212990D02*
X113049885Y-90974895D01*
X113049885Y-90974895D02*
X113049885Y-91593942D01*
X112478457Y-91927276D02*
X112430838Y-91974895D01*
X112430838Y-91974895D02*
X112383219Y-92070133D01*
X112383219Y-92070133D02*
X112383219Y-92308228D01*
X112383219Y-92308228D02*
X112430838Y-92403466D01*
X112430838Y-92403466D02*
X112478457Y-92451085D01*
X112478457Y-92451085D02*
X112573695Y-92498704D01*
X112573695Y-92498704D02*
X112668933Y-92498704D01*
X112668933Y-92498704D02*
X112811790Y-92451085D01*
X112811790Y-92451085D02*
X113383219Y-91879657D01*
X113383219Y-91879657D02*
X113383219Y-92498704D01*
X91438619Y-54221142D02*
X90962428Y-53887809D01*
X91438619Y-53649714D02*
X90438619Y-53649714D01*
X90438619Y-53649714D02*
X90438619Y-54030666D01*
X90438619Y-54030666D02*
X90486238Y-54125904D01*
X90486238Y-54125904D02*
X90533857Y-54173523D01*
X90533857Y-54173523D02*
X90629095Y-54221142D01*
X90629095Y-54221142D02*
X90771952Y-54221142D01*
X90771952Y-54221142D02*
X90867190Y-54173523D01*
X90867190Y-54173523D02*
X90914809Y-54125904D01*
X90914809Y-54125904D02*
X90962428Y-54030666D01*
X90962428Y-54030666D02*
X90962428Y-53649714D01*
X90438619Y-55125904D02*
X90438619Y-54649714D01*
X90438619Y-54649714D02*
X90914809Y-54602095D01*
X90914809Y-54602095D02*
X90867190Y-54649714D01*
X90867190Y-54649714D02*
X90819571Y-54744952D01*
X90819571Y-54744952D02*
X90819571Y-54983047D01*
X90819571Y-54983047D02*
X90867190Y-55078285D01*
X90867190Y-55078285D02*
X90914809Y-55125904D01*
X90914809Y-55125904D02*
X91010047Y-55173523D01*
X91010047Y-55173523D02*
X91248142Y-55173523D01*
X91248142Y-55173523D02*
X91343380Y-55125904D01*
X91343380Y-55125904D02*
X91391000Y-55078285D01*
X91391000Y-55078285D02*
X91438619Y-54983047D01*
X91438619Y-54983047D02*
X91438619Y-54744952D01*
X91438619Y-54744952D02*
X91391000Y-54649714D01*
X91391000Y-54649714D02*
X91343380Y-54602095D01*
X90867190Y-55744952D02*
X90819571Y-55649714D01*
X90819571Y-55649714D02*
X90771952Y-55602095D01*
X90771952Y-55602095D02*
X90676714Y-55554476D01*
X90676714Y-55554476D02*
X90629095Y-55554476D01*
X90629095Y-55554476D02*
X90533857Y-55602095D01*
X90533857Y-55602095D02*
X90486238Y-55649714D01*
X90486238Y-55649714D02*
X90438619Y-55744952D01*
X90438619Y-55744952D02*
X90438619Y-55935428D01*
X90438619Y-55935428D02*
X90486238Y-56030666D01*
X90486238Y-56030666D02*
X90533857Y-56078285D01*
X90533857Y-56078285D02*
X90629095Y-56125904D01*
X90629095Y-56125904D02*
X90676714Y-56125904D01*
X90676714Y-56125904D02*
X90771952Y-56078285D01*
X90771952Y-56078285D02*
X90819571Y-56030666D01*
X90819571Y-56030666D02*
X90867190Y-55935428D01*
X90867190Y-55935428D02*
X90867190Y-55744952D01*
X90867190Y-55744952D02*
X90914809Y-55649714D01*
X90914809Y-55649714D02*
X90962428Y-55602095D01*
X90962428Y-55602095D02*
X91057666Y-55554476D01*
X91057666Y-55554476D02*
X91248142Y-55554476D01*
X91248142Y-55554476D02*
X91343380Y-55602095D01*
X91343380Y-55602095D02*
X91391000Y-55649714D01*
X91391000Y-55649714D02*
X91438619Y-55744952D01*
X91438619Y-55744952D02*
X91438619Y-55935428D01*
X91438619Y-55935428D02*
X91391000Y-56030666D01*
X91391000Y-56030666D02*
X91343380Y-56078285D01*
X91343380Y-56078285D02*
X91248142Y-56125904D01*
X91248142Y-56125904D02*
X91057666Y-56125904D01*
X91057666Y-56125904D02*
X90962428Y-56078285D01*
X90962428Y-56078285D02*
X90914809Y-56030666D01*
X90914809Y-56030666D02*
X90867190Y-55935428D01*
X136470819Y-60825142D02*
X135994628Y-60491809D01*
X136470819Y-60253714D02*
X135470819Y-60253714D01*
X135470819Y-60253714D02*
X135470819Y-60634666D01*
X135470819Y-60634666D02*
X135518438Y-60729904D01*
X135518438Y-60729904D02*
X135566057Y-60777523D01*
X135566057Y-60777523D02*
X135661295Y-60825142D01*
X135661295Y-60825142D02*
X135804152Y-60825142D01*
X135804152Y-60825142D02*
X135899390Y-60777523D01*
X135899390Y-60777523D02*
X135947009Y-60729904D01*
X135947009Y-60729904D02*
X135994628Y-60634666D01*
X135994628Y-60634666D02*
X135994628Y-60253714D01*
X135470819Y-61729904D02*
X135470819Y-61253714D01*
X135470819Y-61253714D02*
X135947009Y-61206095D01*
X135947009Y-61206095D02*
X135899390Y-61253714D01*
X135899390Y-61253714D02*
X135851771Y-61348952D01*
X135851771Y-61348952D02*
X135851771Y-61587047D01*
X135851771Y-61587047D02*
X135899390Y-61682285D01*
X135899390Y-61682285D02*
X135947009Y-61729904D01*
X135947009Y-61729904D02*
X136042247Y-61777523D01*
X136042247Y-61777523D02*
X136280342Y-61777523D01*
X136280342Y-61777523D02*
X136375580Y-61729904D01*
X136375580Y-61729904D02*
X136423200Y-61682285D01*
X136423200Y-61682285D02*
X136470819Y-61587047D01*
X136470819Y-61587047D02*
X136470819Y-61348952D01*
X136470819Y-61348952D02*
X136423200Y-61253714D01*
X136423200Y-61253714D02*
X136375580Y-61206095D01*
X135470819Y-62396571D02*
X135470819Y-62491809D01*
X135470819Y-62491809D02*
X135518438Y-62587047D01*
X135518438Y-62587047D02*
X135566057Y-62634666D01*
X135566057Y-62634666D02*
X135661295Y-62682285D01*
X135661295Y-62682285D02*
X135851771Y-62729904D01*
X135851771Y-62729904D02*
X136089866Y-62729904D01*
X136089866Y-62729904D02*
X136280342Y-62682285D01*
X136280342Y-62682285D02*
X136375580Y-62634666D01*
X136375580Y-62634666D02*
X136423200Y-62587047D01*
X136423200Y-62587047D02*
X136470819Y-62491809D01*
X136470819Y-62491809D02*
X136470819Y-62396571D01*
X136470819Y-62396571D02*
X136423200Y-62301333D01*
X136423200Y-62301333D02*
X136375580Y-62253714D01*
X136375580Y-62253714D02*
X136280342Y-62206095D01*
X136280342Y-62206095D02*
X136089866Y-62158476D01*
X136089866Y-62158476D02*
X135851771Y-62158476D01*
X135851771Y-62158476D02*
X135661295Y-62206095D01*
X135661295Y-62206095D02*
X135566057Y-62253714D01*
X135566057Y-62253714D02*
X135518438Y-62301333D01*
X135518438Y-62301333D02*
X135470819Y-62396571D01*
X130755819Y-68854742D02*
X130279628Y-68521409D01*
X130755819Y-68283314D02*
X129755819Y-68283314D01*
X129755819Y-68283314D02*
X129755819Y-68664266D01*
X129755819Y-68664266D02*
X129803438Y-68759504D01*
X129803438Y-68759504D02*
X129851057Y-68807123D01*
X129851057Y-68807123D02*
X129946295Y-68854742D01*
X129946295Y-68854742D02*
X130089152Y-68854742D01*
X130089152Y-68854742D02*
X130184390Y-68807123D01*
X130184390Y-68807123D02*
X130232009Y-68759504D01*
X130232009Y-68759504D02*
X130279628Y-68664266D01*
X130279628Y-68664266D02*
X130279628Y-68283314D01*
X130089152Y-69711885D02*
X130755819Y-69711885D01*
X129708200Y-69473790D02*
X130422485Y-69235695D01*
X130422485Y-69235695D02*
X130422485Y-69854742D01*
X130755819Y-70283314D02*
X130755819Y-70473790D01*
X130755819Y-70473790D02*
X130708200Y-70569028D01*
X130708200Y-70569028D02*
X130660580Y-70616647D01*
X130660580Y-70616647D02*
X130517723Y-70711885D01*
X130517723Y-70711885D02*
X130327247Y-70759504D01*
X130327247Y-70759504D02*
X129946295Y-70759504D01*
X129946295Y-70759504D02*
X129851057Y-70711885D01*
X129851057Y-70711885D02*
X129803438Y-70664266D01*
X129803438Y-70664266D02*
X129755819Y-70569028D01*
X129755819Y-70569028D02*
X129755819Y-70378552D01*
X129755819Y-70378552D02*
X129803438Y-70283314D01*
X129803438Y-70283314D02*
X129851057Y-70235695D01*
X129851057Y-70235695D02*
X129946295Y-70188076D01*
X129946295Y-70188076D02*
X130184390Y-70188076D01*
X130184390Y-70188076D02*
X130279628Y-70235695D01*
X130279628Y-70235695D02*
X130327247Y-70283314D01*
X130327247Y-70283314D02*
X130374866Y-70378552D01*
X130374866Y-70378552D02*
X130374866Y-70569028D01*
X130374866Y-70569028D02*
X130327247Y-70664266D01*
X130327247Y-70664266D02*
X130279628Y-70711885D01*
X130279628Y-70711885D02*
X130184390Y-70759504D01*
X85820238Y-66222057D02*
X85915476Y-66174438D01*
X85915476Y-66174438D02*
X86010714Y-66079200D01*
X86010714Y-66079200D02*
X86153571Y-65936342D01*
X86153571Y-65936342D02*
X86248809Y-65888723D01*
X86248809Y-65888723D02*
X86344047Y-65888723D01*
X86296428Y-66126819D02*
X86391666Y-66079200D01*
X86391666Y-66079200D02*
X86486904Y-65983961D01*
X86486904Y-65983961D02*
X86534523Y-65793485D01*
X86534523Y-65793485D02*
X86534523Y-65460152D01*
X86534523Y-65460152D02*
X86486904Y-65269676D01*
X86486904Y-65269676D02*
X86391666Y-65174438D01*
X86391666Y-65174438D02*
X86296428Y-65126819D01*
X86296428Y-65126819D02*
X86105952Y-65126819D01*
X86105952Y-65126819D02*
X86010714Y-65174438D01*
X86010714Y-65174438D02*
X85915476Y-65269676D01*
X85915476Y-65269676D02*
X85867857Y-65460152D01*
X85867857Y-65460152D02*
X85867857Y-65793485D01*
X85867857Y-65793485D02*
X85915476Y-65983961D01*
X85915476Y-65983961D02*
X86010714Y-66079200D01*
X86010714Y-66079200D02*
X86105952Y-66126819D01*
X86105952Y-66126819D02*
X86296428Y-66126819D01*
X84915476Y-66126819D02*
X85486904Y-66126819D01*
X85201190Y-66126819D02*
X85201190Y-65126819D01*
X85201190Y-65126819D02*
X85296428Y-65269676D01*
X85296428Y-65269676D02*
X85391666Y-65364914D01*
X85391666Y-65364914D02*
X85486904Y-65412533D01*
X96467819Y-54250342D02*
X95991628Y-53917009D01*
X96467819Y-53678914D02*
X95467819Y-53678914D01*
X95467819Y-53678914D02*
X95467819Y-54059866D01*
X95467819Y-54059866D02*
X95515438Y-54155104D01*
X95515438Y-54155104D02*
X95563057Y-54202723D01*
X95563057Y-54202723D02*
X95658295Y-54250342D01*
X95658295Y-54250342D02*
X95801152Y-54250342D01*
X95801152Y-54250342D02*
X95896390Y-54202723D01*
X95896390Y-54202723D02*
X95944009Y-54155104D01*
X95944009Y-54155104D02*
X95991628Y-54059866D01*
X95991628Y-54059866D02*
X95991628Y-53678914D01*
X95801152Y-55107485D02*
X96467819Y-55107485D01*
X95420200Y-54869390D02*
X96134485Y-54631295D01*
X96134485Y-54631295D02*
X96134485Y-55250342D01*
X95467819Y-55536057D02*
X95467819Y-56202723D01*
X95467819Y-56202723D02*
X96467819Y-55774152D01*
X129366180Y-55383133D02*
X129413800Y-55335514D01*
X129413800Y-55335514D02*
X129461419Y-55192657D01*
X129461419Y-55192657D02*
X129461419Y-55097419D01*
X129461419Y-55097419D02*
X129413800Y-54954562D01*
X129413800Y-54954562D02*
X129318561Y-54859324D01*
X129318561Y-54859324D02*
X129223323Y-54811705D01*
X129223323Y-54811705D02*
X129032847Y-54764086D01*
X129032847Y-54764086D02*
X128889990Y-54764086D01*
X128889990Y-54764086D02*
X128699514Y-54811705D01*
X128699514Y-54811705D02*
X128604276Y-54859324D01*
X128604276Y-54859324D02*
X128509038Y-54954562D01*
X128509038Y-54954562D02*
X128461419Y-55097419D01*
X128461419Y-55097419D02*
X128461419Y-55192657D01*
X128461419Y-55192657D02*
X128509038Y-55335514D01*
X128509038Y-55335514D02*
X128556657Y-55383133D01*
X128461419Y-56240276D02*
X128461419Y-56049800D01*
X128461419Y-56049800D02*
X128509038Y-55954562D01*
X128509038Y-55954562D02*
X128556657Y-55906943D01*
X128556657Y-55906943D02*
X128699514Y-55811705D01*
X128699514Y-55811705D02*
X128889990Y-55764086D01*
X128889990Y-55764086D02*
X129270942Y-55764086D01*
X129270942Y-55764086D02*
X129366180Y-55811705D01*
X129366180Y-55811705D02*
X129413800Y-55859324D01*
X129413800Y-55859324D02*
X129461419Y-55954562D01*
X129461419Y-55954562D02*
X129461419Y-56145038D01*
X129461419Y-56145038D02*
X129413800Y-56240276D01*
X129413800Y-56240276D02*
X129366180Y-56287895D01*
X129366180Y-56287895D02*
X129270942Y-56335514D01*
X129270942Y-56335514D02*
X129032847Y-56335514D01*
X129032847Y-56335514D02*
X128937609Y-56287895D01*
X128937609Y-56287895D02*
X128889990Y-56240276D01*
X128889990Y-56240276D02*
X128842371Y-56145038D01*
X128842371Y-56145038D02*
X128842371Y-55954562D01*
X128842371Y-55954562D02*
X128889990Y-55859324D01*
X128889990Y-55859324D02*
X128937609Y-55811705D01*
X128937609Y-55811705D02*
X129032847Y-55764086D01*
X130761580Y-60761042D02*
X130809200Y-60713423D01*
X130809200Y-60713423D02*
X130856819Y-60570566D01*
X130856819Y-60570566D02*
X130856819Y-60475328D01*
X130856819Y-60475328D02*
X130809200Y-60332471D01*
X130809200Y-60332471D02*
X130713961Y-60237233D01*
X130713961Y-60237233D02*
X130618723Y-60189614D01*
X130618723Y-60189614D02*
X130428247Y-60141995D01*
X130428247Y-60141995D02*
X130285390Y-60141995D01*
X130285390Y-60141995D02*
X130094914Y-60189614D01*
X130094914Y-60189614D02*
X129999676Y-60237233D01*
X129999676Y-60237233D02*
X129904438Y-60332471D01*
X129904438Y-60332471D02*
X129856819Y-60475328D01*
X129856819Y-60475328D02*
X129856819Y-60570566D01*
X129856819Y-60570566D02*
X129904438Y-60713423D01*
X129904438Y-60713423D02*
X129952057Y-60761042D01*
X130856819Y-61713423D02*
X130856819Y-61141995D01*
X130856819Y-61427709D02*
X129856819Y-61427709D01*
X129856819Y-61427709D02*
X129999676Y-61332471D01*
X129999676Y-61332471D02*
X130094914Y-61237233D01*
X130094914Y-61237233D02*
X130142533Y-61141995D01*
X130190152Y-62570566D02*
X130856819Y-62570566D01*
X129809200Y-62332471D02*
X130523485Y-62094376D01*
X130523485Y-62094376D02*
X130523485Y-62713423D01*
X96146857Y-105105580D02*
X96194476Y-105153200D01*
X96194476Y-105153200D02*
X96337333Y-105200819D01*
X96337333Y-105200819D02*
X96432571Y-105200819D01*
X96432571Y-105200819D02*
X96575428Y-105153200D01*
X96575428Y-105153200D02*
X96670666Y-105057961D01*
X96670666Y-105057961D02*
X96718285Y-104962723D01*
X96718285Y-104962723D02*
X96765904Y-104772247D01*
X96765904Y-104772247D02*
X96765904Y-104629390D01*
X96765904Y-104629390D02*
X96718285Y-104438914D01*
X96718285Y-104438914D02*
X96670666Y-104343676D01*
X96670666Y-104343676D02*
X96575428Y-104248438D01*
X96575428Y-104248438D02*
X96432571Y-104200819D01*
X96432571Y-104200819D02*
X96337333Y-104200819D01*
X96337333Y-104200819D02*
X96194476Y-104248438D01*
X96194476Y-104248438D02*
X96146857Y-104296057D01*
X95194476Y-105200819D02*
X95765904Y-105200819D01*
X95480190Y-105200819D02*
X95480190Y-104200819D01*
X95480190Y-104200819D02*
X95575428Y-104343676D01*
X95575428Y-104343676D02*
X95670666Y-104438914D01*
X95670666Y-104438914D02*
X95765904Y-104486533D01*
X94623047Y-104629390D02*
X94718285Y-104581771D01*
X94718285Y-104581771D02*
X94765904Y-104534152D01*
X94765904Y-104534152D02*
X94813523Y-104438914D01*
X94813523Y-104438914D02*
X94813523Y-104391295D01*
X94813523Y-104391295D02*
X94765904Y-104296057D01*
X94765904Y-104296057D02*
X94718285Y-104248438D01*
X94718285Y-104248438D02*
X94623047Y-104200819D01*
X94623047Y-104200819D02*
X94432571Y-104200819D01*
X94432571Y-104200819D02*
X94337333Y-104248438D01*
X94337333Y-104248438D02*
X94289714Y-104296057D01*
X94289714Y-104296057D02*
X94242095Y-104391295D01*
X94242095Y-104391295D02*
X94242095Y-104438914D01*
X94242095Y-104438914D02*
X94289714Y-104534152D01*
X94289714Y-104534152D02*
X94337333Y-104581771D01*
X94337333Y-104581771D02*
X94432571Y-104629390D01*
X94432571Y-104629390D02*
X94623047Y-104629390D01*
X94623047Y-104629390D02*
X94718285Y-104677009D01*
X94718285Y-104677009D02*
X94765904Y-104724628D01*
X94765904Y-104724628D02*
X94813523Y-104819866D01*
X94813523Y-104819866D02*
X94813523Y-105010342D01*
X94813523Y-105010342D02*
X94765904Y-105105580D01*
X94765904Y-105105580D02*
X94718285Y-105153200D01*
X94718285Y-105153200D02*
X94623047Y-105200819D01*
X94623047Y-105200819D02*
X94432571Y-105200819D01*
X94432571Y-105200819D02*
X94337333Y-105153200D01*
X94337333Y-105153200D02*
X94289714Y-105105580D01*
X94289714Y-105105580D02*
X94242095Y-105010342D01*
X94242095Y-105010342D02*
X94242095Y-104819866D01*
X94242095Y-104819866D02*
X94289714Y-104724628D01*
X94289714Y-104724628D02*
X94337333Y-104677009D01*
X94337333Y-104677009D02*
X94432571Y-104629390D01*
X125182819Y-60723542D02*
X124706628Y-60390209D01*
X125182819Y-60152114D02*
X124182819Y-60152114D01*
X124182819Y-60152114D02*
X124182819Y-60533066D01*
X124182819Y-60533066D02*
X124230438Y-60628304D01*
X124230438Y-60628304D02*
X124278057Y-60675923D01*
X124278057Y-60675923D02*
X124373295Y-60723542D01*
X124373295Y-60723542D02*
X124516152Y-60723542D01*
X124516152Y-60723542D02*
X124611390Y-60675923D01*
X124611390Y-60675923D02*
X124659009Y-60628304D01*
X124659009Y-60628304D02*
X124706628Y-60533066D01*
X124706628Y-60533066D02*
X124706628Y-60152114D01*
X124516152Y-61580685D02*
X125182819Y-61580685D01*
X124135200Y-61342590D02*
X124849485Y-61104495D01*
X124849485Y-61104495D02*
X124849485Y-61723542D01*
X124182819Y-62294971D02*
X124182819Y-62390209D01*
X124182819Y-62390209D02*
X124230438Y-62485447D01*
X124230438Y-62485447D02*
X124278057Y-62533066D01*
X124278057Y-62533066D02*
X124373295Y-62580685D01*
X124373295Y-62580685D02*
X124563771Y-62628304D01*
X124563771Y-62628304D02*
X124801866Y-62628304D01*
X124801866Y-62628304D02*
X124992342Y-62580685D01*
X124992342Y-62580685D02*
X125087580Y-62533066D01*
X125087580Y-62533066D02*
X125135200Y-62485447D01*
X125135200Y-62485447D02*
X125182819Y-62390209D01*
X125182819Y-62390209D02*
X125182819Y-62294971D01*
X125182819Y-62294971D02*
X125135200Y-62199733D01*
X125135200Y-62199733D02*
X125087580Y-62152114D01*
X125087580Y-62152114D02*
X124992342Y-62104495D01*
X124992342Y-62104495D02*
X124801866Y-62056876D01*
X124801866Y-62056876D02*
X124563771Y-62056876D01*
X124563771Y-62056876D02*
X124373295Y-62104495D01*
X124373295Y-62104495D02*
X124278057Y-62152114D01*
X124278057Y-62152114D02*
X124230438Y-62199733D01*
X124230438Y-62199733D02*
X124182819Y-62294971D01*
X119428419Y-61002942D02*
X118952228Y-60669609D01*
X119428419Y-60431514D02*
X118428419Y-60431514D01*
X118428419Y-60431514D02*
X118428419Y-60812466D01*
X118428419Y-60812466D02*
X118476038Y-60907704D01*
X118476038Y-60907704D02*
X118523657Y-60955323D01*
X118523657Y-60955323D02*
X118618895Y-61002942D01*
X118618895Y-61002942D02*
X118761752Y-61002942D01*
X118761752Y-61002942D02*
X118856990Y-60955323D01*
X118856990Y-60955323D02*
X118904609Y-60907704D01*
X118904609Y-60907704D02*
X118952228Y-60812466D01*
X118952228Y-60812466D02*
X118952228Y-60431514D01*
X118428419Y-61336276D02*
X118428419Y-61955323D01*
X118428419Y-61955323D02*
X118809371Y-61621990D01*
X118809371Y-61621990D02*
X118809371Y-61764847D01*
X118809371Y-61764847D02*
X118856990Y-61860085D01*
X118856990Y-61860085D02*
X118904609Y-61907704D01*
X118904609Y-61907704D02*
X118999847Y-61955323D01*
X118999847Y-61955323D02*
X119237942Y-61955323D01*
X119237942Y-61955323D02*
X119333180Y-61907704D01*
X119333180Y-61907704D02*
X119380800Y-61860085D01*
X119380800Y-61860085D02*
X119428419Y-61764847D01*
X119428419Y-61764847D02*
X119428419Y-61479133D01*
X119428419Y-61479133D02*
X119380800Y-61383895D01*
X119380800Y-61383895D02*
X119333180Y-61336276D01*
X118428419Y-62812466D02*
X118428419Y-62621990D01*
X118428419Y-62621990D02*
X118476038Y-62526752D01*
X118476038Y-62526752D02*
X118523657Y-62479133D01*
X118523657Y-62479133D02*
X118666514Y-62383895D01*
X118666514Y-62383895D02*
X118856990Y-62336276D01*
X118856990Y-62336276D02*
X119237942Y-62336276D01*
X119237942Y-62336276D02*
X119333180Y-62383895D01*
X119333180Y-62383895D02*
X119380800Y-62431514D01*
X119380800Y-62431514D02*
X119428419Y-62526752D01*
X119428419Y-62526752D02*
X119428419Y-62717228D01*
X119428419Y-62717228D02*
X119380800Y-62812466D01*
X119380800Y-62812466D02*
X119333180Y-62860085D01*
X119333180Y-62860085D02*
X119237942Y-62907704D01*
X119237942Y-62907704D02*
X118999847Y-62907704D01*
X118999847Y-62907704D02*
X118904609Y-62860085D01*
X118904609Y-62860085D02*
X118856990Y-62812466D01*
X118856990Y-62812466D02*
X118809371Y-62717228D01*
X118809371Y-62717228D02*
X118809371Y-62526752D01*
X118809371Y-62526752D02*
X118856990Y-62431514D01*
X118856990Y-62431514D02*
X118904609Y-62383895D01*
X118904609Y-62383895D02*
X118999847Y-62336276D01*
D14*
%TO.C,R44*%
X78513000Y-67844936D02*
X78513000Y-68299064D01*
X79983000Y-67844936D02*
X79983000Y-68299064D01*
%TO.C,R28*%
X79983000Y-87499564D02*
X79983000Y-87045436D01*
X78513000Y-87499564D02*
X78513000Y-87045436D01*
%TO.C,Q4*%
X85725000Y-56424000D02*
X86375000Y-56424000D01*
X85725000Y-56424000D02*
X85075000Y-56424000D01*
X85725000Y-53304000D02*
X87400000Y-53304000D01*
X85725000Y-53304000D02*
X85075000Y-53304000D01*
%TO.C,R31*%
X118848200Y-55901964D02*
X118848200Y-55447836D01*
X120318200Y-55901964D02*
X120318200Y-55447836D01*
%TO.C,Q2*%
X85725000Y-88771500D02*
X86375000Y-88771500D01*
X85725000Y-88771500D02*
X85075000Y-88771500D01*
X85725000Y-85651500D02*
X87400000Y-85651500D01*
X85725000Y-85651500D02*
X85075000Y-85651500D01*
%TO.C,R67*%
X93343400Y-67819536D02*
X93343400Y-68273664D01*
X91873400Y-67819536D02*
X91873400Y-68273664D01*
%TO.C,C3*%
X112647400Y-55552748D02*
X112647400Y-56075252D01*
X111177400Y-55552748D02*
X111177400Y-56075252D01*
%TO.C,R39*%
X122201000Y-69696064D02*
X122201000Y-69241936D01*
X123671000Y-69696064D02*
X123671000Y-69241936D01*
%TO.C,R60*%
X98398000Y-67844936D02*
X98398000Y-68299064D01*
X96928000Y-67844936D02*
X96928000Y-68299064D01*
%TO.C,R59*%
X98398000Y-73813936D02*
X98398000Y-74268064D01*
X96928000Y-73813936D02*
X96928000Y-74268064D01*
%TO.C,R41*%
X126719000Y-90804636D02*
X126719000Y-91258764D01*
X125249000Y-90804636D02*
X125249000Y-91258764D01*
%TO.C,R69*%
X93318000Y-86918436D02*
X93318000Y-87372564D01*
X91848000Y-86918436D02*
X91848000Y-87372564D01*
%TO.C,R35*%
X117875300Y-69241936D02*
X117875300Y-69696064D01*
X116405300Y-69241936D02*
X116405300Y-69696064D01*
%TO.C,C13*%
X133631000Y-69730252D02*
X133631000Y-69207748D01*
X135101000Y-69730252D02*
X135101000Y-69207748D01*
%TO.C,Q3*%
X85725000Y-75982000D02*
X86375000Y-75982000D01*
X85725000Y-75982000D02*
X85075000Y-75982000D01*
X85725000Y-72862000D02*
X87400000Y-72862000D01*
X85725000Y-72862000D02*
X85075000Y-72862000D01*
%TO.C,R48*%
X133732600Y-55901964D02*
X133732600Y-55447836D01*
X135202600Y-55901964D02*
X135202600Y-55447836D01*
%TO.C,C2*%
X120216600Y-90858748D02*
X120216600Y-91381252D01*
X118746600Y-90858748D02*
X118746600Y-91381252D01*
%TO.C,C10*%
X112555000Y-69334748D02*
X112555000Y-69857252D01*
X111085000Y-69334748D02*
X111085000Y-69857252D01*
%TO.C,R68*%
X98398000Y-86918436D02*
X98398000Y-87372564D01*
X96928000Y-86918436D02*
X96928000Y-87372564D01*
%TO.C,R61*%
X93318000Y-73813936D02*
X93318000Y-74268064D01*
X91848000Y-73813936D02*
X91848000Y-74268064D01*
%TO.C,C11*%
X112555000Y-61079748D02*
X112555000Y-61602252D01*
X111085000Y-61079748D02*
X111085000Y-61602252D01*
%TO.C,C1*%
X133275400Y-91259252D02*
X133275400Y-90736748D01*
X134745400Y-91259252D02*
X134745400Y-90736748D01*
%TO.C,R42*%
X111733000Y-90857336D02*
X111733000Y-91311464D01*
X110263000Y-90857336D02*
X110263000Y-91311464D01*
%TO.C,R58*%
X93368800Y-54636936D02*
X93368800Y-55091064D01*
X91898800Y-54636936D02*
X91898800Y-55091064D01*
%TO.C,R50*%
X133631000Y-61695064D02*
X133631000Y-61240936D01*
X135101000Y-61695064D02*
X135101000Y-61240936D01*
%TO.C,R49*%
X127916000Y-69724664D02*
X127916000Y-69270536D01*
X129386000Y-69724664D02*
X129386000Y-69270536D01*
%TO.C,Q1*%
X85725000Y-69632000D02*
X86375000Y-69632000D01*
X85725000Y-69632000D02*
X85075000Y-69632000D01*
X85725000Y-66512000D02*
X87400000Y-66512000D01*
X85725000Y-66512000D02*
X85075000Y-66512000D01*
%TO.C,R47*%
X98398000Y-54666136D02*
X98398000Y-55120264D01*
X96928000Y-54666136D02*
X96928000Y-55120264D01*
%TO.C,C6*%
X126290400Y-55963452D02*
X126290400Y-55440948D01*
X127760400Y-55963452D02*
X127760400Y-55440948D01*
%TO.C,C14*%
X127987000Y-61665152D02*
X127987000Y-61142648D01*
X129457000Y-61665152D02*
X129457000Y-61142648D01*
%TO.C,C18*%
X95765252Y-107161000D02*
X95242748Y-107161000D01*
X95765252Y-105691000D02*
X95242748Y-105691000D01*
%TO.C,R40*%
X122343000Y-61593464D02*
X122343000Y-61139336D01*
X123813000Y-61593464D02*
X123813000Y-61139336D01*
%TO.C,R36*%
X117829000Y-61113936D02*
X117829000Y-61568064D01*
X116359000Y-61113936D02*
X116359000Y-61568064D01*
%TD*%
M02*
