%TF.GenerationSoftware,KiCad,Pcbnew,7.0.7*%
%TF.CreationDate,2024-10-02T11:43:54-03:00*%
%TF.ProjectId,v0.4.3d,76302e34-2e33-4642-9e6b-696361645f70,rev?*%
%TF.SameCoordinates,Original*%
%TF.FileFunction,AssemblyDrawing,Bot*%
%FSLAX46Y46*%
G04 Gerber Fmt 4.6, Leading zero omitted, Abs format (unit mm)*
G04 Created by KiCad (PCBNEW 7.0.7) date 2024-10-02 11:43:54*
%MOMM*%
%LPD*%
G01*
G04 APERTURE LIST*
%ADD10C,0.100000*%
%ADD11C,0.150000*%
%ADD12C,0.300000*%
%ADD13C,0.400000*%
%ADD14C,0.080000*%
%ADD15C,0.050000*%
G04 APERTURE END LIST*
D10*
D11*
X177002200Y-166007200D02*
X285002200Y-166007200D01*
X285002200Y-198007200D01*
X177002200Y-198007200D01*
X177002200Y-166007200D01*
D10*
D11*
X10000000Y-10000000D02*
X287002200Y-10000000D01*
X287002200Y-200007200D01*
X10000000Y-200007200D01*
X10000000Y-10000000D01*
D10*
D11*
X12000000Y-12000000D02*
X285002200Y-12000000D01*
X285002200Y-198007200D01*
X12000000Y-198007200D01*
X12000000Y-12000000D01*
D10*
D11*
X60000000Y-12000000D02*
X60000000Y-10000000D01*
D10*
D11*
X110000000Y-12000000D02*
X110000000Y-10000000D01*
D10*
D11*
X160000000Y-12000000D02*
X160000000Y-10000000D01*
D10*
D11*
X210000000Y-12000000D02*
X210000000Y-10000000D01*
D10*
D11*
X260000000Y-12000000D02*
X260000000Y-10000000D01*
D10*
D11*
X36089160Y-11593604D02*
X35346303Y-11593604D01*
X35717731Y-11593604D02*
X35717731Y-10293604D01*
X35717731Y-10293604D02*
X35593922Y-10479319D01*
X35593922Y-10479319D02*
X35470112Y-10603128D01*
X35470112Y-10603128D02*
X35346303Y-10665033D01*
D10*
D11*
X85346303Y-10417414D02*
X85408207Y-10355509D01*
X85408207Y-10355509D02*
X85532017Y-10293604D01*
X85532017Y-10293604D02*
X85841541Y-10293604D01*
X85841541Y-10293604D02*
X85965350Y-10355509D01*
X85965350Y-10355509D02*
X86027255Y-10417414D01*
X86027255Y-10417414D02*
X86089160Y-10541223D01*
X86089160Y-10541223D02*
X86089160Y-10665033D01*
X86089160Y-10665033D02*
X86027255Y-10850747D01*
X86027255Y-10850747D02*
X85284398Y-11593604D01*
X85284398Y-11593604D02*
X86089160Y-11593604D01*
D10*
D11*
X135284398Y-10293604D02*
X136089160Y-10293604D01*
X136089160Y-10293604D02*
X135655826Y-10788842D01*
X135655826Y-10788842D02*
X135841541Y-10788842D01*
X135841541Y-10788842D02*
X135965350Y-10850747D01*
X135965350Y-10850747D02*
X136027255Y-10912652D01*
X136027255Y-10912652D02*
X136089160Y-11036461D01*
X136089160Y-11036461D02*
X136089160Y-11345985D01*
X136089160Y-11345985D02*
X136027255Y-11469795D01*
X136027255Y-11469795D02*
X135965350Y-11531700D01*
X135965350Y-11531700D02*
X135841541Y-11593604D01*
X135841541Y-11593604D02*
X135470112Y-11593604D01*
X135470112Y-11593604D02*
X135346303Y-11531700D01*
X135346303Y-11531700D02*
X135284398Y-11469795D01*
D10*
D11*
X185965350Y-10726938D02*
X185965350Y-11593604D01*
X185655826Y-10231700D02*
X185346303Y-11160271D01*
X185346303Y-11160271D02*
X186151064Y-11160271D01*
D10*
D11*
X236027255Y-10293604D02*
X235408207Y-10293604D01*
X235408207Y-10293604D02*
X235346303Y-10912652D01*
X235346303Y-10912652D02*
X235408207Y-10850747D01*
X235408207Y-10850747D02*
X235532017Y-10788842D01*
X235532017Y-10788842D02*
X235841541Y-10788842D01*
X235841541Y-10788842D02*
X235965350Y-10850747D01*
X235965350Y-10850747D02*
X236027255Y-10912652D01*
X236027255Y-10912652D02*
X236089160Y-11036461D01*
X236089160Y-11036461D02*
X236089160Y-11345985D01*
X236089160Y-11345985D02*
X236027255Y-11469795D01*
X236027255Y-11469795D02*
X235965350Y-11531700D01*
X235965350Y-11531700D02*
X235841541Y-11593604D01*
X235841541Y-11593604D02*
X235532017Y-11593604D01*
X235532017Y-11593604D02*
X235408207Y-11531700D01*
X235408207Y-11531700D02*
X235346303Y-11469795D01*
D10*
D11*
X285965350Y-10293604D02*
X285717731Y-10293604D01*
X285717731Y-10293604D02*
X285593922Y-10355509D01*
X285593922Y-10355509D02*
X285532017Y-10417414D01*
X285532017Y-10417414D02*
X285408207Y-10603128D01*
X285408207Y-10603128D02*
X285346303Y-10850747D01*
X285346303Y-10850747D02*
X285346303Y-11345985D01*
X285346303Y-11345985D02*
X285408207Y-11469795D01*
X285408207Y-11469795D02*
X285470112Y-11531700D01*
X285470112Y-11531700D02*
X285593922Y-11593604D01*
X285593922Y-11593604D02*
X285841541Y-11593604D01*
X285841541Y-11593604D02*
X285965350Y-11531700D01*
X285965350Y-11531700D02*
X286027255Y-11469795D01*
X286027255Y-11469795D02*
X286089160Y-11345985D01*
X286089160Y-11345985D02*
X286089160Y-11036461D01*
X286089160Y-11036461D02*
X286027255Y-10912652D01*
X286027255Y-10912652D02*
X285965350Y-10850747D01*
X285965350Y-10850747D02*
X285841541Y-10788842D01*
X285841541Y-10788842D02*
X285593922Y-10788842D01*
X285593922Y-10788842D02*
X285470112Y-10850747D01*
X285470112Y-10850747D02*
X285408207Y-10912652D01*
X285408207Y-10912652D02*
X285346303Y-11036461D01*
D10*
D11*
X60000000Y-198007200D02*
X60000000Y-200007200D01*
D10*
D11*
X110000000Y-198007200D02*
X110000000Y-200007200D01*
D10*
D11*
X160000000Y-198007200D02*
X160000000Y-200007200D01*
D10*
D11*
X210000000Y-198007200D02*
X210000000Y-200007200D01*
D10*
D11*
X260000000Y-198007200D02*
X260000000Y-200007200D01*
D10*
D11*
X36089160Y-199600804D02*
X35346303Y-199600804D01*
X35717731Y-199600804D02*
X35717731Y-198300804D01*
X35717731Y-198300804D02*
X35593922Y-198486519D01*
X35593922Y-198486519D02*
X35470112Y-198610328D01*
X35470112Y-198610328D02*
X35346303Y-198672233D01*
D10*
D11*
X85346303Y-198424614D02*
X85408207Y-198362709D01*
X85408207Y-198362709D02*
X85532017Y-198300804D01*
X85532017Y-198300804D02*
X85841541Y-198300804D01*
X85841541Y-198300804D02*
X85965350Y-198362709D01*
X85965350Y-198362709D02*
X86027255Y-198424614D01*
X86027255Y-198424614D02*
X86089160Y-198548423D01*
X86089160Y-198548423D02*
X86089160Y-198672233D01*
X86089160Y-198672233D02*
X86027255Y-198857947D01*
X86027255Y-198857947D02*
X85284398Y-199600804D01*
X85284398Y-199600804D02*
X86089160Y-199600804D01*
D10*
D11*
X135284398Y-198300804D02*
X136089160Y-198300804D01*
X136089160Y-198300804D02*
X135655826Y-198796042D01*
X135655826Y-198796042D02*
X135841541Y-198796042D01*
X135841541Y-198796042D02*
X135965350Y-198857947D01*
X135965350Y-198857947D02*
X136027255Y-198919852D01*
X136027255Y-198919852D02*
X136089160Y-199043661D01*
X136089160Y-199043661D02*
X136089160Y-199353185D01*
X136089160Y-199353185D02*
X136027255Y-199476995D01*
X136027255Y-199476995D02*
X135965350Y-199538900D01*
X135965350Y-199538900D02*
X135841541Y-199600804D01*
X135841541Y-199600804D02*
X135470112Y-199600804D01*
X135470112Y-199600804D02*
X135346303Y-199538900D01*
X135346303Y-199538900D02*
X135284398Y-199476995D01*
D10*
D11*
X185965350Y-198734138D02*
X185965350Y-199600804D01*
X185655826Y-198238900D02*
X185346303Y-199167471D01*
X185346303Y-199167471D02*
X186151064Y-199167471D01*
D10*
D11*
X236027255Y-198300804D02*
X235408207Y-198300804D01*
X235408207Y-198300804D02*
X235346303Y-198919852D01*
X235346303Y-198919852D02*
X235408207Y-198857947D01*
X235408207Y-198857947D02*
X235532017Y-198796042D01*
X235532017Y-198796042D02*
X235841541Y-198796042D01*
X235841541Y-198796042D02*
X235965350Y-198857947D01*
X235965350Y-198857947D02*
X236027255Y-198919852D01*
X236027255Y-198919852D02*
X236089160Y-199043661D01*
X236089160Y-199043661D02*
X236089160Y-199353185D01*
X236089160Y-199353185D02*
X236027255Y-199476995D01*
X236027255Y-199476995D02*
X235965350Y-199538900D01*
X235965350Y-199538900D02*
X235841541Y-199600804D01*
X235841541Y-199600804D02*
X235532017Y-199600804D01*
X235532017Y-199600804D02*
X235408207Y-199538900D01*
X235408207Y-199538900D02*
X235346303Y-199476995D01*
D10*
D11*
X285965350Y-198300804D02*
X285717731Y-198300804D01*
X285717731Y-198300804D02*
X285593922Y-198362709D01*
X285593922Y-198362709D02*
X285532017Y-198424614D01*
X285532017Y-198424614D02*
X285408207Y-198610328D01*
X285408207Y-198610328D02*
X285346303Y-198857947D01*
X285346303Y-198857947D02*
X285346303Y-199353185D01*
X285346303Y-199353185D02*
X285408207Y-199476995D01*
X285408207Y-199476995D02*
X285470112Y-199538900D01*
X285470112Y-199538900D02*
X285593922Y-199600804D01*
X285593922Y-199600804D02*
X285841541Y-199600804D01*
X285841541Y-199600804D02*
X285965350Y-199538900D01*
X285965350Y-199538900D02*
X286027255Y-199476995D01*
X286027255Y-199476995D02*
X286089160Y-199353185D01*
X286089160Y-199353185D02*
X286089160Y-199043661D01*
X286089160Y-199043661D02*
X286027255Y-198919852D01*
X286027255Y-198919852D02*
X285965350Y-198857947D01*
X285965350Y-198857947D02*
X285841541Y-198796042D01*
X285841541Y-198796042D02*
X285593922Y-198796042D01*
X285593922Y-198796042D02*
X285470112Y-198857947D01*
X285470112Y-198857947D02*
X285408207Y-198919852D01*
X285408207Y-198919852D02*
X285346303Y-199043661D01*
D10*
D11*
X10000000Y-60000000D02*
X12000000Y-60000000D01*
D10*
D11*
X10000000Y-110000000D02*
X12000000Y-110000000D01*
D10*
D11*
X10000000Y-160000000D02*
X12000000Y-160000000D01*
D10*
D11*
X10690476Y-35222176D02*
X11309523Y-35222176D01*
X10566666Y-35593604D02*
X10999999Y-34293604D01*
X10999999Y-34293604D02*
X11433333Y-35593604D01*
D10*
D11*
X11092857Y-84912652D02*
X11278571Y-84974557D01*
X11278571Y-84974557D02*
X11340476Y-85036461D01*
X11340476Y-85036461D02*
X11402380Y-85160271D01*
X11402380Y-85160271D02*
X11402380Y-85345985D01*
X11402380Y-85345985D02*
X11340476Y-85469795D01*
X11340476Y-85469795D02*
X11278571Y-85531700D01*
X11278571Y-85531700D02*
X11154761Y-85593604D01*
X11154761Y-85593604D02*
X10659523Y-85593604D01*
X10659523Y-85593604D02*
X10659523Y-84293604D01*
X10659523Y-84293604D02*
X11092857Y-84293604D01*
X11092857Y-84293604D02*
X11216666Y-84355509D01*
X11216666Y-84355509D02*
X11278571Y-84417414D01*
X11278571Y-84417414D02*
X11340476Y-84541223D01*
X11340476Y-84541223D02*
X11340476Y-84665033D01*
X11340476Y-84665033D02*
X11278571Y-84788842D01*
X11278571Y-84788842D02*
X11216666Y-84850747D01*
X11216666Y-84850747D02*
X11092857Y-84912652D01*
X11092857Y-84912652D02*
X10659523Y-84912652D01*
D10*
D11*
X11402380Y-135469795D02*
X11340476Y-135531700D01*
X11340476Y-135531700D02*
X11154761Y-135593604D01*
X11154761Y-135593604D02*
X11030952Y-135593604D01*
X11030952Y-135593604D02*
X10845238Y-135531700D01*
X10845238Y-135531700D02*
X10721428Y-135407890D01*
X10721428Y-135407890D02*
X10659523Y-135284080D01*
X10659523Y-135284080D02*
X10597619Y-135036461D01*
X10597619Y-135036461D02*
X10597619Y-134850747D01*
X10597619Y-134850747D02*
X10659523Y-134603128D01*
X10659523Y-134603128D02*
X10721428Y-134479319D01*
X10721428Y-134479319D02*
X10845238Y-134355509D01*
X10845238Y-134355509D02*
X11030952Y-134293604D01*
X11030952Y-134293604D02*
X11154761Y-134293604D01*
X11154761Y-134293604D02*
X11340476Y-134355509D01*
X11340476Y-134355509D02*
X11402380Y-134417414D01*
D10*
D11*
X10659523Y-185593604D02*
X10659523Y-184293604D01*
X10659523Y-184293604D02*
X10969047Y-184293604D01*
X10969047Y-184293604D02*
X11154761Y-184355509D01*
X11154761Y-184355509D02*
X11278571Y-184479319D01*
X11278571Y-184479319D02*
X11340476Y-184603128D01*
X11340476Y-184603128D02*
X11402380Y-184850747D01*
X11402380Y-184850747D02*
X11402380Y-185036461D01*
X11402380Y-185036461D02*
X11340476Y-185284080D01*
X11340476Y-185284080D02*
X11278571Y-185407890D01*
X11278571Y-185407890D02*
X11154761Y-185531700D01*
X11154761Y-185531700D02*
X10969047Y-185593604D01*
X10969047Y-185593604D02*
X10659523Y-185593604D01*
D10*
D11*
X287002200Y-60000000D02*
X285002200Y-60000000D01*
D10*
D11*
X287002200Y-110000000D02*
X285002200Y-110000000D01*
D10*
D11*
X287002200Y-160000000D02*
X285002200Y-160000000D01*
D10*
D11*
X285692676Y-35222176D02*
X286311723Y-35222176D01*
X285568866Y-35593604D02*
X286002199Y-34293604D01*
X286002199Y-34293604D02*
X286435533Y-35593604D01*
D10*
D11*
X286095057Y-84912652D02*
X286280771Y-84974557D01*
X286280771Y-84974557D02*
X286342676Y-85036461D01*
X286342676Y-85036461D02*
X286404580Y-85160271D01*
X286404580Y-85160271D02*
X286404580Y-85345985D01*
X286404580Y-85345985D02*
X286342676Y-85469795D01*
X286342676Y-85469795D02*
X286280771Y-85531700D01*
X286280771Y-85531700D02*
X286156961Y-85593604D01*
X286156961Y-85593604D02*
X285661723Y-85593604D01*
X285661723Y-85593604D02*
X285661723Y-84293604D01*
X285661723Y-84293604D02*
X286095057Y-84293604D01*
X286095057Y-84293604D02*
X286218866Y-84355509D01*
X286218866Y-84355509D02*
X286280771Y-84417414D01*
X286280771Y-84417414D02*
X286342676Y-84541223D01*
X286342676Y-84541223D02*
X286342676Y-84665033D01*
X286342676Y-84665033D02*
X286280771Y-84788842D01*
X286280771Y-84788842D02*
X286218866Y-84850747D01*
X286218866Y-84850747D02*
X286095057Y-84912652D01*
X286095057Y-84912652D02*
X285661723Y-84912652D01*
D10*
D11*
X286404580Y-135469795D02*
X286342676Y-135531700D01*
X286342676Y-135531700D02*
X286156961Y-135593604D01*
X286156961Y-135593604D02*
X286033152Y-135593604D01*
X286033152Y-135593604D02*
X285847438Y-135531700D01*
X285847438Y-135531700D02*
X285723628Y-135407890D01*
X285723628Y-135407890D02*
X285661723Y-135284080D01*
X285661723Y-135284080D02*
X285599819Y-135036461D01*
X285599819Y-135036461D02*
X285599819Y-134850747D01*
X285599819Y-134850747D02*
X285661723Y-134603128D01*
X285661723Y-134603128D02*
X285723628Y-134479319D01*
X285723628Y-134479319D02*
X285847438Y-134355509D01*
X285847438Y-134355509D02*
X286033152Y-134293604D01*
X286033152Y-134293604D02*
X286156961Y-134293604D01*
X286156961Y-134293604D02*
X286342676Y-134355509D01*
X286342676Y-134355509D02*
X286404580Y-134417414D01*
D10*
D11*
X285661723Y-185593604D02*
X285661723Y-184293604D01*
X285661723Y-184293604D02*
X285971247Y-184293604D01*
X285971247Y-184293604D02*
X286156961Y-184355509D01*
X286156961Y-184355509D02*
X286280771Y-184479319D01*
X286280771Y-184479319D02*
X286342676Y-184603128D01*
X286342676Y-184603128D02*
X286404580Y-184850747D01*
X286404580Y-184850747D02*
X286404580Y-185036461D01*
X286404580Y-185036461D02*
X286342676Y-185284080D01*
X286342676Y-185284080D02*
X286280771Y-185407890D01*
X286280771Y-185407890D02*
X286156961Y-185531700D01*
X286156961Y-185531700D02*
X285971247Y-185593604D01*
X285971247Y-185593604D02*
X285661723Y-185593604D01*
D10*
D11*
X200458026Y-193793328D02*
X200458026Y-192293328D01*
X200458026Y-192293328D02*
X200815169Y-192293328D01*
X200815169Y-192293328D02*
X201029455Y-192364757D01*
X201029455Y-192364757D02*
X201172312Y-192507614D01*
X201172312Y-192507614D02*
X201243741Y-192650471D01*
X201243741Y-192650471D02*
X201315169Y-192936185D01*
X201315169Y-192936185D02*
X201315169Y-193150471D01*
X201315169Y-193150471D02*
X201243741Y-193436185D01*
X201243741Y-193436185D02*
X201172312Y-193579042D01*
X201172312Y-193579042D02*
X201029455Y-193721900D01*
X201029455Y-193721900D02*
X200815169Y-193793328D01*
X200815169Y-193793328D02*
X200458026Y-193793328D01*
X202600884Y-193793328D02*
X202600884Y-193007614D01*
X202600884Y-193007614D02*
X202529455Y-192864757D01*
X202529455Y-192864757D02*
X202386598Y-192793328D01*
X202386598Y-192793328D02*
X202100884Y-192793328D01*
X202100884Y-192793328D02*
X201958026Y-192864757D01*
X202600884Y-193721900D02*
X202458026Y-193793328D01*
X202458026Y-193793328D02*
X202100884Y-193793328D01*
X202100884Y-193793328D02*
X201958026Y-193721900D01*
X201958026Y-193721900D02*
X201886598Y-193579042D01*
X201886598Y-193579042D02*
X201886598Y-193436185D01*
X201886598Y-193436185D02*
X201958026Y-193293328D01*
X201958026Y-193293328D02*
X202100884Y-193221900D01*
X202100884Y-193221900D02*
X202458026Y-193221900D01*
X202458026Y-193221900D02*
X202600884Y-193150471D01*
X203100884Y-192793328D02*
X203672312Y-192793328D01*
X203315169Y-192293328D02*
X203315169Y-193579042D01*
X203315169Y-193579042D02*
X203386598Y-193721900D01*
X203386598Y-193721900D02*
X203529455Y-193793328D01*
X203529455Y-193793328D02*
X203672312Y-193793328D01*
X204743741Y-193721900D02*
X204600884Y-193793328D01*
X204600884Y-193793328D02*
X204315170Y-193793328D01*
X204315170Y-193793328D02*
X204172312Y-193721900D01*
X204172312Y-193721900D02*
X204100884Y-193579042D01*
X204100884Y-193579042D02*
X204100884Y-193007614D01*
X204100884Y-193007614D02*
X204172312Y-192864757D01*
X204172312Y-192864757D02*
X204315170Y-192793328D01*
X204315170Y-192793328D02*
X204600884Y-192793328D01*
X204600884Y-192793328D02*
X204743741Y-192864757D01*
X204743741Y-192864757D02*
X204815170Y-193007614D01*
X204815170Y-193007614D02*
X204815170Y-193150471D01*
X204815170Y-193150471D02*
X204100884Y-193293328D01*
X205458026Y-193650471D02*
X205529455Y-193721900D01*
X205529455Y-193721900D02*
X205458026Y-193793328D01*
X205458026Y-193793328D02*
X205386598Y-193721900D01*
X205386598Y-193721900D02*
X205458026Y-193650471D01*
X205458026Y-193650471D02*
X205458026Y-193793328D01*
X205458026Y-192864757D02*
X205529455Y-192936185D01*
X205529455Y-192936185D02*
X205458026Y-193007614D01*
X205458026Y-193007614D02*
X205386598Y-192936185D01*
X205386598Y-192936185D02*
X205458026Y-192864757D01*
X205458026Y-192864757D02*
X205458026Y-193007614D01*
D10*
D11*
X177002200Y-194507200D02*
X285002200Y-194507200D01*
D10*
D11*
X178458026Y-196593328D02*
X178458026Y-195093328D01*
X179315169Y-196593328D02*
X178672312Y-195736185D01*
X179315169Y-195093328D02*
X178458026Y-195950471D01*
X179958026Y-196593328D02*
X179958026Y-195593328D01*
X179958026Y-195093328D02*
X179886598Y-195164757D01*
X179886598Y-195164757D02*
X179958026Y-195236185D01*
X179958026Y-195236185D02*
X180029455Y-195164757D01*
X180029455Y-195164757D02*
X179958026Y-195093328D01*
X179958026Y-195093328D02*
X179958026Y-195236185D01*
X181529455Y-196450471D02*
X181458027Y-196521900D01*
X181458027Y-196521900D02*
X181243741Y-196593328D01*
X181243741Y-196593328D02*
X181100884Y-196593328D01*
X181100884Y-196593328D02*
X180886598Y-196521900D01*
X180886598Y-196521900D02*
X180743741Y-196379042D01*
X180743741Y-196379042D02*
X180672312Y-196236185D01*
X180672312Y-196236185D02*
X180600884Y-195950471D01*
X180600884Y-195950471D02*
X180600884Y-195736185D01*
X180600884Y-195736185D02*
X180672312Y-195450471D01*
X180672312Y-195450471D02*
X180743741Y-195307614D01*
X180743741Y-195307614D02*
X180886598Y-195164757D01*
X180886598Y-195164757D02*
X181100884Y-195093328D01*
X181100884Y-195093328D02*
X181243741Y-195093328D01*
X181243741Y-195093328D02*
X181458027Y-195164757D01*
X181458027Y-195164757D02*
X181529455Y-195236185D01*
X182815170Y-196593328D02*
X182815170Y-195807614D01*
X182815170Y-195807614D02*
X182743741Y-195664757D01*
X182743741Y-195664757D02*
X182600884Y-195593328D01*
X182600884Y-195593328D02*
X182315170Y-195593328D01*
X182315170Y-195593328D02*
X182172312Y-195664757D01*
X182815170Y-196521900D02*
X182672312Y-196593328D01*
X182672312Y-196593328D02*
X182315170Y-196593328D01*
X182315170Y-196593328D02*
X182172312Y-196521900D01*
X182172312Y-196521900D02*
X182100884Y-196379042D01*
X182100884Y-196379042D02*
X182100884Y-196236185D01*
X182100884Y-196236185D02*
X182172312Y-196093328D01*
X182172312Y-196093328D02*
X182315170Y-196021900D01*
X182315170Y-196021900D02*
X182672312Y-196021900D01*
X182672312Y-196021900D02*
X182815170Y-195950471D01*
X184172313Y-196593328D02*
X184172313Y-195093328D01*
X184172313Y-196521900D02*
X184029455Y-196593328D01*
X184029455Y-196593328D02*
X183743741Y-196593328D01*
X183743741Y-196593328D02*
X183600884Y-196521900D01*
X183600884Y-196521900D02*
X183529455Y-196450471D01*
X183529455Y-196450471D02*
X183458027Y-196307614D01*
X183458027Y-196307614D02*
X183458027Y-195879042D01*
X183458027Y-195879042D02*
X183529455Y-195736185D01*
X183529455Y-195736185D02*
X183600884Y-195664757D01*
X183600884Y-195664757D02*
X183743741Y-195593328D01*
X183743741Y-195593328D02*
X184029455Y-195593328D01*
X184029455Y-195593328D02*
X184172313Y-195664757D01*
X186029455Y-195807614D02*
X186529455Y-195807614D01*
X186743741Y-196593328D02*
X186029455Y-196593328D01*
X186029455Y-196593328D02*
X186029455Y-195093328D01*
X186029455Y-195093328D02*
X186743741Y-195093328D01*
X187386598Y-196450471D02*
X187458027Y-196521900D01*
X187458027Y-196521900D02*
X187386598Y-196593328D01*
X187386598Y-196593328D02*
X187315170Y-196521900D01*
X187315170Y-196521900D02*
X187386598Y-196450471D01*
X187386598Y-196450471D02*
X187386598Y-196593328D01*
X188100884Y-196593328D02*
X188100884Y-195093328D01*
X188100884Y-195093328D02*
X188458027Y-195093328D01*
X188458027Y-195093328D02*
X188672313Y-195164757D01*
X188672313Y-195164757D02*
X188815170Y-195307614D01*
X188815170Y-195307614D02*
X188886599Y-195450471D01*
X188886599Y-195450471D02*
X188958027Y-195736185D01*
X188958027Y-195736185D02*
X188958027Y-195950471D01*
X188958027Y-195950471D02*
X188886599Y-196236185D01*
X188886599Y-196236185D02*
X188815170Y-196379042D01*
X188815170Y-196379042D02*
X188672313Y-196521900D01*
X188672313Y-196521900D02*
X188458027Y-196593328D01*
X188458027Y-196593328D02*
X188100884Y-196593328D01*
X189600884Y-196450471D02*
X189672313Y-196521900D01*
X189672313Y-196521900D02*
X189600884Y-196593328D01*
X189600884Y-196593328D02*
X189529456Y-196521900D01*
X189529456Y-196521900D02*
X189600884Y-196450471D01*
X189600884Y-196450471D02*
X189600884Y-196593328D01*
X190243742Y-196164757D02*
X190958028Y-196164757D01*
X190100885Y-196593328D02*
X190600885Y-195093328D01*
X190600885Y-195093328D02*
X191100885Y-196593328D01*
X191600884Y-196450471D02*
X191672313Y-196521900D01*
X191672313Y-196521900D02*
X191600884Y-196593328D01*
X191600884Y-196593328D02*
X191529456Y-196521900D01*
X191529456Y-196521900D02*
X191600884Y-196450471D01*
X191600884Y-196450471D02*
X191600884Y-196593328D01*
X194600884Y-196593328D02*
X194600884Y-195093328D01*
X194743742Y-196021900D02*
X195172313Y-196593328D01*
X195172313Y-195593328D02*
X194600884Y-196164757D01*
X195815170Y-196593328D02*
X195815170Y-195593328D01*
X195815170Y-195093328D02*
X195743742Y-195164757D01*
X195743742Y-195164757D02*
X195815170Y-195236185D01*
X195815170Y-195236185D02*
X195886599Y-195164757D01*
X195886599Y-195164757D02*
X195815170Y-195093328D01*
X195815170Y-195093328D02*
X195815170Y-195236185D01*
X197172314Y-196521900D02*
X197029456Y-196593328D01*
X197029456Y-196593328D02*
X196743742Y-196593328D01*
X196743742Y-196593328D02*
X196600885Y-196521900D01*
X196600885Y-196521900D02*
X196529456Y-196450471D01*
X196529456Y-196450471D02*
X196458028Y-196307614D01*
X196458028Y-196307614D02*
X196458028Y-195879042D01*
X196458028Y-195879042D02*
X196529456Y-195736185D01*
X196529456Y-195736185D02*
X196600885Y-195664757D01*
X196600885Y-195664757D02*
X196743742Y-195593328D01*
X196743742Y-195593328D02*
X197029456Y-195593328D01*
X197029456Y-195593328D02*
X197172314Y-195664757D01*
X198458028Y-196593328D02*
X198458028Y-195807614D01*
X198458028Y-195807614D02*
X198386599Y-195664757D01*
X198386599Y-195664757D02*
X198243742Y-195593328D01*
X198243742Y-195593328D02*
X197958028Y-195593328D01*
X197958028Y-195593328D02*
X197815170Y-195664757D01*
X198458028Y-196521900D02*
X198315170Y-196593328D01*
X198315170Y-196593328D02*
X197958028Y-196593328D01*
X197958028Y-196593328D02*
X197815170Y-196521900D01*
X197815170Y-196521900D02*
X197743742Y-196379042D01*
X197743742Y-196379042D02*
X197743742Y-196236185D01*
X197743742Y-196236185D02*
X197815170Y-196093328D01*
X197815170Y-196093328D02*
X197958028Y-196021900D01*
X197958028Y-196021900D02*
X198315170Y-196021900D01*
X198315170Y-196021900D02*
X198458028Y-195950471D01*
X199815171Y-196593328D02*
X199815171Y-195093328D01*
X199815171Y-196521900D02*
X199672313Y-196593328D01*
X199672313Y-196593328D02*
X199386599Y-196593328D01*
X199386599Y-196593328D02*
X199243742Y-196521900D01*
X199243742Y-196521900D02*
X199172313Y-196450471D01*
X199172313Y-196450471D02*
X199100885Y-196307614D01*
X199100885Y-196307614D02*
X199100885Y-195879042D01*
X199100885Y-195879042D02*
X199172313Y-195736185D01*
X199172313Y-195736185D02*
X199243742Y-195664757D01*
X199243742Y-195664757D02*
X199386599Y-195593328D01*
X199386599Y-195593328D02*
X199672313Y-195593328D01*
X199672313Y-195593328D02*
X199815171Y-195664757D01*
X201529456Y-195093328D02*
X202529456Y-195093328D01*
X202529456Y-195093328D02*
X201886599Y-196593328D01*
X203100884Y-196450471D02*
X203172313Y-196521900D01*
X203172313Y-196521900D02*
X203100884Y-196593328D01*
X203100884Y-196593328D02*
X203029456Y-196521900D01*
X203029456Y-196521900D02*
X203100884Y-196450471D01*
X203100884Y-196450471D02*
X203100884Y-196593328D01*
X204100885Y-195093328D02*
X204243742Y-195093328D01*
X204243742Y-195093328D02*
X204386599Y-195164757D01*
X204386599Y-195164757D02*
X204458028Y-195236185D01*
X204458028Y-195236185D02*
X204529456Y-195379042D01*
X204529456Y-195379042D02*
X204600885Y-195664757D01*
X204600885Y-195664757D02*
X204600885Y-196021900D01*
X204600885Y-196021900D02*
X204529456Y-196307614D01*
X204529456Y-196307614D02*
X204458028Y-196450471D01*
X204458028Y-196450471D02*
X204386599Y-196521900D01*
X204386599Y-196521900D02*
X204243742Y-196593328D01*
X204243742Y-196593328D02*
X204100885Y-196593328D01*
X204100885Y-196593328D02*
X203958028Y-196521900D01*
X203958028Y-196521900D02*
X203886599Y-196450471D01*
X203886599Y-196450471D02*
X203815170Y-196307614D01*
X203815170Y-196307614D02*
X203743742Y-196021900D01*
X203743742Y-196021900D02*
X203743742Y-195664757D01*
X203743742Y-195664757D02*
X203815170Y-195379042D01*
X203815170Y-195379042D02*
X203886599Y-195236185D01*
X203886599Y-195236185D02*
X203958028Y-195164757D01*
X203958028Y-195164757D02*
X204100885Y-195093328D01*
X205243741Y-196450471D02*
X205315170Y-196521900D01*
X205315170Y-196521900D02*
X205243741Y-196593328D01*
X205243741Y-196593328D02*
X205172313Y-196521900D01*
X205172313Y-196521900D02*
X205243741Y-196450471D01*
X205243741Y-196450471D02*
X205243741Y-196593328D01*
X205815170Y-195093328D02*
X206815170Y-195093328D01*
X206815170Y-195093328D02*
X206172313Y-196593328D01*
D10*
D11*
X177002200Y-191507200D02*
X285002200Y-191507200D01*
D10*
D12*
X264413853Y-193785528D02*
X263913853Y-193071242D01*
X263556710Y-193785528D02*
X263556710Y-192285528D01*
X263556710Y-192285528D02*
X264128139Y-192285528D01*
X264128139Y-192285528D02*
X264270996Y-192356957D01*
X264270996Y-192356957D02*
X264342425Y-192428385D01*
X264342425Y-192428385D02*
X264413853Y-192571242D01*
X264413853Y-192571242D02*
X264413853Y-192785528D01*
X264413853Y-192785528D02*
X264342425Y-192928385D01*
X264342425Y-192928385D02*
X264270996Y-192999814D01*
X264270996Y-192999814D02*
X264128139Y-193071242D01*
X264128139Y-193071242D02*
X263556710Y-193071242D01*
X265628139Y-193714100D02*
X265485282Y-193785528D01*
X265485282Y-193785528D02*
X265199568Y-193785528D01*
X265199568Y-193785528D02*
X265056710Y-193714100D01*
X265056710Y-193714100D02*
X264985282Y-193571242D01*
X264985282Y-193571242D02*
X264985282Y-192999814D01*
X264985282Y-192999814D02*
X265056710Y-192856957D01*
X265056710Y-192856957D02*
X265199568Y-192785528D01*
X265199568Y-192785528D02*
X265485282Y-192785528D01*
X265485282Y-192785528D02*
X265628139Y-192856957D01*
X265628139Y-192856957D02*
X265699568Y-192999814D01*
X265699568Y-192999814D02*
X265699568Y-193142671D01*
X265699568Y-193142671D02*
X264985282Y-193285528D01*
X266199567Y-192785528D02*
X266556710Y-193785528D01*
X266556710Y-193785528D02*
X266913853Y-192785528D01*
X267485281Y-193642671D02*
X267556710Y-193714100D01*
X267556710Y-193714100D02*
X267485281Y-193785528D01*
X267485281Y-193785528D02*
X267413853Y-193714100D01*
X267413853Y-193714100D02*
X267485281Y-193642671D01*
X267485281Y-193642671D02*
X267485281Y-193785528D01*
X267485281Y-192856957D02*
X267556710Y-192928385D01*
X267556710Y-192928385D02*
X267485281Y-192999814D01*
X267485281Y-192999814D02*
X267413853Y-192928385D01*
X267413853Y-192928385D02*
X267485281Y-192856957D01*
X267485281Y-192856957D02*
X267485281Y-192999814D01*
D10*
D11*
X178386598Y-193721900D02*
X178600884Y-193793328D01*
X178600884Y-193793328D02*
X178958026Y-193793328D01*
X178958026Y-193793328D02*
X179100884Y-193721900D01*
X179100884Y-193721900D02*
X179172312Y-193650471D01*
X179172312Y-193650471D02*
X179243741Y-193507614D01*
X179243741Y-193507614D02*
X179243741Y-193364757D01*
X179243741Y-193364757D02*
X179172312Y-193221900D01*
X179172312Y-193221900D02*
X179100884Y-193150471D01*
X179100884Y-193150471D02*
X178958026Y-193079042D01*
X178958026Y-193079042D02*
X178672312Y-193007614D01*
X178672312Y-193007614D02*
X178529455Y-192936185D01*
X178529455Y-192936185D02*
X178458026Y-192864757D01*
X178458026Y-192864757D02*
X178386598Y-192721900D01*
X178386598Y-192721900D02*
X178386598Y-192579042D01*
X178386598Y-192579042D02*
X178458026Y-192436185D01*
X178458026Y-192436185D02*
X178529455Y-192364757D01*
X178529455Y-192364757D02*
X178672312Y-192293328D01*
X178672312Y-192293328D02*
X179029455Y-192293328D01*
X179029455Y-192293328D02*
X179243741Y-192364757D01*
X179886597Y-193793328D02*
X179886597Y-192793328D01*
X179886597Y-192293328D02*
X179815169Y-192364757D01*
X179815169Y-192364757D02*
X179886597Y-192436185D01*
X179886597Y-192436185D02*
X179958026Y-192364757D01*
X179958026Y-192364757D02*
X179886597Y-192293328D01*
X179886597Y-192293328D02*
X179886597Y-192436185D01*
X180458026Y-192793328D02*
X181243741Y-192793328D01*
X181243741Y-192793328D02*
X180458026Y-193793328D01*
X180458026Y-193793328D02*
X181243741Y-193793328D01*
X182386598Y-193721900D02*
X182243741Y-193793328D01*
X182243741Y-193793328D02*
X181958027Y-193793328D01*
X181958027Y-193793328D02*
X181815169Y-193721900D01*
X181815169Y-193721900D02*
X181743741Y-193579042D01*
X181743741Y-193579042D02*
X181743741Y-193007614D01*
X181743741Y-193007614D02*
X181815169Y-192864757D01*
X181815169Y-192864757D02*
X181958027Y-192793328D01*
X181958027Y-192793328D02*
X182243741Y-192793328D01*
X182243741Y-192793328D02*
X182386598Y-192864757D01*
X182386598Y-192864757D02*
X182458027Y-193007614D01*
X182458027Y-193007614D02*
X182458027Y-193150471D01*
X182458027Y-193150471D02*
X181743741Y-193293328D01*
X183100883Y-193650471D02*
X183172312Y-193721900D01*
X183172312Y-193721900D02*
X183100883Y-193793328D01*
X183100883Y-193793328D02*
X183029455Y-193721900D01*
X183029455Y-193721900D02*
X183100883Y-193650471D01*
X183100883Y-193650471D02*
X183100883Y-193793328D01*
X183100883Y-192864757D02*
X183172312Y-192936185D01*
X183172312Y-192936185D02*
X183100883Y-193007614D01*
X183100883Y-193007614D02*
X183029455Y-192936185D01*
X183029455Y-192936185D02*
X183100883Y-192864757D01*
X183100883Y-192864757D02*
X183100883Y-193007614D01*
X184886598Y-193364757D02*
X185600884Y-193364757D01*
X184743741Y-193793328D02*
X185243741Y-192293328D01*
X185243741Y-192293328D02*
X185743741Y-193793328D01*
X186886598Y-192793328D02*
X186886598Y-193793328D01*
X186529455Y-192221900D02*
X186172312Y-193293328D01*
X186172312Y-193293328D02*
X187100883Y-193293328D01*
D10*
D11*
X263458026Y-196593328D02*
X263458026Y-195093328D01*
X264815170Y-196593328D02*
X264815170Y-195093328D01*
X264815170Y-196521900D02*
X264672312Y-196593328D01*
X264672312Y-196593328D02*
X264386598Y-196593328D01*
X264386598Y-196593328D02*
X264243741Y-196521900D01*
X264243741Y-196521900D02*
X264172312Y-196450471D01*
X264172312Y-196450471D02*
X264100884Y-196307614D01*
X264100884Y-196307614D02*
X264100884Y-195879042D01*
X264100884Y-195879042D02*
X264172312Y-195736185D01*
X264172312Y-195736185D02*
X264243741Y-195664757D01*
X264243741Y-195664757D02*
X264386598Y-195593328D01*
X264386598Y-195593328D02*
X264672312Y-195593328D01*
X264672312Y-195593328D02*
X264815170Y-195664757D01*
X265529455Y-196450471D02*
X265600884Y-196521900D01*
X265600884Y-196521900D02*
X265529455Y-196593328D01*
X265529455Y-196593328D02*
X265458027Y-196521900D01*
X265458027Y-196521900D02*
X265529455Y-196450471D01*
X265529455Y-196450471D02*
X265529455Y-196593328D01*
X265529455Y-195664757D02*
X265600884Y-195736185D01*
X265600884Y-195736185D02*
X265529455Y-195807614D01*
X265529455Y-195807614D02*
X265458027Y-195736185D01*
X265458027Y-195736185D02*
X265529455Y-195664757D01*
X265529455Y-195664757D02*
X265529455Y-195807614D01*
X268172313Y-196593328D02*
X267315170Y-196593328D01*
X267743741Y-196593328D02*
X267743741Y-195093328D01*
X267743741Y-195093328D02*
X267600884Y-195307614D01*
X267600884Y-195307614D02*
X267458027Y-195450471D01*
X267458027Y-195450471D02*
X267315170Y-195521900D01*
X269886598Y-195021900D02*
X268600884Y-196950471D01*
X271172313Y-196593328D02*
X270315170Y-196593328D01*
X270743741Y-196593328D02*
X270743741Y-195093328D01*
X270743741Y-195093328D02*
X270600884Y-195307614D01*
X270600884Y-195307614D02*
X270458027Y-195450471D01*
X270458027Y-195450471D02*
X270315170Y-195521900D01*
D10*
D11*
X177002200Y-187507200D02*
X285002200Y-187507200D01*
D10*
D13*
X178693928Y-188211638D02*
X179836785Y-188211638D01*
X179015357Y-190211638D02*
X179265357Y-188211638D01*
X180253452Y-190211638D02*
X180420119Y-188878304D01*
X180503452Y-188211638D02*
X180396309Y-188306876D01*
X180396309Y-188306876D02*
X180479643Y-188402114D01*
X180479643Y-188402114D02*
X180586786Y-188306876D01*
X180586786Y-188306876D02*
X180503452Y-188211638D01*
X180503452Y-188211638D02*
X180479643Y-188402114D01*
X181086786Y-188878304D02*
X181848690Y-188878304D01*
X181455833Y-188211638D02*
X181241548Y-189925923D01*
X181241548Y-189925923D02*
X181312976Y-190116400D01*
X181312976Y-190116400D02*
X181491548Y-190211638D01*
X181491548Y-190211638D02*
X181682024Y-190211638D01*
X182634405Y-190211638D02*
X182455833Y-190116400D01*
X182455833Y-190116400D02*
X182384405Y-189925923D01*
X182384405Y-189925923D02*
X182598690Y-188211638D01*
X184170119Y-190116400D02*
X183967738Y-190211638D01*
X183967738Y-190211638D02*
X183586785Y-190211638D01*
X183586785Y-190211638D02*
X183408214Y-190116400D01*
X183408214Y-190116400D02*
X183336785Y-189925923D01*
X183336785Y-189925923D02*
X183432024Y-189164019D01*
X183432024Y-189164019D02*
X183551071Y-188973542D01*
X183551071Y-188973542D02*
X183753452Y-188878304D01*
X183753452Y-188878304D02*
X184134404Y-188878304D01*
X184134404Y-188878304D02*
X184312976Y-188973542D01*
X184312976Y-188973542D02*
X184384404Y-189164019D01*
X184384404Y-189164019D02*
X184360595Y-189354495D01*
X184360595Y-189354495D02*
X183384404Y-189544971D01*
X185134405Y-190021161D02*
X185217738Y-190116400D01*
X185217738Y-190116400D02*
X185110595Y-190211638D01*
X185110595Y-190211638D02*
X185027262Y-190116400D01*
X185027262Y-190116400D02*
X185134405Y-190021161D01*
X185134405Y-190021161D02*
X185110595Y-190211638D01*
X185265357Y-188973542D02*
X185348690Y-189068780D01*
X185348690Y-189068780D02*
X185241548Y-189164019D01*
X185241548Y-189164019D02*
X185158214Y-189068780D01*
X185158214Y-189068780D02*
X185265357Y-188973542D01*
X185265357Y-188973542D02*
X185241548Y-189164019D01*
D10*
D11*
X178958026Y-185607614D02*
X178458026Y-185607614D01*
X178458026Y-186393328D02*
X178458026Y-184893328D01*
X178458026Y-184893328D02*
X179172312Y-184893328D01*
X179743740Y-186393328D02*
X179743740Y-185393328D01*
X179743740Y-184893328D02*
X179672312Y-184964757D01*
X179672312Y-184964757D02*
X179743740Y-185036185D01*
X179743740Y-185036185D02*
X179815169Y-184964757D01*
X179815169Y-184964757D02*
X179743740Y-184893328D01*
X179743740Y-184893328D02*
X179743740Y-185036185D01*
X180672312Y-186393328D02*
X180529455Y-186321900D01*
X180529455Y-186321900D02*
X180458026Y-186179042D01*
X180458026Y-186179042D02*
X180458026Y-184893328D01*
X181815169Y-186321900D02*
X181672312Y-186393328D01*
X181672312Y-186393328D02*
X181386598Y-186393328D01*
X181386598Y-186393328D02*
X181243740Y-186321900D01*
X181243740Y-186321900D02*
X181172312Y-186179042D01*
X181172312Y-186179042D02*
X181172312Y-185607614D01*
X181172312Y-185607614D02*
X181243740Y-185464757D01*
X181243740Y-185464757D02*
X181386598Y-185393328D01*
X181386598Y-185393328D02*
X181672312Y-185393328D01*
X181672312Y-185393328D02*
X181815169Y-185464757D01*
X181815169Y-185464757D02*
X181886598Y-185607614D01*
X181886598Y-185607614D02*
X181886598Y-185750471D01*
X181886598Y-185750471D02*
X181172312Y-185893328D01*
X182529454Y-186250471D02*
X182600883Y-186321900D01*
X182600883Y-186321900D02*
X182529454Y-186393328D01*
X182529454Y-186393328D02*
X182458026Y-186321900D01*
X182458026Y-186321900D02*
X182529454Y-186250471D01*
X182529454Y-186250471D02*
X182529454Y-186393328D01*
X182529454Y-185464757D02*
X182600883Y-185536185D01*
X182600883Y-185536185D02*
X182529454Y-185607614D01*
X182529454Y-185607614D02*
X182458026Y-185536185D01*
X182458026Y-185536185D02*
X182529454Y-185464757D01*
X182529454Y-185464757D02*
X182529454Y-185607614D01*
X184243740Y-185393328D02*
X184600883Y-186393328D01*
X184600883Y-186393328D02*
X184958026Y-185393328D01*
X185815169Y-184893328D02*
X185958026Y-184893328D01*
X185958026Y-184893328D02*
X186100883Y-184964757D01*
X186100883Y-184964757D02*
X186172312Y-185036185D01*
X186172312Y-185036185D02*
X186243740Y-185179042D01*
X186243740Y-185179042D02*
X186315169Y-185464757D01*
X186315169Y-185464757D02*
X186315169Y-185821900D01*
X186315169Y-185821900D02*
X186243740Y-186107614D01*
X186243740Y-186107614D02*
X186172312Y-186250471D01*
X186172312Y-186250471D02*
X186100883Y-186321900D01*
X186100883Y-186321900D02*
X185958026Y-186393328D01*
X185958026Y-186393328D02*
X185815169Y-186393328D01*
X185815169Y-186393328D02*
X185672312Y-186321900D01*
X185672312Y-186321900D02*
X185600883Y-186250471D01*
X185600883Y-186250471D02*
X185529454Y-186107614D01*
X185529454Y-186107614D02*
X185458026Y-185821900D01*
X185458026Y-185821900D02*
X185458026Y-185464757D01*
X185458026Y-185464757D02*
X185529454Y-185179042D01*
X185529454Y-185179042D02*
X185600883Y-185036185D01*
X185600883Y-185036185D02*
X185672312Y-184964757D01*
X185672312Y-184964757D02*
X185815169Y-184893328D01*
X186958025Y-186250471D02*
X187029454Y-186321900D01*
X187029454Y-186321900D02*
X186958025Y-186393328D01*
X186958025Y-186393328D02*
X186886597Y-186321900D01*
X186886597Y-186321900D02*
X186958025Y-186250471D01*
X186958025Y-186250471D02*
X186958025Y-186393328D01*
X188315169Y-185393328D02*
X188315169Y-186393328D01*
X187958026Y-184821900D02*
X187600883Y-185893328D01*
X187600883Y-185893328D02*
X188529454Y-185893328D01*
X189100882Y-186250471D02*
X189172311Y-186321900D01*
X189172311Y-186321900D02*
X189100882Y-186393328D01*
X189100882Y-186393328D02*
X189029454Y-186321900D01*
X189029454Y-186321900D02*
X189100882Y-186250471D01*
X189100882Y-186250471D02*
X189100882Y-186393328D01*
X189672311Y-184893328D02*
X190600883Y-184893328D01*
X190600883Y-184893328D02*
X190100883Y-185464757D01*
X190100883Y-185464757D02*
X190315168Y-185464757D01*
X190315168Y-185464757D02*
X190458026Y-185536185D01*
X190458026Y-185536185D02*
X190529454Y-185607614D01*
X190529454Y-185607614D02*
X190600883Y-185750471D01*
X190600883Y-185750471D02*
X190600883Y-186107614D01*
X190600883Y-186107614D02*
X190529454Y-186250471D01*
X190529454Y-186250471D02*
X190458026Y-186321900D01*
X190458026Y-186321900D02*
X190315168Y-186393328D01*
X190315168Y-186393328D02*
X189886597Y-186393328D01*
X189886597Y-186393328D02*
X189743740Y-186321900D01*
X189743740Y-186321900D02*
X189672311Y-186250471D01*
X191886597Y-186393328D02*
X191886597Y-184893328D01*
X191886597Y-186321900D02*
X191743739Y-186393328D01*
X191743739Y-186393328D02*
X191458025Y-186393328D01*
X191458025Y-186393328D02*
X191315168Y-186321900D01*
X191315168Y-186321900D02*
X191243739Y-186250471D01*
X191243739Y-186250471D02*
X191172311Y-186107614D01*
X191172311Y-186107614D02*
X191172311Y-185679042D01*
X191172311Y-185679042D02*
X191243739Y-185536185D01*
X191243739Y-185536185D02*
X191315168Y-185464757D01*
X191315168Y-185464757D02*
X191458025Y-185393328D01*
X191458025Y-185393328D02*
X191743739Y-185393328D01*
X191743739Y-185393328D02*
X191886597Y-185464757D01*
X192600882Y-186250471D02*
X192672311Y-186321900D01*
X192672311Y-186321900D02*
X192600882Y-186393328D01*
X192600882Y-186393328D02*
X192529454Y-186321900D01*
X192529454Y-186321900D02*
X192600882Y-186250471D01*
X192600882Y-186250471D02*
X192600882Y-186393328D01*
X193315168Y-186393328D02*
X193315168Y-184893328D01*
X193458026Y-185821900D02*
X193886597Y-186393328D01*
X193886597Y-185393328D02*
X193315168Y-185964757D01*
X194529454Y-186393328D02*
X194529454Y-185393328D01*
X194529454Y-184893328D02*
X194458026Y-184964757D01*
X194458026Y-184964757D02*
X194529454Y-185036185D01*
X194529454Y-185036185D02*
X194600883Y-184964757D01*
X194600883Y-184964757D02*
X194529454Y-184893328D01*
X194529454Y-184893328D02*
X194529454Y-185036185D01*
X195886598Y-186321900D02*
X195743740Y-186393328D01*
X195743740Y-186393328D02*
X195458026Y-186393328D01*
X195458026Y-186393328D02*
X195315169Y-186321900D01*
X195315169Y-186321900D02*
X195243740Y-186250471D01*
X195243740Y-186250471D02*
X195172312Y-186107614D01*
X195172312Y-186107614D02*
X195172312Y-185679042D01*
X195172312Y-185679042D02*
X195243740Y-185536185D01*
X195243740Y-185536185D02*
X195315169Y-185464757D01*
X195315169Y-185464757D02*
X195458026Y-185393328D01*
X195458026Y-185393328D02*
X195743740Y-185393328D01*
X195743740Y-185393328D02*
X195886598Y-185464757D01*
X197172312Y-186393328D02*
X197172312Y-185607614D01*
X197172312Y-185607614D02*
X197100883Y-185464757D01*
X197100883Y-185464757D02*
X196958026Y-185393328D01*
X196958026Y-185393328D02*
X196672312Y-185393328D01*
X196672312Y-185393328D02*
X196529454Y-185464757D01*
X197172312Y-186321900D02*
X197029454Y-186393328D01*
X197029454Y-186393328D02*
X196672312Y-186393328D01*
X196672312Y-186393328D02*
X196529454Y-186321900D01*
X196529454Y-186321900D02*
X196458026Y-186179042D01*
X196458026Y-186179042D02*
X196458026Y-186036185D01*
X196458026Y-186036185D02*
X196529454Y-185893328D01*
X196529454Y-185893328D02*
X196672312Y-185821900D01*
X196672312Y-185821900D02*
X197029454Y-185821900D01*
X197029454Y-185821900D02*
X197172312Y-185750471D01*
X198529455Y-186393328D02*
X198529455Y-184893328D01*
X198529455Y-186321900D02*
X198386597Y-186393328D01*
X198386597Y-186393328D02*
X198100883Y-186393328D01*
X198100883Y-186393328D02*
X197958026Y-186321900D01*
X197958026Y-186321900D02*
X197886597Y-186250471D01*
X197886597Y-186250471D02*
X197815169Y-186107614D01*
X197815169Y-186107614D02*
X197815169Y-185679042D01*
X197815169Y-185679042D02*
X197886597Y-185536185D01*
X197886597Y-185536185D02*
X197958026Y-185464757D01*
X197958026Y-185464757D02*
X198100883Y-185393328D01*
X198100883Y-185393328D02*
X198386597Y-185393328D01*
X198386597Y-185393328D02*
X198529455Y-185464757D01*
X198886598Y-186536185D02*
X200029455Y-186536185D01*
X200386597Y-185393328D02*
X200386597Y-186893328D01*
X200386597Y-185464757D02*
X200529455Y-185393328D01*
X200529455Y-185393328D02*
X200815169Y-185393328D01*
X200815169Y-185393328D02*
X200958026Y-185464757D01*
X200958026Y-185464757D02*
X201029455Y-185536185D01*
X201029455Y-185536185D02*
X201100883Y-185679042D01*
X201100883Y-185679042D02*
X201100883Y-186107614D01*
X201100883Y-186107614D02*
X201029455Y-186250471D01*
X201029455Y-186250471D02*
X200958026Y-186321900D01*
X200958026Y-186321900D02*
X200815169Y-186393328D01*
X200815169Y-186393328D02*
X200529455Y-186393328D01*
X200529455Y-186393328D02*
X200386597Y-186321900D01*
X202386598Y-186321900D02*
X202243740Y-186393328D01*
X202243740Y-186393328D02*
X201958026Y-186393328D01*
X201958026Y-186393328D02*
X201815169Y-186321900D01*
X201815169Y-186321900D02*
X201743740Y-186250471D01*
X201743740Y-186250471D02*
X201672312Y-186107614D01*
X201672312Y-186107614D02*
X201672312Y-185679042D01*
X201672312Y-185679042D02*
X201743740Y-185536185D01*
X201743740Y-185536185D02*
X201815169Y-185464757D01*
X201815169Y-185464757D02*
X201958026Y-185393328D01*
X201958026Y-185393328D02*
X202243740Y-185393328D01*
X202243740Y-185393328D02*
X202386598Y-185464757D01*
X203029454Y-186393328D02*
X203029454Y-184893328D01*
X203029454Y-185464757D02*
X203172312Y-185393328D01*
X203172312Y-185393328D02*
X203458026Y-185393328D01*
X203458026Y-185393328D02*
X203600883Y-185464757D01*
X203600883Y-185464757D02*
X203672312Y-185536185D01*
X203672312Y-185536185D02*
X203743740Y-185679042D01*
X203743740Y-185679042D02*
X203743740Y-186107614D01*
X203743740Y-186107614D02*
X203672312Y-186250471D01*
X203672312Y-186250471D02*
X203600883Y-186321900D01*
X203600883Y-186321900D02*
X203458026Y-186393328D01*
X203458026Y-186393328D02*
X203172312Y-186393328D01*
X203172312Y-186393328D02*
X203029454Y-186321900D01*
D10*
D11*
X177002200Y-181507200D02*
X285002200Y-181507200D01*
D10*
D11*
X178386598Y-183621900D02*
X178600884Y-183693328D01*
X178600884Y-183693328D02*
X178958026Y-183693328D01*
X178958026Y-183693328D02*
X179100884Y-183621900D01*
X179100884Y-183621900D02*
X179172312Y-183550471D01*
X179172312Y-183550471D02*
X179243741Y-183407614D01*
X179243741Y-183407614D02*
X179243741Y-183264757D01*
X179243741Y-183264757D02*
X179172312Y-183121900D01*
X179172312Y-183121900D02*
X179100884Y-183050471D01*
X179100884Y-183050471D02*
X178958026Y-182979042D01*
X178958026Y-182979042D02*
X178672312Y-182907614D01*
X178672312Y-182907614D02*
X178529455Y-182836185D01*
X178529455Y-182836185D02*
X178458026Y-182764757D01*
X178458026Y-182764757D02*
X178386598Y-182621900D01*
X178386598Y-182621900D02*
X178386598Y-182479042D01*
X178386598Y-182479042D02*
X178458026Y-182336185D01*
X178458026Y-182336185D02*
X178529455Y-182264757D01*
X178529455Y-182264757D02*
X178672312Y-182193328D01*
X178672312Y-182193328D02*
X179029455Y-182193328D01*
X179029455Y-182193328D02*
X179243741Y-182264757D01*
X179886597Y-183693328D02*
X179886597Y-182193328D01*
X180529455Y-183693328D02*
X180529455Y-182907614D01*
X180529455Y-182907614D02*
X180458026Y-182764757D01*
X180458026Y-182764757D02*
X180315169Y-182693328D01*
X180315169Y-182693328D02*
X180100883Y-182693328D01*
X180100883Y-182693328D02*
X179958026Y-182764757D01*
X179958026Y-182764757D02*
X179886597Y-182836185D01*
X181815169Y-183621900D02*
X181672312Y-183693328D01*
X181672312Y-183693328D02*
X181386598Y-183693328D01*
X181386598Y-183693328D02*
X181243740Y-183621900D01*
X181243740Y-183621900D02*
X181172312Y-183479042D01*
X181172312Y-183479042D02*
X181172312Y-182907614D01*
X181172312Y-182907614D02*
X181243740Y-182764757D01*
X181243740Y-182764757D02*
X181386598Y-182693328D01*
X181386598Y-182693328D02*
X181672312Y-182693328D01*
X181672312Y-182693328D02*
X181815169Y-182764757D01*
X181815169Y-182764757D02*
X181886598Y-182907614D01*
X181886598Y-182907614D02*
X181886598Y-183050471D01*
X181886598Y-183050471D02*
X181172312Y-183193328D01*
X183100883Y-183621900D02*
X182958026Y-183693328D01*
X182958026Y-183693328D02*
X182672312Y-183693328D01*
X182672312Y-183693328D02*
X182529454Y-183621900D01*
X182529454Y-183621900D02*
X182458026Y-183479042D01*
X182458026Y-183479042D02*
X182458026Y-182907614D01*
X182458026Y-182907614D02*
X182529454Y-182764757D01*
X182529454Y-182764757D02*
X182672312Y-182693328D01*
X182672312Y-182693328D02*
X182958026Y-182693328D01*
X182958026Y-182693328D02*
X183100883Y-182764757D01*
X183100883Y-182764757D02*
X183172312Y-182907614D01*
X183172312Y-182907614D02*
X183172312Y-183050471D01*
X183172312Y-183050471D02*
X182458026Y-183193328D01*
X183600883Y-182693328D02*
X184172311Y-182693328D01*
X183815168Y-182193328D02*
X183815168Y-183479042D01*
X183815168Y-183479042D02*
X183886597Y-183621900D01*
X183886597Y-183621900D02*
X184029454Y-183693328D01*
X184029454Y-183693328D02*
X184172311Y-183693328D01*
X184672311Y-183550471D02*
X184743740Y-183621900D01*
X184743740Y-183621900D02*
X184672311Y-183693328D01*
X184672311Y-183693328D02*
X184600883Y-183621900D01*
X184600883Y-183621900D02*
X184672311Y-183550471D01*
X184672311Y-183550471D02*
X184672311Y-183693328D01*
X184672311Y-182764757D02*
X184743740Y-182836185D01*
X184743740Y-182836185D02*
X184672311Y-182907614D01*
X184672311Y-182907614D02*
X184600883Y-182836185D01*
X184600883Y-182836185D02*
X184672311Y-182764757D01*
X184672311Y-182764757D02*
X184672311Y-182907614D01*
D10*
D12*
D10*
D11*
D10*
D11*
D10*
D11*
D10*
D11*
D10*
D11*
X197002200Y-191507200D02*
X197002200Y-194507200D01*
D10*
D11*
X261002200Y-191507200D02*
X261002200Y-198007200D01*
X81352819Y-67476761D02*
X81352819Y-66905333D01*
X81352819Y-67191047D02*
X80352819Y-67191047D01*
X80352819Y-67191047D02*
X80495676Y-67095809D01*
X80495676Y-67095809D02*
X80590914Y-67000571D01*
X80590914Y-67000571D02*
X80638533Y-66905333D01*
X80352819Y-68095809D02*
X80352819Y-68191047D01*
X80352819Y-68191047D02*
X80400438Y-68286285D01*
X80400438Y-68286285D02*
X80448057Y-68333904D01*
X80448057Y-68333904D02*
X80543295Y-68381523D01*
X80543295Y-68381523D02*
X80733771Y-68429142D01*
X80733771Y-68429142D02*
X80971866Y-68429142D01*
X80971866Y-68429142D02*
X81162342Y-68381523D01*
X81162342Y-68381523D02*
X81257580Y-68333904D01*
X81257580Y-68333904D02*
X81305200Y-68286285D01*
X81305200Y-68286285D02*
X81352819Y-68191047D01*
X81352819Y-68191047D02*
X81352819Y-68095809D01*
X81352819Y-68095809D02*
X81305200Y-68000571D01*
X81305200Y-68000571D02*
X81257580Y-67952952D01*
X81257580Y-67952952D02*
X81162342Y-67905333D01*
X81162342Y-67905333D02*
X80971866Y-67857714D01*
X80971866Y-67857714D02*
X80733771Y-67857714D01*
X80733771Y-67857714D02*
X80543295Y-67905333D01*
X80543295Y-67905333D02*
X80448057Y-67952952D01*
X80448057Y-67952952D02*
X80400438Y-68000571D01*
X80400438Y-68000571D02*
X80352819Y-68095809D01*
X81352819Y-68857714D02*
X80352819Y-68857714D01*
X80971866Y-68952952D02*
X81352819Y-69238666D01*
X80686152Y-69238666D02*
X81067104Y-68857714D01*
D14*
X79475149Y-67750571D02*
X79237054Y-67583905D01*
X79475149Y-67464857D02*
X78975149Y-67464857D01*
X78975149Y-67464857D02*
X78975149Y-67655333D01*
X78975149Y-67655333D02*
X78998959Y-67702952D01*
X78998959Y-67702952D02*
X79022768Y-67726762D01*
X79022768Y-67726762D02*
X79070387Y-67750571D01*
X79070387Y-67750571D02*
X79141816Y-67750571D01*
X79141816Y-67750571D02*
X79189435Y-67726762D01*
X79189435Y-67726762D02*
X79213244Y-67702952D01*
X79213244Y-67702952D02*
X79237054Y-67655333D01*
X79237054Y-67655333D02*
X79237054Y-67464857D01*
X79141816Y-68179143D02*
X79475149Y-68179143D01*
X78951340Y-68060095D02*
X79308482Y-67941048D01*
X79308482Y-67941048D02*
X79308482Y-68250571D01*
X79141816Y-68655333D02*
X79475149Y-68655333D01*
X78951340Y-68536285D02*
X79308482Y-68417238D01*
X79308482Y-68417238D02*
X79308482Y-68726761D01*
D11*
X78052819Y-86677261D02*
X78052819Y-86105833D01*
X78052819Y-86391547D02*
X77052819Y-86391547D01*
X77052819Y-86391547D02*
X77195676Y-86296309D01*
X77195676Y-86296309D02*
X77290914Y-86201071D01*
X77290914Y-86201071D02*
X77338533Y-86105833D01*
X77052819Y-87296309D02*
X77052819Y-87391547D01*
X77052819Y-87391547D02*
X77100438Y-87486785D01*
X77100438Y-87486785D02*
X77148057Y-87534404D01*
X77148057Y-87534404D02*
X77243295Y-87582023D01*
X77243295Y-87582023D02*
X77433771Y-87629642D01*
X77433771Y-87629642D02*
X77671866Y-87629642D01*
X77671866Y-87629642D02*
X77862342Y-87582023D01*
X77862342Y-87582023D02*
X77957580Y-87534404D01*
X77957580Y-87534404D02*
X78005200Y-87486785D01*
X78005200Y-87486785D02*
X78052819Y-87391547D01*
X78052819Y-87391547D02*
X78052819Y-87296309D01*
X78052819Y-87296309D02*
X78005200Y-87201071D01*
X78005200Y-87201071D02*
X77957580Y-87153452D01*
X77957580Y-87153452D02*
X77862342Y-87105833D01*
X77862342Y-87105833D02*
X77671866Y-87058214D01*
X77671866Y-87058214D02*
X77433771Y-87058214D01*
X77433771Y-87058214D02*
X77243295Y-87105833D01*
X77243295Y-87105833D02*
X77148057Y-87153452D01*
X77148057Y-87153452D02*
X77100438Y-87201071D01*
X77100438Y-87201071D02*
X77052819Y-87296309D01*
X78052819Y-88058214D02*
X77052819Y-88058214D01*
X77671866Y-88153452D02*
X78052819Y-88439166D01*
X77386152Y-88439166D02*
X77767104Y-88058214D01*
D14*
X79475149Y-86951071D02*
X79237054Y-86784405D01*
X79475149Y-86665357D02*
X78975149Y-86665357D01*
X78975149Y-86665357D02*
X78975149Y-86855833D01*
X78975149Y-86855833D02*
X78998959Y-86903452D01*
X78998959Y-86903452D02*
X79022768Y-86927262D01*
X79022768Y-86927262D02*
X79070387Y-86951071D01*
X79070387Y-86951071D02*
X79141816Y-86951071D01*
X79141816Y-86951071D02*
X79189435Y-86927262D01*
X79189435Y-86927262D02*
X79213244Y-86903452D01*
X79213244Y-86903452D02*
X79237054Y-86855833D01*
X79237054Y-86855833D02*
X79237054Y-86665357D01*
X79022768Y-87141548D02*
X78998959Y-87165357D01*
X78998959Y-87165357D02*
X78975149Y-87212976D01*
X78975149Y-87212976D02*
X78975149Y-87332024D01*
X78975149Y-87332024D02*
X78998959Y-87379643D01*
X78998959Y-87379643D02*
X79022768Y-87403452D01*
X79022768Y-87403452D02*
X79070387Y-87427262D01*
X79070387Y-87427262D02*
X79118006Y-87427262D01*
X79118006Y-87427262D02*
X79189435Y-87403452D01*
X79189435Y-87403452D02*
X79475149Y-87117738D01*
X79475149Y-87117738D02*
X79475149Y-87427262D01*
X79189435Y-87712976D02*
X79165625Y-87665357D01*
X79165625Y-87665357D02*
X79141816Y-87641547D01*
X79141816Y-87641547D02*
X79094197Y-87617738D01*
X79094197Y-87617738D02*
X79070387Y-87617738D01*
X79070387Y-87617738D02*
X79022768Y-87641547D01*
X79022768Y-87641547D02*
X78998959Y-87665357D01*
X78998959Y-87665357D02*
X78975149Y-87712976D01*
X78975149Y-87712976D02*
X78975149Y-87808214D01*
X78975149Y-87808214D02*
X78998959Y-87855833D01*
X78998959Y-87855833D02*
X79022768Y-87879642D01*
X79022768Y-87879642D02*
X79070387Y-87903452D01*
X79070387Y-87903452D02*
X79094197Y-87903452D01*
X79094197Y-87903452D02*
X79141816Y-87879642D01*
X79141816Y-87879642D02*
X79165625Y-87855833D01*
X79165625Y-87855833D02*
X79189435Y-87808214D01*
X79189435Y-87808214D02*
X79189435Y-87712976D01*
X79189435Y-87712976D02*
X79213244Y-87665357D01*
X79213244Y-87665357D02*
X79237054Y-87641547D01*
X79237054Y-87641547D02*
X79284673Y-87617738D01*
X79284673Y-87617738D02*
X79379911Y-87617738D01*
X79379911Y-87617738D02*
X79427530Y-87641547D01*
X79427530Y-87641547D02*
X79451340Y-87665357D01*
X79451340Y-87665357D02*
X79475149Y-87712976D01*
X79475149Y-87712976D02*
X79475149Y-87808214D01*
X79475149Y-87808214D02*
X79451340Y-87855833D01*
X79451340Y-87855833D02*
X79427530Y-87879642D01*
X79427530Y-87879642D02*
X79379911Y-87903452D01*
X79379911Y-87903452D02*
X79284673Y-87903452D01*
X79284673Y-87903452D02*
X79237054Y-87879642D01*
X79237054Y-87879642D02*
X79213244Y-87855833D01*
X79213244Y-87855833D02*
X79189435Y-87808214D01*
D11*
X88439285Y-56814057D02*
X88391666Y-56766438D01*
X88391666Y-56766438D02*
X88296428Y-56718819D01*
X88296428Y-56718819D02*
X88058333Y-56718819D01*
X88058333Y-56718819D02*
X87963095Y-56766438D01*
X87963095Y-56766438D02*
X87915476Y-56814057D01*
X87915476Y-56814057D02*
X87867857Y-56909295D01*
X87867857Y-56909295D02*
X87867857Y-57004533D01*
X87867857Y-57004533D02*
X87915476Y-57147390D01*
X87915476Y-57147390D02*
X88486904Y-57718819D01*
X88486904Y-57718819D02*
X87867857Y-57718819D01*
X87439285Y-57718819D02*
X87439285Y-56718819D01*
X87439285Y-56718819D02*
X86867857Y-57718819D01*
X86867857Y-57718819D02*
X86867857Y-56718819D01*
X86486904Y-56718819D02*
X85820238Y-56718819D01*
X85820238Y-56718819D02*
X86248809Y-57718819D01*
X85248809Y-56718819D02*
X85153571Y-56718819D01*
X85153571Y-56718819D02*
X85058333Y-56766438D01*
X85058333Y-56766438D02*
X85010714Y-56814057D01*
X85010714Y-56814057D02*
X84963095Y-56909295D01*
X84963095Y-56909295D02*
X84915476Y-57099771D01*
X84915476Y-57099771D02*
X84915476Y-57337866D01*
X84915476Y-57337866D02*
X84963095Y-57528342D01*
X84963095Y-57528342D02*
X85010714Y-57623580D01*
X85010714Y-57623580D02*
X85058333Y-57671200D01*
X85058333Y-57671200D02*
X85153571Y-57718819D01*
X85153571Y-57718819D02*
X85248809Y-57718819D01*
X85248809Y-57718819D02*
X85344047Y-57671200D01*
X85344047Y-57671200D02*
X85391666Y-57623580D01*
X85391666Y-57623580D02*
X85439285Y-57528342D01*
X85439285Y-57528342D02*
X85486904Y-57337866D01*
X85486904Y-57337866D02*
X85486904Y-57099771D01*
X85486904Y-57099771D02*
X85439285Y-56909295D01*
X85439285Y-56909295D02*
X85391666Y-56814057D01*
X85391666Y-56814057D02*
X85344047Y-56766438D01*
X85344047Y-56766438D02*
X85248809Y-56718819D01*
X84296428Y-56718819D02*
X84201190Y-56718819D01*
X84201190Y-56718819D02*
X84105952Y-56766438D01*
X84105952Y-56766438D02*
X84058333Y-56814057D01*
X84058333Y-56814057D02*
X84010714Y-56909295D01*
X84010714Y-56909295D02*
X83963095Y-57099771D01*
X83963095Y-57099771D02*
X83963095Y-57337866D01*
X83963095Y-57337866D02*
X84010714Y-57528342D01*
X84010714Y-57528342D02*
X84058333Y-57623580D01*
X84058333Y-57623580D02*
X84105952Y-57671200D01*
X84105952Y-57671200D02*
X84201190Y-57718819D01*
X84201190Y-57718819D02*
X84296428Y-57718819D01*
X84296428Y-57718819D02*
X84391666Y-57671200D01*
X84391666Y-57671200D02*
X84439285Y-57623580D01*
X84439285Y-57623580D02*
X84486904Y-57528342D01*
X84486904Y-57528342D02*
X84534523Y-57337866D01*
X84534523Y-57337866D02*
X84534523Y-57099771D01*
X84534523Y-57099771D02*
X84486904Y-56909295D01*
X84486904Y-56909295D02*
X84439285Y-56814057D01*
X84439285Y-56814057D02*
X84391666Y-56766438D01*
X84391666Y-56766438D02*
X84296428Y-56718819D01*
X83582142Y-56814057D02*
X83534523Y-56766438D01*
X83534523Y-56766438D02*
X83439285Y-56718819D01*
X83439285Y-56718819D02*
X83201190Y-56718819D01*
X83201190Y-56718819D02*
X83105952Y-56766438D01*
X83105952Y-56766438D02*
X83058333Y-56814057D01*
X83058333Y-56814057D02*
X83010714Y-56909295D01*
X83010714Y-56909295D02*
X83010714Y-57004533D01*
X83010714Y-57004533D02*
X83058333Y-57147390D01*
X83058333Y-57147390D02*
X83629761Y-57718819D01*
X83629761Y-57718819D02*
X83010714Y-57718819D01*
D15*
X85755476Y-55039914D02*
X85785952Y-55024676D01*
X85785952Y-55024676D02*
X85816428Y-54994200D01*
X85816428Y-54994200D02*
X85862142Y-54948485D01*
X85862142Y-54948485D02*
X85892619Y-54933247D01*
X85892619Y-54933247D02*
X85923095Y-54933247D01*
X85907857Y-55009438D02*
X85938333Y-54994200D01*
X85938333Y-54994200D02*
X85968809Y-54963723D01*
X85968809Y-54963723D02*
X85984047Y-54902771D01*
X85984047Y-54902771D02*
X85984047Y-54796104D01*
X85984047Y-54796104D02*
X85968809Y-54735152D01*
X85968809Y-54735152D02*
X85938333Y-54704676D01*
X85938333Y-54704676D02*
X85907857Y-54689438D01*
X85907857Y-54689438D02*
X85846904Y-54689438D01*
X85846904Y-54689438D02*
X85816428Y-54704676D01*
X85816428Y-54704676D02*
X85785952Y-54735152D01*
X85785952Y-54735152D02*
X85770714Y-54796104D01*
X85770714Y-54796104D02*
X85770714Y-54902771D01*
X85770714Y-54902771D02*
X85785952Y-54963723D01*
X85785952Y-54963723D02*
X85816428Y-54994200D01*
X85816428Y-54994200D02*
X85846904Y-55009438D01*
X85846904Y-55009438D02*
X85907857Y-55009438D01*
X85496428Y-54796104D02*
X85496428Y-55009438D01*
X85572619Y-54674200D02*
X85648809Y-54902771D01*
X85648809Y-54902771D02*
X85450714Y-54902771D01*
D11*
X117721352Y-54889185D02*
X118388019Y-54889185D01*
X117340400Y-54651090D02*
X118054685Y-54412995D01*
X118054685Y-54412995D02*
X118054685Y-55032042D01*
X117388019Y-55317757D02*
X117388019Y-55984423D01*
X117388019Y-55984423D02*
X118388019Y-55555852D01*
X118388019Y-56365376D02*
X117388019Y-56365376D01*
X118388019Y-56936804D02*
X117816590Y-56508233D01*
X117388019Y-56936804D02*
X117959447Y-56365376D01*
D14*
X119810349Y-55353471D02*
X119572254Y-55186805D01*
X119810349Y-55067757D02*
X119310349Y-55067757D01*
X119310349Y-55067757D02*
X119310349Y-55258233D01*
X119310349Y-55258233D02*
X119334159Y-55305852D01*
X119334159Y-55305852D02*
X119357968Y-55329662D01*
X119357968Y-55329662D02*
X119405587Y-55353471D01*
X119405587Y-55353471D02*
X119477016Y-55353471D01*
X119477016Y-55353471D02*
X119524635Y-55329662D01*
X119524635Y-55329662D02*
X119548444Y-55305852D01*
X119548444Y-55305852D02*
X119572254Y-55258233D01*
X119572254Y-55258233D02*
X119572254Y-55067757D01*
X119310349Y-55520138D02*
X119310349Y-55829662D01*
X119310349Y-55829662D02*
X119500825Y-55662995D01*
X119500825Y-55662995D02*
X119500825Y-55734424D01*
X119500825Y-55734424D02*
X119524635Y-55782043D01*
X119524635Y-55782043D02*
X119548444Y-55805852D01*
X119548444Y-55805852D02*
X119596063Y-55829662D01*
X119596063Y-55829662D02*
X119715111Y-55829662D01*
X119715111Y-55829662D02*
X119762730Y-55805852D01*
X119762730Y-55805852D02*
X119786540Y-55782043D01*
X119786540Y-55782043D02*
X119810349Y-55734424D01*
X119810349Y-55734424D02*
X119810349Y-55591567D01*
X119810349Y-55591567D02*
X119786540Y-55543948D01*
X119786540Y-55543948D02*
X119762730Y-55520138D01*
X119810349Y-56305852D02*
X119810349Y-56020138D01*
X119810349Y-56162995D02*
X119310349Y-56162995D01*
X119310349Y-56162995D02*
X119381778Y-56115376D01*
X119381778Y-56115376D02*
X119429397Y-56067757D01*
X119429397Y-56067757D02*
X119453206Y-56020138D01*
D11*
X88439285Y-89161557D02*
X88391666Y-89113938D01*
X88391666Y-89113938D02*
X88296428Y-89066319D01*
X88296428Y-89066319D02*
X88058333Y-89066319D01*
X88058333Y-89066319D02*
X87963095Y-89113938D01*
X87963095Y-89113938D02*
X87915476Y-89161557D01*
X87915476Y-89161557D02*
X87867857Y-89256795D01*
X87867857Y-89256795D02*
X87867857Y-89352033D01*
X87867857Y-89352033D02*
X87915476Y-89494890D01*
X87915476Y-89494890D02*
X88486904Y-90066319D01*
X88486904Y-90066319D02*
X87867857Y-90066319D01*
X87439285Y-90066319D02*
X87439285Y-89066319D01*
X87439285Y-89066319D02*
X86867857Y-90066319D01*
X86867857Y-90066319D02*
X86867857Y-89066319D01*
X86486904Y-89066319D02*
X85820238Y-89066319D01*
X85820238Y-89066319D02*
X86248809Y-90066319D01*
X85248809Y-89066319D02*
X85153571Y-89066319D01*
X85153571Y-89066319D02*
X85058333Y-89113938D01*
X85058333Y-89113938D02*
X85010714Y-89161557D01*
X85010714Y-89161557D02*
X84963095Y-89256795D01*
X84963095Y-89256795D02*
X84915476Y-89447271D01*
X84915476Y-89447271D02*
X84915476Y-89685366D01*
X84915476Y-89685366D02*
X84963095Y-89875842D01*
X84963095Y-89875842D02*
X85010714Y-89971080D01*
X85010714Y-89971080D02*
X85058333Y-90018700D01*
X85058333Y-90018700D02*
X85153571Y-90066319D01*
X85153571Y-90066319D02*
X85248809Y-90066319D01*
X85248809Y-90066319D02*
X85344047Y-90018700D01*
X85344047Y-90018700D02*
X85391666Y-89971080D01*
X85391666Y-89971080D02*
X85439285Y-89875842D01*
X85439285Y-89875842D02*
X85486904Y-89685366D01*
X85486904Y-89685366D02*
X85486904Y-89447271D01*
X85486904Y-89447271D02*
X85439285Y-89256795D01*
X85439285Y-89256795D02*
X85391666Y-89161557D01*
X85391666Y-89161557D02*
X85344047Y-89113938D01*
X85344047Y-89113938D02*
X85248809Y-89066319D01*
X84296428Y-89066319D02*
X84201190Y-89066319D01*
X84201190Y-89066319D02*
X84105952Y-89113938D01*
X84105952Y-89113938D02*
X84058333Y-89161557D01*
X84058333Y-89161557D02*
X84010714Y-89256795D01*
X84010714Y-89256795D02*
X83963095Y-89447271D01*
X83963095Y-89447271D02*
X83963095Y-89685366D01*
X83963095Y-89685366D02*
X84010714Y-89875842D01*
X84010714Y-89875842D02*
X84058333Y-89971080D01*
X84058333Y-89971080D02*
X84105952Y-90018700D01*
X84105952Y-90018700D02*
X84201190Y-90066319D01*
X84201190Y-90066319D02*
X84296428Y-90066319D01*
X84296428Y-90066319D02*
X84391666Y-90018700D01*
X84391666Y-90018700D02*
X84439285Y-89971080D01*
X84439285Y-89971080D02*
X84486904Y-89875842D01*
X84486904Y-89875842D02*
X84534523Y-89685366D01*
X84534523Y-89685366D02*
X84534523Y-89447271D01*
X84534523Y-89447271D02*
X84486904Y-89256795D01*
X84486904Y-89256795D02*
X84439285Y-89161557D01*
X84439285Y-89161557D02*
X84391666Y-89113938D01*
X84391666Y-89113938D02*
X84296428Y-89066319D01*
X83582142Y-89161557D02*
X83534523Y-89113938D01*
X83534523Y-89113938D02*
X83439285Y-89066319D01*
X83439285Y-89066319D02*
X83201190Y-89066319D01*
X83201190Y-89066319D02*
X83105952Y-89113938D01*
X83105952Y-89113938D02*
X83058333Y-89161557D01*
X83058333Y-89161557D02*
X83010714Y-89256795D01*
X83010714Y-89256795D02*
X83010714Y-89352033D01*
X83010714Y-89352033D02*
X83058333Y-89494890D01*
X83058333Y-89494890D02*
X83629761Y-90066319D01*
X83629761Y-90066319D02*
X83010714Y-90066319D01*
D15*
X85755476Y-87387414D02*
X85785952Y-87372176D01*
X85785952Y-87372176D02*
X85816428Y-87341700D01*
X85816428Y-87341700D02*
X85862142Y-87295985D01*
X85862142Y-87295985D02*
X85892619Y-87280747D01*
X85892619Y-87280747D02*
X85923095Y-87280747D01*
X85907857Y-87356938D02*
X85938333Y-87341700D01*
X85938333Y-87341700D02*
X85968809Y-87311223D01*
X85968809Y-87311223D02*
X85984047Y-87250271D01*
X85984047Y-87250271D02*
X85984047Y-87143604D01*
X85984047Y-87143604D02*
X85968809Y-87082652D01*
X85968809Y-87082652D02*
X85938333Y-87052176D01*
X85938333Y-87052176D02*
X85907857Y-87036938D01*
X85907857Y-87036938D02*
X85846904Y-87036938D01*
X85846904Y-87036938D02*
X85816428Y-87052176D01*
X85816428Y-87052176D02*
X85785952Y-87082652D01*
X85785952Y-87082652D02*
X85770714Y-87143604D01*
X85770714Y-87143604D02*
X85770714Y-87250271D01*
X85770714Y-87250271D02*
X85785952Y-87311223D01*
X85785952Y-87311223D02*
X85816428Y-87341700D01*
X85816428Y-87341700D02*
X85846904Y-87356938D01*
X85846904Y-87356938D02*
X85907857Y-87356938D01*
X85648809Y-87067414D02*
X85633571Y-87052176D01*
X85633571Y-87052176D02*
X85603095Y-87036938D01*
X85603095Y-87036938D02*
X85526904Y-87036938D01*
X85526904Y-87036938D02*
X85496428Y-87052176D01*
X85496428Y-87052176D02*
X85481190Y-87067414D01*
X85481190Y-87067414D02*
X85465952Y-87097890D01*
X85465952Y-87097890D02*
X85465952Y-87128366D01*
X85465952Y-87128366D02*
X85481190Y-87174080D01*
X85481190Y-87174080D02*
X85664047Y-87356938D01*
X85664047Y-87356938D02*
X85465952Y-87356938D01*
D11*
X94713219Y-66975171D02*
X94713219Y-66403743D01*
X94713219Y-66689457D02*
X93713219Y-66689457D01*
X93713219Y-66689457D02*
X93856076Y-66594219D01*
X93856076Y-66594219D02*
X93951314Y-66498981D01*
X93951314Y-66498981D02*
X93998933Y-66403743D01*
X93713219Y-67594219D02*
X93713219Y-67689457D01*
X93713219Y-67689457D02*
X93760838Y-67784695D01*
X93760838Y-67784695D02*
X93808457Y-67832314D01*
X93808457Y-67832314D02*
X93903695Y-67879933D01*
X93903695Y-67879933D02*
X94094171Y-67927552D01*
X94094171Y-67927552D02*
X94332266Y-67927552D01*
X94332266Y-67927552D02*
X94522742Y-67879933D01*
X94522742Y-67879933D02*
X94617980Y-67832314D01*
X94617980Y-67832314D02*
X94665600Y-67784695D01*
X94665600Y-67784695D02*
X94713219Y-67689457D01*
X94713219Y-67689457D02*
X94713219Y-67594219D01*
X94713219Y-67594219D02*
X94665600Y-67498981D01*
X94665600Y-67498981D02*
X94617980Y-67451362D01*
X94617980Y-67451362D02*
X94522742Y-67403743D01*
X94522742Y-67403743D02*
X94332266Y-67356124D01*
X94332266Y-67356124D02*
X94094171Y-67356124D01*
X94094171Y-67356124D02*
X93903695Y-67403743D01*
X93903695Y-67403743D02*
X93808457Y-67451362D01*
X93808457Y-67451362D02*
X93760838Y-67498981D01*
X93760838Y-67498981D02*
X93713219Y-67594219D01*
X93713219Y-68546600D02*
X93713219Y-68641838D01*
X93713219Y-68641838D02*
X93760838Y-68737076D01*
X93760838Y-68737076D02*
X93808457Y-68784695D01*
X93808457Y-68784695D02*
X93903695Y-68832314D01*
X93903695Y-68832314D02*
X94094171Y-68879933D01*
X94094171Y-68879933D02*
X94332266Y-68879933D01*
X94332266Y-68879933D02*
X94522742Y-68832314D01*
X94522742Y-68832314D02*
X94617980Y-68784695D01*
X94617980Y-68784695D02*
X94665600Y-68737076D01*
X94665600Y-68737076D02*
X94713219Y-68641838D01*
X94713219Y-68641838D02*
X94713219Y-68546600D01*
X94713219Y-68546600D02*
X94665600Y-68451362D01*
X94665600Y-68451362D02*
X94617980Y-68403743D01*
X94617980Y-68403743D02*
X94522742Y-68356124D01*
X94522742Y-68356124D02*
X94332266Y-68308505D01*
X94332266Y-68308505D02*
X94094171Y-68308505D01*
X94094171Y-68308505D02*
X93903695Y-68356124D01*
X93903695Y-68356124D02*
X93808457Y-68403743D01*
X93808457Y-68403743D02*
X93760838Y-68451362D01*
X93760838Y-68451362D02*
X93713219Y-68546600D01*
X94713219Y-69308505D02*
X93713219Y-69308505D01*
X94332266Y-69403743D02*
X94713219Y-69689457D01*
X94046552Y-69689457D02*
X94427504Y-69308505D01*
D14*
X92835549Y-67725171D02*
X92597454Y-67558505D01*
X92835549Y-67439457D02*
X92335549Y-67439457D01*
X92335549Y-67439457D02*
X92335549Y-67629933D01*
X92335549Y-67629933D02*
X92359359Y-67677552D01*
X92359359Y-67677552D02*
X92383168Y-67701362D01*
X92383168Y-67701362D02*
X92430787Y-67725171D01*
X92430787Y-67725171D02*
X92502216Y-67725171D01*
X92502216Y-67725171D02*
X92549835Y-67701362D01*
X92549835Y-67701362D02*
X92573644Y-67677552D01*
X92573644Y-67677552D02*
X92597454Y-67629933D01*
X92597454Y-67629933D02*
X92597454Y-67439457D01*
X92335549Y-68153743D02*
X92335549Y-68058505D01*
X92335549Y-68058505D02*
X92359359Y-68010886D01*
X92359359Y-68010886D02*
X92383168Y-67987076D01*
X92383168Y-67987076D02*
X92454597Y-67939457D01*
X92454597Y-67939457D02*
X92549835Y-67915648D01*
X92549835Y-67915648D02*
X92740311Y-67915648D01*
X92740311Y-67915648D02*
X92787930Y-67939457D01*
X92787930Y-67939457D02*
X92811740Y-67963267D01*
X92811740Y-67963267D02*
X92835549Y-68010886D01*
X92835549Y-68010886D02*
X92835549Y-68106124D01*
X92835549Y-68106124D02*
X92811740Y-68153743D01*
X92811740Y-68153743D02*
X92787930Y-68177552D01*
X92787930Y-68177552D02*
X92740311Y-68201362D01*
X92740311Y-68201362D02*
X92621263Y-68201362D01*
X92621263Y-68201362D02*
X92573644Y-68177552D01*
X92573644Y-68177552D02*
X92549835Y-68153743D01*
X92549835Y-68153743D02*
X92526025Y-68106124D01*
X92526025Y-68106124D02*
X92526025Y-68010886D01*
X92526025Y-68010886D02*
X92549835Y-67963267D01*
X92549835Y-67963267D02*
X92573644Y-67939457D01*
X92573644Y-67939457D02*
X92621263Y-67915648D01*
X92335549Y-68368028D02*
X92335549Y-68701361D01*
X92335549Y-68701361D02*
X92835549Y-68487076D01*
D11*
X113047219Y-54171143D02*
X113047219Y-54266381D01*
X113047219Y-54266381D02*
X113094838Y-54361619D01*
X113094838Y-54361619D02*
X113142457Y-54409238D01*
X113142457Y-54409238D02*
X113237695Y-54456857D01*
X113237695Y-54456857D02*
X113428171Y-54504476D01*
X113428171Y-54504476D02*
X113666266Y-54504476D01*
X113666266Y-54504476D02*
X113856742Y-54456857D01*
X113856742Y-54456857D02*
X113951980Y-54409238D01*
X113951980Y-54409238D02*
X113999600Y-54361619D01*
X113999600Y-54361619D02*
X114047219Y-54266381D01*
X114047219Y-54266381D02*
X114047219Y-54171143D01*
X114047219Y-54171143D02*
X113999600Y-54075905D01*
X113999600Y-54075905D02*
X113951980Y-54028286D01*
X113951980Y-54028286D02*
X113856742Y-53980667D01*
X113856742Y-53980667D02*
X113666266Y-53933048D01*
X113666266Y-53933048D02*
X113428171Y-53933048D01*
X113428171Y-53933048D02*
X113237695Y-53980667D01*
X113237695Y-53980667D02*
X113142457Y-54028286D01*
X113142457Y-54028286D02*
X113094838Y-54075905D01*
X113094838Y-54075905D02*
X113047219Y-54171143D01*
X113951980Y-54933048D02*
X113999600Y-54980667D01*
X113999600Y-54980667D02*
X114047219Y-54933048D01*
X114047219Y-54933048D02*
X113999600Y-54885429D01*
X113999600Y-54885429D02*
X113951980Y-54933048D01*
X113951980Y-54933048D02*
X114047219Y-54933048D01*
X114047219Y-55933047D02*
X114047219Y-55361619D01*
X114047219Y-55647333D02*
X113047219Y-55647333D01*
X113047219Y-55647333D02*
X113190076Y-55552095D01*
X113190076Y-55552095D02*
X113285314Y-55456857D01*
X113285314Y-55456857D02*
X113332933Y-55361619D01*
X113380552Y-56790190D02*
X114047219Y-56790190D01*
X113380552Y-56361619D02*
X113904361Y-56361619D01*
X113904361Y-56361619D02*
X113999600Y-56409238D01*
X113999600Y-56409238D02*
X114047219Y-56504476D01*
X114047219Y-56504476D02*
X114047219Y-56647333D01*
X114047219Y-56647333D02*
X113999600Y-56742571D01*
X113999600Y-56742571D02*
X113951980Y-56790190D01*
X113523409Y-57599714D02*
X113523409Y-57266381D01*
X114047219Y-57266381D02*
X113047219Y-57266381D01*
X113047219Y-57266381D02*
X113047219Y-57742571D01*
D14*
X112091930Y-55730666D02*
X112115740Y-55706857D01*
X112115740Y-55706857D02*
X112139549Y-55635428D01*
X112139549Y-55635428D02*
X112139549Y-55587809D01*
X112139549Y-55587809D02*
X112115740Y-55516381D01*
X112115740Y-55516381D02*
X112068120Y-55468762D01*
X112068120Y-55468762D02*
X112020501Y-55444952D01*
X112020501Y-55444952D02*
X111925263Y-55421143D01*
X111925263Y-55421143D02*
X111853835Y-55421143D01*
X111853835Y-55421143D02*
X111758597Y-55444952D01*
X111758597Y-55444952D02*
X111710978Y-55468762D01*
X111710978Y-55468762D02*
X111663359Y-55516381D01*
X111663359Y-55516381D02*
X111639549Y-55587809D01*
X111639549Y-55587809D02*
X111639549Y-55635428D01*
X111639549Y-55635428D02*
X111663359Y-55706857D01*
X111663359Y-55706857D02*
X111687168Y-55730666D01*
X111639549Y-55897333D02*
X111639549Y-56206857D01*
X111639549Y-56206857D02*
X111830025Y-56040190D01*
X111830025Y-56040190D02*
X111830025Y-56111619D01*
X111830025Y-56111619D02*
X111853835Y-56159238D01*
X111853835Y-56159238D02*
X111877644Y-56183047D01*
X111877644Y-56183047D02*
X111925263Y-56206857D01*
X111925263Y-56206857D02*
X112044311Y-56206857D01*
X112044311Y-56206857D02*
X112091930Y-56183047D01*
X112091930Y-56183047D02*
X112115740Y-56159238D01*
X112115740Y-56159238D02*
X112139549Y-56111619D01*
X112139549Y-56111619D02*
X112139549Y-55968762D01*
X112139549Y-55968762D02*
X112115740Y-55921143D01*
X112115740Y-55921143D02*
X112091930Y-55897333D01*
D11*
X121074152Y-68683285D02*
X121740819Y-68683285D01*
X120693200Y-68445190D02*
X121407485Y-68207095D01*
X121407485Y-68207095D02*
X121407485Y-68826142D01*
X120740819Y-69111857D02*
X120740819Y-69778523D01*
X120740819Y-69778523D02*
X121740819Y-69349952D01*
X121740819Y-70159476D02*
X120740819Y-70159476D01*
X121740819Y-70730904D02*
X121169390Y-70302333D01*
X120740819Y-70730904D02*
X121312247Y-70159476D01*
D14*
X123163149Y-69147571D02*
X122925054Y-68980905D01*
X123163149Y-68861857D02*
X122663149Y-68861857D01*
X122663149Y-68861857D02*
X122663149Y-69052333D01*
X122663149Y-69052333D02*
X122686959Y-69099952D01*
X122686959Y-69099952D02*
X122710768Y-69123762D01*
X122710768Y-69123762D02*
X122758387Y-69147571D01*
X122758387Y-69147571D02*
X122829816Y-69147571D01*
X122829816Y-69147571D02*
X122877435Y-69123762D01*
X122877435Y-69123762D02*
X122901244Y-69099952D01*
X122901244Y-69099952D02*
X122925054Y-69052333D01*
X122925054Y-69052333D02*
X122925054Y-68861857D01*
X122663149Y-69314238D02*
X122663149Y-69623762D01*
X122663149Y-69623762D02*
X122853625Y-69457095D01*
X122853625Y-69457095D02*
X122853625Y-69528524D01*
X122853625Y-69528524D02*
X122877435Y-69576143D01*
X122877435Y-69576143D02*
X122901244Y-69599952D01*
X122901244Y-69599952D02*
X122948863Y-69623762D01*
X122948863Y-69623762D02*
X123067911Y-69623762D01*
X123067911Y-69623762D02*
X123115530Y-69599952D01*
X123115530Y-69599952D02*
X123139340Y-69576143D01*
X123139340Y-69576143D02*
X123163149Y-69528524D01*
X123163149Y-69528524D02*
X123163149Y-69385667D01*
X123163149Y-69385667D02*
X123139340Y-69338048D01*
X123139340Y-69338048D02*
X123115530Y-69314238D01*
X123163149Y-69861857D02*
X123163149Y-69957095D01*
X123163149Y-69957095D02*
X123139340Y-70004714D01*
X123139340Y-70004714D02*
X123115530Y-70028523D01*
X123115530Y-70028523D02*
X123044101Y-70076142D01*
X123044101Y-70076142D02*
X122948863Y-70099952D01*
X122948863Y-70099952D02*
X122758387Y-70099952D01*
X122758387Y-70099952D02*
X122710768Y-70076142D01*
X122710768Y-70076142D02*
X122686959Y-70052333D01*
X122686959Y-70052333D02*
X122663149Y-70004714D01*
X122663149Y-70004714D02*
X122663149Y-69909476D01*
X122663149Y-69909476D02*
X122686959Y-69861857D01*
X122686959Y-69861857D02*
X122710768Y-69838047D01*
X122710768Y-69838047D02*
X122758387Y-69814238D01*
X122758387Y-69814238D02*
X122877435Y-69814238D01*
X122877435Y-69814238D02*
X122925054Y-69838047D01*
X122925054Y-69838047D02*
X122948863Y-69861857D01*
X122948863Y-69861857D02*
X122972673Y-69909476D01*
X122972673Y-69909476D02*
X122972673Y-70004714D01*
X122972673Y-70004714D02*
X122948863Y-70052333D01*
X122948863Y-70052333D02*
X122925054Y-70076142D01*
X122925054Y-70076142D02*
X122877435Y-70099952D01*
D11*
X99767819Y-67952952D02*
X99767819Y-67381524D01*
X99767819Y-67667238D02*
X98767819Y-67667238D01*
X98767819Y-67667238D02*
X98910676Y-67572000D01*
X98910676Y-67572000D02*
X99005914Y-67476762D01*
X99005914Y-67476762D02*
X99053533Y-67381524D01*
X99767819Y-68381524D02*
X98767819Y-68381524D01*
X99386866Y-68476762D02*
X99767819Y-68762476D01*
X99101152Y-68762476D02*
X99482104Y-68381524D01*
D14*
X97890149Y-67750571D02*
X97652054Y-67583905D01*
X97890149Y-67464857D02*
X97390149Y-67464857D01*
X97390149Y-67464857D02*
X97390149Y-67655333D01*
X97390149Y-67655333D02*
X97413959Y-67702952D01*
X97413959Y-67702952D02*
X97437768Y-67726762D01*
X97437768Y-67726762D02*
X97485387Y-67750571D01*
X97485387Y-67750571D02*
X97556816Y-67750571D01*
X97556816Y-67750571D02*
X97604435Y-67726762D01*
X97604435Y-67726762D02*
X97628244Y-67702952D01*
X97628244Y-67702952D02*
X97652054Y-67655333D01*
X97652054Y-67655333D02*
X97652054Y-67464857D01*
X97390149Y-68179143D02*
X97390149Y-68083905D01*
X97390149Y-68083905D02*
X97413959Y-68036286D01*
X97413959Y-68036286D02*
X97437768Y-68012476D01*
X97437768Y-68012476D02*
X97509197Y-67964857D01*
X97509197Y-67964857D02*
X97604435Y-67941048D01*
X97604435Y-67941048D02*
X97794911Y-67941048D01*
X97794911Y-67941048D02*
X97842530Y-67964857D01*
X97842530Y-67964857D02*
X97866340Y-67988667D01*
X97866340Y-67988667D02*
X97890149Y-68036286D01*
X97890149Y-68036286D02*
X97890149Y-68131524D01*
X97890149Y-68131524D02*
X97866340Y-68179143D01*
X97866340Y-68179143D02*
X97842530Y-68202952D01*
X97842530Y-68202952D02*
X97794911Y-68226762D01*
X97794911Y-68226762D02*
X97675863Y-68226762D01*
X97675863Y-68226762D02*
X97628244Y-68202952D01*
X97628244Y-68202952D02*
X97604435Y-68179143D01*
X97604435Y-68179143D02*
X97580625Y-68131524D01*
X97580625Y-68131524D02*
X97580625Y-68036286D01*
X97580625Y-68036286D02*
X97604435Y-67988667D01*
X97604435Y-67988667D02*
X97628244Y-67964857D01*
X97628244Y-67964857D02*
X97675863Y-67941048D01*
X97390149Y-68536285D02*
X97390149Y-68583904D01*
X97390149Y-68583904D02*
X97413959Y-68631523D01*
X97413959Y-68631523D02*
X97437768Y-68655333D01*
X97437768Y-68655333D02*
X97485387Y-68679142D01*
X97485387Y-68679142D02*
X97580625Y-68702952D01*
X97580625Y-68702952D02*
X97699673Y-68702952D01*
X97699673Y-68702952D02*
X97794911Y-68679142D01*
X97794911Y-68679142D02*
X97842530Y-68655333D01*
X97842530Y-68655333D02*
X97866340Y-68631523D01*
X97866340Y-68631523D02*
X97890149Y-68583904D01*
X97890149Y-68583904D02*
X97890149Y-68536285D01*
X97890149Y-68536285D02*
X97866340Y-68488666D01*
X97866340Y-68488666D02*
X97842530Y-68464857D01*
X97842530Y-68464857D02*
X97794911Y-68441047D01*
X97794911Y-68441047D02*
X97699673Y-68417238D01*
X97699673Y-68417238D02*
X97580625Y-68417238D01*
X97580625Y-68417238D02*
X97485387Y-68441047D01*
X97485387Y-68441047D02*
X97437768Y-68464857D01*
X97437768Y-68464857D02*
X97413959Y-68488666D01*
X97413959Y-68488666D02*
X97390149Y-68536285D01*
D11*
X99767819Y-73921952D02*
X99767819Y-73350524D01*
X99767819Y-73636238D02*
X98767819Y-73636238D01*
X98767819Y-73636238D02*
X98910676Y-73541000D01*
X98910676Y-73541000D02*
X99005914Y-73445762D01*
X99005914Y-73445762D02*
X99053533Y-73350524D01*
X99767819Y-74350524D02*
X98767819Y-74350524D01*
X99386866Y-74445762D02*
X99767819Y-74731476D01*
X99101152Y-74731476D02*
X99482104Y-74350524D01*
D14*
X97890149Y-73719571D02*
X97652054Y-73552905D01*
X97890149Y-73433857D02*
X97390149Y-73433857D01*
X97390149Y-73433857D02*
X97390149Y-73624333D01*
X97390149Y-73624333D02*
X97413959Y-73671952D01*
X97413959Y-73671952D02*
X97437768Y-73695762D01*
X97437768Y-73695762D02*
X97485387Y-73719571D01*
X97485387Y-73719571D02*
X97556816Y-73719571D01*
X97556816Y-73719571D02*
X97604435Y-73695762D01*
X97604435Y-73695762D02*
X97628244Y-73671952D01*
X97628244Y-73671952D02*
X97652054Y-73624333D01*
X97652054Y-73624333D02*
X97652054Y-73433857D01*
X97390149Y-74171952D02*
X97390149Y-73933857D01*
X97390149Y-73933857D02*
X97628244Y-73910048D01*
X97628244Y-73910048D02*
X97604435Y-73933857D01*
X97604435Y-73933857D02*
X97580625Y-73981476D01*
X97580625Y-73981476D02*
X97580625Y-74100524D01*
X97580625Y-74100524D02*
X97604435Y-74148143D01*
X97604435Y-74148143D02*
X97628244Y-74171952D01*
X97628244Y-74171952D02*
X97675863Y-74195762D01*
X97675863Y-74195762D02*
X97794911Y-74195762D01*
X97794911Y-74195762D02*
X97842530Y-74171952D01*
X97842530Y-74171952D02*
X97866340Y-74148143D01*
X97866340Y-74148143D02*
X97890149Y-74100524D01*
X97890149Y-74100524D02*
X97890149Y-73981476D01*
X97890149Y-73981476D02*
X97866340Y-73933857D01*
X97866340Y-73933857D02*
X97842530Y-73910048D01*
X97890149Y-74433857D02*
X97890149Y-74529095D01*
X97890149Y-74529095D02*
X97866340Y-74576714D01*
X97866340Y-74576714D02*
X97842530Y-74600523D01*
X97842530Y-74600523D02*
X97771101Y-74648142D01*
X97771101Y-74648142D02*
X97675863Y-74671952D01*
X97675863Y-74671952D02*
X97485387Y-74671952D01*
X97485387Y-74671952D02*
X97437768Y-74648142D01*
X97437768Y-74648142D02*
X97413959Y-74624333D01*
X97413959Y-74624333D02*
X97390149Y-74576714D01*
X97390149Y-74576714D02*
X97390149Y-74481476D01*
X97390149Y-74481476D02*
X97413959Y-74433857D01*
X97413959Y-74433857D02*
X97437768Y-74410047D01*
X97437768Y-74410047D02*
X97485387Y-74386238D01*
X97485387Y-74386238D02*
X97604435Y-74386238D01*
X97604435Y-74386238D02*
X97652054Y-74410047D01*
X97652054Y-74410047D02*
X97675863Y-74433857D01*
X97675863Y-74433857D02*
X97699673Y-74481476D01*
X97699673Y-74481476D02*
X97699673Y-74576714D01*
X97699673Y-74576714D02*
X97675863Y-74624333D01*
X97675863Y-74624333D02*
X97652054Y-74648142D01*
X97652054Y-74648142D02*
X97604435Y-74671952D01*
D11*
X127422152Y-90245985D02*
X128088819Y-90245985D01*
X127041200Y-90007890D02*
X127755485Y-89769795D01*
X127755485Y-89769795D02*
X127755485Y-90388842D01*
X127088819Y-90674557D02*
X127088819Y-91341223D01*
X127088819Y-91341223D02*
X128088819Y-90912652D01*
X128088819Y-91722176D02*
X127088819Y-91722176D01*
X128088819Y-92293604D02*
X127517390Y-91865033D01*
X127088819Y-92293604D02*
X127660247Y-91722176D01*
D14*
X126211149Y-90710271D02*
X125973054Y-90543605D01*
X126211149Y-90424557D02*
X125711149Y-90424557D01*
X125711149Y-90424557D02*
X125711149Y-90615033D01*
X125711149Y-90615033D02*
X125734959Y-90662652D01*
X125734959Y-90662652D02*
X125758768Y-90686462D01*
X125758768Y-90686462D02*
X125806387Y-90710271D01*
X125806387Y-90710271D02*
X125877816Y-90710271D01*
X125877816Y-90710271D02*
X125925435Y-90686462D01*
X125925435Y-90686462D02*
X125949244Y-90662652D01*
X125949244Y-90662652D02*
X125973054Y-90615033D01*
X125973054Y-90615033D02*
X125973054Y-90424557D01*
X125877816Y-91138843D02*
X126211149Y-91138843D01*
X125687340Y-91019795D02*
X126044482Y-90900748D01*
X126044482Y-90900748D02*
X126044482Y-91210271D01*
X126211149Y-91662652D02*
X126211149Y-91376938D01*
X126211149Y-91519795D02*
X125711149Y-91519795D01*
X125711149Y-91519795D02*
X125782578Y-91472176D01*
X125782578Y-91472176D02*
X125830197Y-91424557D01*
X125830197Y-91424557D02*
X125854006Y-91376938D01*
D11*
X94687819Y-86074071D02*
X94687819Y-85502643D01*
X94687819Y-85788357D02*
X93687819Y-85788357D01*
X93687819Y-85788357D02*
X93830676Y-85693119D01*
X93830676Y-85693119D02*
X93925914Y-85597881D01*
X93925914Y-85597881D02*
X93973533Y-85502643D01*
X93687819Y-86693119D02*
X93687819Y-86788357D01*
X93687819Y-86788357D02*
X93735438Y-86883595D01*
X93735438Y-86883595D02*
X93783057Y-86931214D01*
X93783057Y-86931214D02*
X93878295Y-86978833D01*
X93878295Y-86978833D02*
X94068771Y-87026452D01*
X94068771Y-87026452D02*
X94306866Y-87026452D01*
X94306866Y-87026452D02*
X94497342Y-86978833D01*
X94497342Y-86978833D02*
X94592580Y-86931214D01*
X94592580Y-86931214D02*
X94640200Y-86883595D01*
X94640200Y-86883595D02*
X94687819Y-86788357D01*
X94687819Y-86788357D02*
X94687819Y-86693119D01*
X94687819Y-86693119D02*
X94640200Y-86597881D01*
X94640200Y-86597881D02*
X94592580Y-86550262D01*
X94592580Y-86550262D02*
X94497342Y-86502643D01*
X94497342Y-86502643D02*
X94306866Y-86455024D01*
X94306866Y-86455024D02*
X94068771Y-86455024D01*
X94068771Y-86455024D02*
X93878295Y-86502643D01*
X93878295Y-86502643D02*
X93783057Y-86550262D01*
X93783057Y-86550262D02*
X93735438Y-86597881D01*
X93735438Y-86597881D02*
X93687819Y-86693119D01*
X93687819Y-87645500D02*
X93687819Y-87740738D01*
X93687819Y-87740738D02*
X93735438Y-87835976D01*
X93735438Y-87835976D02*
X93783057Y-87883595D01*
X93783057Y-87883595D02*
X93878295Y-87931214D01*
X93878295Y-87931214D02*
X94068771Y-87978833D01*
X94068771Y-87978833D02*
X94306866Y-87978833D01*
X94306866Y-87978833D02*
X94497342Y-87931214D01*
X94497342Y-87931214D02*
X94592580Y-87883595D01*
X94592580Y-87883595D02*
X94640200Y-87835976D01*
X94640200Y-87835976D02*
X94687819Y-87740738D01*
X94687819Y-87740738D02*
X94687819Y-87645500D01*
X94687819Y-87645500D02*
X94640200Y-87550262D01*
X94640200Y-87550262D02*
X94592580Y-87502643D01*
X94592580Y-87502643D02*
X94497342Y-87455024D01*
X94497342Y-87455024D02*
X94306866Y-87407405D01*
X94306866Y-87407405D02*
X94068771Y-87407405D01*
X94068771Y-87407405D02*
X93878295Y-87455024D01*
X93878295Y-87455024D02*
X93783057Y-87502643D01*
X93783057Y-87502643D02*
X93735438Y-87550262D01*
X93735438Y-87550262D02*
X93687819Y-87645500D01*
X94687819Y-88407405D02*
X93687819Y-88407405D01*
X94306866Y-88502643D02*
X94687819Y-88788357D01*
X94021152Y-88788357D02*
X94402104Y-88407405D01*
D14*
X92810149Y-86824071D02*
X92572054Y-86657405D01*
X92810149Y-86538357D02*
X92310149Y-86538357D01*
X92310149Y-86538357D02*
X92310149Y-86728833D01*
X92310149Y-86728833D02*
X92333959Y-86776452D01*
X92333959Y-86776452D02*
X92357768Y-86800262D01*
X92357768Y-86800262D02*
X92405387Y-86824071D01*
X92405387Y-86824071D02*
X92476816Y-86824071D01*
X92476816Y-86824071D02*
X92524435Y-86800262D01*
X92524435Y-86800262D02*
X92548244Y-86776452D01*
X92548244Y-86776452D02*
X92572054Y-86728833D01*
X92572054Y-86728833D02*
X92572054Y-86538357D01*
X92310149Y-87252643D02*
X92310149Y-87157405D01*
X92310149Y-87157405D02*
X92333959Y-87109786D01*
X92333959Y-87109786D02*
X92357768Y-87085976D01*
X92357768Y-87085976D02*
X92429197Y-87038357D01*
X92429197Y-87038357D02*
X92524435Y-87014548D01*
X92524435Y-87014548D02*
X92714911Y-87014548D01*
X92714911Y-87014548D02*
X92762530Y-87038357D01*
X92762530Y-87038357D02*
X92786340Y-87062167D01*
X92786340Y-87062167D02*
X92810149Y-87109786D01*
X92810149Y-87109786D02*
X92810149Y-87205024D01*
X92810149Y-87205024D02*
X92786340Y-87252643D01*
X92786340Y-87252643D02*
X92762530Y-87276452D01*
X92762530Y-87276452D02*
X92714911Y-87300262D01*
X92714911Y-87300262D02*
X92595863Y-87300262D01*
X92595863Y-87300262D02*
X92548244Y-87276452D01*
X92548244Y-87276452D02*
X92524435Y-87252643D01*
X92524435Y-87252643D02*
X92500625Y-87205024D01*
X92500625Y-87205024D02*
X92500625Y-87109786D01*
X92500625Y-87109786D02*
X92524435Y-87062167D01*
X92524435Y-87062167D02*
X92548244Y-87038357D01*
X92548244Y-87038357D02*
X92595863Y-87014548D01*
X92810149Y-87538357D02*
X92810149Y-87633595D01*
X92810149Y-87633595D02*
X92786340Y-87681214D01*
X92786340Y-87681214D02*
X92762530Y-87705023D01*
X92762530Y-87705023D02*
X92691101Y-87752642D01*
X92691101Y-87752642D02*
X92595863Y-87776452D01*
X92595863Y-87776452D02*
X92405387Y-87776452D01*
X92405387Y-87776452D02*
X92357768Y-87752642D01*
X92357768Y-87752642D02*
X92333959Y-87728833D01*
X92333959Y-87728833D02*
X92310149Y-87681214D01*
X92310149Y-87681214D02*
X92310149Y-87585976D01*
X92310149Y-87585976D02*
X92333959Y-87538357D01*
X92333959Y-87538357D02*
X92357768Y-87514547D01*
X92357768Y-87514547D02*
X92405387Y-87490738D01*
X92405387Y-87490738D02*
X92524435Y-87490738D01*
X92524435Y-87490738D02*
X92572054Y-87514547D01*
X92572054Y-87514547D02*
X92595863Y-87538357D01*
X92595863Y-87538357D02*
X92619673Y-87585976D01*
X92619673Y-87585976D02*
X92619673Y-87681214D01*
X92619673Y-87681214D02*
X92595863Y-87728833D01*
X92595863Y-87728833D02*
X92572054Y-87752642D01*
X92572054Y-87752642D02*
X92524435Y-87776452D01*
D11*
X118245119Y-68492809D02*
X118245119Y-68016619D01*
X118245119Y-68016619D02*
X118721309Y-67969000D01*
X118721309Y-67969000D02*
X118673690Y-68016619D01*
X118673690Y-68016619D02*
X118626071Y-68111857D01*
X118626071Y-68111857D02*
X118626071Y-68349952D01*
X118626071Y-68349952D02*
X118673690Y-68445190D01*
X118673690Y-68445190D02*
X118721309Y-68492809D01*
X118721309Y-68492809D02*
X118816547Y-68540428D01*
X118816547Y-68540428D02*
X119054642Y-68540428D01*
X119054642Y-68540428D02*
X119149880Y-68492809D01*
X119149880Y-68492809D02*
X119197500Y-68445190D01*
X119197500Y-68445190D02*
X119245119Y-68349952D01*
X119245119Y-68349952D02*
X119245119Y-68111857D01*
X119245119Y-68111857D02*
X119197500Y-68016619D01*
X119197500Y-68016619D02*
X119149880Y-67969000D01*
X119149880Y-68969000D02*
X119197500Y-69016619D01*
X119197500Y-69016619D02*
X119245119Y-68969000D01*
X119245119Y-68969000D02*
X119197500Y-68921381D01*
X119197500Y-68921381D02*
X119149880Y-68969000D01*
X119149880Y-68969000D02*
X119245119Y-68969000D01*
X119245119Y-69968999D02*
X119245119Y-69397571D01*
X119245119Y-69683285D02*
X118245119Y-69683285D01*
X118245119Y-69683285D02*
X118387976Y-69588047D01*
X118387976Y-69588047D02*
X118483214Y-69492809D01*
X118483214Y-69492809D02*
X118530833Y-69397571D01*
X119245119Y-70397571D02*
X118245119Y-70397571D01*
X119245119Y-70968999D02*
X118673690Y-70540428D01*
X118245119Y-70968999D02*
X118816547Y-70397571D01*
D14*
X117367449Y-69147571D02*
X117129354Y-68980905D01*
X117367449Y-68861857D02*
X116867449Y-68861857D01*
X116867449Y-68861857D02*
X116867449Y-69052333D01*
X116867449Y-69052333D02*
X116891259Y-69099952D01*
X116891259Y-69099952D02*
X116915068Y-69123762D01*
X116915068Y-69123762D02*
X116962687Y-69147571D01*
X116962687Y-69147571D02*
X117034116Y-69147571D01*
X117034116Y-69147571D02*
X117081735Y-69123762D01*
X117081735Y-69123762D02*
X117105544Y-69099952D01*
X117105544Y-69099952D02*
X117129354Y-69052333D01*
X117129354Y-69052333D02*
X117129354Y-68861857D01*
X116867449Y-69314238D02*
X116867449Y-69623762D01*
X116867449Y-69623762D02*
X117057925Y-69457095D01*
X117057925Y-69457095D02*
X117057925Y-69528524D01*
X117057925Y-69528524D02*
X117081735Y-69576143D01*
X117081735Y-69576143D02*
X117105544Y-69599952D01*
X117105544Y-69599952D02*
X117153163Y-69623762D01*
X117153163Y-69623762D02*
X117272211Y-69623762D01*
X117272211Y-69623762D02*
X117319830Y-69599952D01*
X117319830Y-69599952D02*
X117343640Y-69576143D01*
X117343640Y-69576143D02*
X117367449Y-69528524D01*
X117367449Y-69528524D02*
X117367449Y-69385667D01*
X117367449Y-69385667D02*
X117343640Y-69338048D01*
X117343640Y-69338048D02*
X117319830Y-69314238D01*
X116867449Y-70076142D02*
X116867449Y-69838047D01*
X116867449Y-69838047D02*
X117105544Y-69814238D01*
X117105544Y-69814238D02*
X117081735Y-69838047D01*
X117081735Y-69838047D02*
X117057925Y-69885666D01*
X117057925Y-69885666D02*
X117057925Y-70004714D01*
X117057925Y-70004714D02*
X117081735Y-70052333D01*
X117081735Y-70052333D02*
X117105544Y-70076142D01*
X117105544Y-70076142D02*
X117153163Y-70099952D01*
X117153163Y-70099952D02*
X117272211Y-70099952D01*
X117272211Y-70099952D02*
X117319830Y-70076142D01*
X117319830Y-70076142D02*
X117343640Y-70052333D01*
X117343640Y-70052333D02*
X117367449Y-70004714D01*
X117367449Y-70004714D02*
X117367449Y-69885666D01*
X117367449Y-69885666D02*
X117343640Y-69838047D01*
X117343640Y-69838047D02*
X117319830Y-69814238D01*
D11*
X132140819Y-67349952D02*
X132140819Y-67445190D01*
X132140819Y-67445190D02*
X132188438Y-67540428D01*
X132188438Y-67540428D02*
X132236057Y-67588047D01*
X132236057Y-67588047D02*
X132331295Y-67635666D01*
X132331295Y-67635666D02*
X132521771Y-67683285D01*
X132521771Y-67683285D02*
X132759866Y-67683285D01*
X132759866Y-67683285D02*
X132950342Y-67635666D01*
X132950342Y-67635666D02*
X133045580Y-67588047D01*
X133045580Y-67588047D02*
X133093200Y-67540428D01*
X133093200Y-67540428D02*
X133140819Y-67445190D01*
X133140819Y-67445190D02*
X133140819Y-67349952D01*
X133140819Y-67349952D02*
X133093200Y-67254714D01*
X133093200Y-67254714D02*
X133045580Y-67207095D01*
X133045580Y-67207095D02*
X132950342Y-67159476D01*
X132950342Y-67159476D02*
X132759866Y-67111857D01*
X132759866Y-67111857D02*
X132521771Y-67111857D01*
X132521771Y-67111857D02*
X132331295Y-67159476D01*
X132331295Y-67159476D02*
X132236057Y-67207095D01*
X132236057Y-67207095D02*
X132188438Y-67254714D01*
X132188438Y-67254714D02*
X132140819Y-67349952D01*
X133045580Y-68111857D02*
X133093200Y-68159476D01*
X133093200Y-68159476D02*
X133140819Y-68111857D01*
X133140819Y-68111857D02*
X133093200Y-68064238D01*
X133093200Y-68064238D02*
X133045580Y-68111857D01*
X133045580Y-68111857D02*
X133140819Y-68111857D01*
X132236057Y-68540428D02*
X132188438Y-68588047D01*
X132188438Y-68588047D02*
X132140819Y-68683285D01*
X132140819Y-68683285D02*
X132140819Y-68921380D01*
X132140819Y-68921380D02*
X132188438Y-69016618D01*
X132188438Y-69016618D02*
X132236057Y-69064237D01*
X132236057Y-69064237D02*
X132331295Y-69111856D01*
X132331295Y-69111856D02*
X132426533Y-69111856D01*
X132426533Y-69111856D02*
X132569390Y-69064237D01*
X132569390Y-69064237D02*
X133140819Y-68492809D01*
X133140819Y-68492809D02*
X133140819Y-69111856D01*
X132236057Y-69492809D02*
X132188438Y-69540428D01*
X132188438Y-69540428D02*
X132140819Y-69635666D01*
X132140819Y-69635666D02*
X132140819Y-69873761D01*
X132140819Y-69873761D02*
X132188438Y-69968999D01*
X132188438Y-69968999D02*
X132236057Y-70016618D01*
X132236057Y-70016618D02*
X132331295Y-70064237D01*
X132331295Y-70064237D02*
X132426533Y-70064237D01*
X132426533Y-70064237D02*
X132569390Y-70016618D01*
X132569390Y-70016618D02*
X133140819Y-69445190D01*
X133140819Y-69445190D02*
X133140819Y-70064237D01*
X132474152Y-70921380D02*
X133140819Y-70921380D01*
X132474152Y-70492809D02*
X132997961Y-70492809D01*
X132997961Y-70492809D02*
X133093200Y-70540428D01*
X133093200Y-70540428D02*
X133140819Y-70635666D01*
X133140819Y-70635666D02*
X133140819Y-70778523D01*
X133140819Y-70778523D02*
X133093200Y-70873761D01*
X133093200Y-70873761D02*
X133045580Y-70921380D01*
X132617009Y-71730904D02*
X132617009Y-71397571D01*
X133140819Y-71397571D02*
X132140819Y-71397571D01*
X132140819Y-71397571D02*
X132140819Y-71873761D01*
D14*
X134545530Y-69147571D02*
X134569340Y-69123762D01*
X134569340Y-69123762D02*
X134593149Y-69052333D01*
X134593149Y-69052333D02*
X134593149Y-69004714D01*
X134593149Y-69004714D02*
X134569340Y-68933286D01*
X134569340Y-68933286D02*
X134521720Y-68885667D01*
X134521720Y-68885667D02*
X134474101Y-68861857D01*
X134474101Y-68861857D02*
X134378863Y-68838048D01*
X134378863Y-68838048D02*
X134307435Y-68838048D01*
X134307435Y-68838048D02*
X134212197Y-68861857D01*
X134212197Y-68861857D02*
X134164578Y-68885667D01*
X134164578Y-68885667D02*
X134116959Y-68933286D01*
X134116959Y-68933286D02*
X134093149Y-69004714D01*
X134093149Y-69004714D02*
X134093149Y-69052333D01*
X134093149Y-69052333D02*
X134116959Y-69123762D01*
X134116959Y-69123762D02*
X134140768Y-69147571D01*
X134593149Y-69623762D02*
X134593149Y-69338048D01*
X134593149Y-69480905D02*
X134093149Y-69480905D01*
X134093149Y-69480905D02*
X134164578Y-69433286D01*
X134164578Y-69433286D02*
X134212197Y-69385667D01*
X134212197Y-69385667D02*
X134236006Y-69338048D01*
X134093149Y-69790428D02*
X134093149Y-70099952D01*
X134093149Y-70099952D02*
X134283625Y-69933285D01*
X134283625Y-69933285D02*
X134283625Y-70004714D01*
X134283625Y-70004714D02*
X134307435Y-70052333D01*
X134307435Y-70052333D02*
X134331244Y-70076142D01*
X134331244Y-70076142D02*
X134378863Y-70099952D01*
X134378863Y-70099952D02*
X134497911Y-70099952D01*
X134497911Y-70099952D02*
X134545530Y-70076142D01*
X134545530Y-70076142D02*
X134569340Y-70052333D01*
X134569340Y-70052333D02*
X134593149Y-70004714D01*
X134593149Y-70004714D02*
X134593149Y-69861857D01*
X134593149Y-69861857D02*
X134569340Y-69814238D01*
X134569340Y-69814238D02*
X134545530Y-69790428D01*
D11*
X88439285Y-76372057D02*
X88391666Y-76324438D01*
X88391666Y-76324438D02*
X88296428Y-76276819D01*
X88296428Y-76276819D02*
X88058333Y-76276819D01*
X88058333Y-76276819D02*
X87963095Y-76324438D01*
X87963095Y-76324438D02*
X87915476Y-76372057D01*
X87915476Y-76372057D02*
X87867857Y-76467295D01*
X87867857Y-76467295D02*
X87867857Y-76562533D01*
X87867857Y-76562533D02*
X87915476Y-76705390D01*
X87915476Y-76705390D02*
X88486904Y-77276819D01*
X88486904Y-77276819D02*
X87867857Y-77276819D01*
X87439285Y-77276819D02*
X87439285Y-76276819D01*
X87439285Y-76276819D02*
X86867857Y-77276819D01*
X86867857Y-77276819D02*
X86867857Y-76276819D01*
X86486904Y-76276819D02*
X85820238Y-76276819D01*
X85820238Y-76276819D02*
X86248809Y-77276819D01*
X85248809Y-76276819D02*
X85153571Y-76276819D01*
X85153571Y-76276819D02*
X85058333Y-76324438D01*
X85058333Y-76324438D02*
X85010714Y-76372057D01*
X85010714Y-76372057D02*
X84963095Y-76467295D01*
X84963095Y-76467295D02*
X84915476Y-76657771D01*
X84915476Y-76657771D02*
X84915476Y-76895866D01*
X84915476Y-76895866D02*
X84963095Y-77086342D01*
X84963095Y-77086342D02*
X85010714Y-77181580D01*
X85010714Y-77181580D02*
X85058333Y-77229200D01*
X85058333Y-77229200D02*
X85153571Y-77276819D01*
X85153571Y-77276819D02*
X85248809Y-77276819D01*
X85248809Y-77276819D02*
X85344047Y-77229200D01*
X85344047Y-77229200D02*
X85391666Y-77181580D01*
X85391666Y-77181580D02*
X85439285Y-77086342D01*
X85439285Y-77086342D02*
X85486904Y-76895866D01*
X85486904Y-76895866D02*
X85486904Y-76657771D01*
X85486904Y-76657771D02*
X85439285Y-76467295D01*
X85439285Y-76467295D02*
X85391666Y-76372057D01*
X85391666Y-76372057D02*
X85344047Y-76324438D01*
X85344047Y-76324438D02*
X85248809Y-76276819D01*
X84296428Y-76276819D02*
X84201190Y-76276819D01*
X84201190Y-76276819D02*
X84105952Y-76324438D01*
X84105952Y-76324438D02*
X84058333Y-76372057D01*
X84058333Y-76372057D02*
X84010714Y-76467295D01*
X84010714Y-76467295D02*
X83963095Y-76657771D01*
X83963095Y-76657771D02*
X83963095Y-76895866D01*
X83963095Y-76895866D02*
X84010714Y-77086342D01*
X84010714Y-77086342D02*
X84058333Y-77181580D01*
X84058333Y-77181580D02*
X84105952Y-77229200D01*
X84105952Y-77229200D02*
X84201190Y-77276819D01*
X84201190Y-77276819D02*
X84296428Y-77276819D01*
X84296428Y-77276819D02*
X84391666Y-77229200D01*
X84391666Y-77229200D02*
X84439285Y-77181580D01*
X84439285Y-77181580D02*
X84486904Y-77086342D01*
X84486904Y-77086342D02*
X84534523Y-76895866D01*
X84534523Y-76895866D02*
X84534523Y-76657771D01*
X84534523Y-76657771D02*
X84486904Y-76467295D01*
X84486904Y-76467295D02*
X84439285Y-76372057D01*
X84439285Y-76372057D02*
X84391666Y-76324438D01*
X84391666Y-76324438D02*
X84296428Y-76276819D01*
X83582142Y-76372057D02*
X83534523Y-76324438D01*
X83534523Y-76324438D02*
X83439285Y-76276819D01*
X83439285Y-76276819D02*
X83201190Y-76276819D01*
X83201190Y-76276819D02*
X83105952Y-76324438D01*
X83105952Y-76324438D02*
X83058333Y-76372057D01*
X83058333Y-76372057D02*
X83010714Y-76467295D01*
X83010714Y-76467295D02*
X83010714Y-76562533D01*
X83010714Y-76562533D02*
X83058333Y-76705390D01*
X83058333Y-76705390D02*
X83629761Y-77276819D01*
X83629761Y-77276819D02*
X83010714Y-77276819D01*
D15*
X85755476Y-74597914D02*
X85785952Y-74582676D01*
X85785952Y-74582676D02*
X85816428Y-74552200D01*
X85816428Y-74552200D02*
X85862142Y-74506485D01*
X85862142Y-74506485D02*
X85892619Y-74491247D01*
X85892619Y-74491247D02*
X85923095Y-74491247D01*
X85907857Y-74567438D02*
X85938333Y-74552200D01*
X85938333Y-74552200D02*
X85968809Y-74521723D01*
X85968809Y-74521723D02*
X85984047Y-74460771D01*
X85984047Y-74460771D02*
X85984047Y-74354104D01*
X85984047Y-74354104D02*
X85968809Y-74293152D01*
X85968809Y-74293152D02*
X85938333Y-74262676D01*
X85938333Y-74262676D02*
X85907857Y-74247438D01*
X85907857Y-74247438D02*
X85846904Y-74247438D01*
X85846904Y-74247438D02*
X85816428Y-74262676D01*
X85816428Y-74262676D02*
X85785952Y-74293152D01*
X85785952Y-74293152D02*
X85770714Y-74354104D01*
X85770714Y-74354104D02*
X85770714Y-74460771D01*
X85770714Y-74460771D02*
X85785952Y-74521723D01*
X85785952Y-74521723D02*
X85816428Y-74552200D01*
X85816428Y-74552200D02*
X85846904Y-74567438D01*
X85846904Y-74567438D02*
X85907857Y-74567438D01*
X85664047Y-74247438D02*
X85465952Y-74247438D01*
X85465952Y-74247438D02*
X85572619Y-74369342D01*
X85572619Y-74369342D02*
X85526904Y-74369342D01*
X85526904Y-74369342D02*
X85496428Y-74384580D01*
X85496428Y-74384580D02*
X85481190Y-74399819D01*
X85481190Y-74399819D02*
X85465952Y-74430295D01*
X85465952Y-74430295D02*
X85465952Y-74506485D01*
X85465952Y-74506485D02*
X85481190Y-74536961D01*
X85481190Y-74536961D02*
X85496428Y-74552200D01*
X85496428Y-74552200D02*
X85526904Y-74567438D01*
X85526904Y-74567438D02*
X85618333Y-74567438D01*
X85618333Y-74567438D02*
X85648809Y-74552200D01*
X85648809Y-74552200D02*
X85664047Y-74536961D01*
D11*
X133272419Y-54508233D02*
X133272419Y-53936805D01*
X133272419Y-54222519D02*
X132272419Y-54222519D01*
X132272419Y-54222519D02*
X132415276Y-54127281D01*
X132415276Y-54127281D02*
X132510514Y-54032043D01*
X132510514Y-54032043D02*
X132558133Y-53936805D01*
X132272419Y-55127281D02*
X132272419Y-55222519D01*
X132272419Y-55222519D02*
X132320038Y-55317757D01*
X132320038Y-55317757D02*
X132367657Y-55365376D01*
X132367657Y-55365376D02*
X132462895Y-55412995D01*
X132462895Y-55412995D02*
X132653371Y-55460614D01*
X132653371Y-55460614D02*
X132891466Y-55460614D01*
X132891466Y-55460614D02*
X133081942Y-55412995D01*
X133081942Y-55412995D02*
X133177180Y-55365376D01*
X133177180Y-55365376D02*
X133224800Y-55317757D01*
X133224800Y-55317757D02*
X133272419Y-55222519D01*
X133272419Y-55222519D02*
X133272419Y-55127281D01*
X133272419Y-55127281D02*
X133224800Y-55032043D01*
X133224800Y-55032043D02*
X133177180Y-54984424D01*
X133177180Y-54984424D02*
X133081942Y-54936805D01*
X133081942Y-54936805D02*
X132891466Y-54889186D01*
X132891466Y-54889186D02*
X132653371Y-54889186D01*
X132653371Y-54889186D02*
X132462895Y-54936805D01*
X132462895Y-54936805D02*
X132367657Y-54984424D01*
X132367657Y-54984424D02*
X132320038Y-55032043D01*
X132320038Y-55032043D02*
X132272419Y-55127281D01*
X132272419Y-56079662D02*
X132272419Y-56174900D01*
X132272419Y-56174900D02*
X132320038Y-56270138D01*
X132320038Y-56270138D02*
X132367657Y-56317757D01*
X132367657Y-56317757D02*
X132462895Y-56365376D01*
X132462895Y-56365376D02*
X132653371Y-56412995D01*
X132653371Y-56412995D02*
X132891466Y-56412995D01*
X132891466Y-56412995D02*
X133081942Y-56365376D01*
X133081942Y-56365376D02*
X133177180Y-56317757D01*
X133177180Y-56317757D02*
X133224800Y-56270138D01*
X133224800Y-56270138D02*
X133272419Y-56174900D01*
X133272419Y-56174900D02*
X133272419Y-56079662D01*
X133272419Y-56079662D02*
X133224800Y-55984424D01*
X133224800Y-55984424D02*
X133177180Y-55936805D01*
X133177180Y-55936805D02*
X133081942Y-55889186D01*
X133081942Y-55889186D02*
X132891466Y-55841567D01*
X132891466Y-55841567D02*
X132653371Y-55841567D01*
X132653371Y-55841567D02*
X132462895Y-55889186D01*
X132462895Y-55889186D02*
X132367657Y-55936805D01*
X132367657Y-55936805D02*
X132320038Y-55984424D01*
X132320038Y-55984424D02*
X132272419Y-56079662D01*
X133272419Y-56841567D02*
X132272419Y-56841567D01*
X133272419Y-57412995D02*
X132700990Y-56984424D01*
X132272419Y-57412995D02*
X132843847Y-56841567D01*
D14*
X134694749Y-55353471D02*
X134456654Y-55186805D01*
X134694749Y-55067757D02*
X134194749Y-55067757D01*
X134194749Y-55067757D02*
X134194749Y-55258233D01*
X134194749Y-55258233D02*
X134218559Y-55305852D01*
X134218559Y-55305852D02*
X134242368Y-55329662D01*
X134242368Y-55329662D02*
X134289987Y-55353471D01*
X134289987Y-55353471D02*
X134361416Y-55353471D01*
X134361416Y-55353471D02*
X134409035Y-55329662D01*
X134409035Y-55329662D02*
X134432844Y-55305852D01*
X134432844Y-55305852D02*
X134456654Y-55258233D01*
X134456654Y-55258233D02*
X134456654Y-55067757D01*
X134361416Y-55782043D02*
X134694749Y-55782043D01*
X134170940Y-55662995D02*
X134528082Y-55543948D01*
X134528082Y-55543948D02*
X134528082Y-55853471D01*
X134409035Y-56115376D02*
X134385225Y-56067757D01*
X134385225Y-56067757D02*
X134361416Y-56043947D01*
X134361416Y-56043947D02*
X134313797Y-56020138D01*
X134313797Y-56020138D02*
X134289987Y-56020138D01*
X134289987Y-56020138D02*
X134242368Y-56043947D01*
X134242368Y-56043947D02*
X134218559Y-56067757D01*
X134218559Y-56067757D02*
X134194749Y-56115376D01*
X134194749Y-56115376D02*
X134194749Y-56210614D01*
X134194749Y-56210614D02*
X134218559Y-56258233D01*
X134218559Y-56258233D02*
X134242368Y-56282042D01*
X134242368Y-56282042D02*
X134289987Y-56305852D01*
X134289987Y-56305852D02*
X134313797Y-56305852D01*
X134313797Y-56305852D02*
X134361416Y-56282042D01*
X134361416Y-56282042D02*
X134385225Y-56258233D01*
X134385225Y-56258233D02*
X134409035Y-56210614D01*
X134409035Y-56210614D02*
X134409035Y-56115376D01*
X134409035Y-56115376D02*
X134432844Y-56067757D01*
X134432844Y-56067757D02*
X134456654Y-56043947D01*
X134456654Y-56043947D02*
X134504273Y-56020138D01*
X134504273Y-56020138D02*
X134599511Y-56020138D01*
X134599511Y-56020138D02*
X134647130Y-56043947D01*
X134647130Y-56043947D02*
X134670940Y-56067757D01*
X134670940Y-56067757D02*
X134694749Y-56115376D01*
X134694749Y-56115376D02*
X134694749Y-56210614D01*
X134694749Y-56210614D02*
X134670940Y-56258233D01*
X134670940Y-56258233D02*
X134647130Y-56282042D01*
X134647130Y-56282042D02*
X134599511Y-56305852D01*
X134599511Y-56305852D02*
X134504273Y-56305852D01*
X134504273Y-56305852D02*
X134456654Y-56282042D01*
X134456654Y-56282042D02*
X134432844Y-56258233D01*
X134432844Y-56258233D02*
X134409035Y-56210614D01*
D11*
X120616419Y-89000952D02*
X120616419Y-89096190D01*
X120616419Y-89096190D02*
X120664038Y-89191428D01*
X120664038Y-89191428D02*
X120711657Y-89239047D01*
X120711657Y-89239047D02*
X120806895Y-89286666D01*
X120806895Y-89286666D02*
X120997371Y-89334285D01*
X120997371Y-89334285D02*
X121235466Y-89334285D01*
X121235466Y-89334285D02*
X121425942Y-89286666D01*
X121425942Y-89286666D02*
X121521180Y-89239047D01*
X121521180Y-89239047D02*
X121568800Y-89191428D01*
X121568800Y-89191428D02*
X121616419Y-89096190D01*
X121616419Y-89096190D02*
X121616419Y-89000952D01*
X121616419Y-89000952D02*
X121568800Y-88905714D01*
X121568800Y-88905714D02*
X121521180Y-88858095D01*
X121521180Y-88858095D02*
X121425942Y-88810476D01*
X121425942Y-88810476D02*
X121235466Y-88762857D01*
X121235466Y-88762857D02*
X120997371Y-88762857D01*
X120997371Y-88762857D02*
X120806895Y-88810476D01*
X120806895Y-88810476D02*
X120711657Y-88858095D01*
X120711657Y-88858095D02*
X120664038Y-88905714D01*
X120664038Y-88905714D02*
X120616419Y-89000952D01*
X121521180Y-89762857D02*
X121568800Y-89810476D01*
X121568800Y-89810476D02*
X121616419Y-89762857D01*
X121616419Y-89762857D02*
X121568800Y-89715238D01*
X121568800Y-89715238D02*
X121521180Y-89762857D01*
X121521180Y-89762857D02*
X121616419Y-89762857D01*
X120711657Y-90191428D02*
X120664038Y-90239047D01*
X120664038Y-90239047D02*
X120616419Y-90334285D01*
X120616419Y-90334285D02*
X120616419Y-90572380D01*
X120616419Y-90572380D02*
X120664038Y-90667618D01*
X120664038Y-90667618D02*
X120711657Y-90715237D01*
X120711657Y-90715237D02*
X120806895Y-90762856D01*
X120806895Y-90762856D02*
X120902133Y-90762856D01*
X120902133Y-90762856D02*
X121044990Y-90715237D01*
X121044990Y-90715237D02*
X121616419Y-90143809D01*
X121616419Y-90143809D02*
X121616419Y-90762856D01*
X120711657Y-91143809D02*
X120664038Y-91191428D01*
X120664038Y-91191428D02*
X120616419Y-91286666D01*
X120616419Y-91286666D02*
X120616419Y-91524761D01*
X120616419Y-91524761D02*
X120664038Y-91619999D01*
X120664038Y-91619999D02*
X120711657Y-91667618D01*
X120711657Y-91667618D02*
X120806895Y-91715237D01*
X120806895Y-91715237D02*
X120902133Y-91715237D01*
X120902133Y-91715237D02*
X121044990Y-91667618D01*
X121044990Y-91667618D02*
X121616419Y-91096190D01*
X121616419Y-91096190D02*
X121616419Y-91715237D01*
X120949752Y-92572380D02*
X121616419Y-92572380D01*
X120949752Y-92143809D02*
X121473561Y-92143809D01*
X121473561Y-92143809D02*
X121568800Y-92191428D01*
X121568800Y-92191428D02*
X121616419Y-92286666D01*
X121616419Y-92286666D02*
X121616419Y-92429523D01*
X121616419Y-92429523D02*
X121568800Y-92524761D01*
X121568800Y-92524761D02*
X121521180Y-92572380D01*
X121092609Y-93381904D02*
X121092609Y-93048571D01*
X121616419Y-93048571D02*
X120616419Y-93048571D01*
X120616419Y-93048571D02*
X120616419Y-93524761D01*
D14*
X119661130Y-91036666D02*
X119684940Y-91012857D01*
X119684940Y-91012857D02*
X119708749Y-90941428D01*
X119708749Y-90941428D02*
X119708749Y-90893809D01*
X119708749Y-90893809D02*
X119684940Y-90822381D01*
X119684940Y-90822381D02*
X119637320Y-90774762D01*
X119637320Y-90774762D02*
X119589701Y-90750952D01*
X119589701Y-90750952D02*
X119494463Y-90727143D01*
X119494463Y-90727143D02*
X119423035Y-90727143D01*
X119423035Y-90727143D02*
X119327797Y-90750952D01*
X119327797Y-90750952D02*
X119280178Y-90774762D01*
X119280178Y-90774762D02*
X119232559Y-90822381D01*
X119232559Y-90822381D02*
X119208749Y-90893809D01*
X119208749Y-90893809D02*
X119208749Y-90941428D01*
X119208749Y-90941428D02*
X119232559Y-91012857D01*
X119232559Y-91012857D02*
X119256368Y-91036666D01*
X119256368Y-91227143D02*
X119232559Y-91250952D01*
X119232559Y-91250952D02*
X119208749Y-91298571D01*
X119208749Y-91298571D02*
X119208749Y-91417619D01*
X119208749Y-91417619D02*
X119232559Y-91465238D01*
X119232559Y-91465238D02*
X119256368Y-91489047D01*
X119256368Y-91489047D02*
X119303987Y-91512857D01*
X119303987Y-91512857D02*
X119351606Y-91512857D01*
X119351606Y-91512857D02*
X119423035Y-91489047D01*
X119423035Y-91489047D02*
X119708749Y-91203333D01*
X119708749Y-91203333D02*
X119708749Y-91512857D01*
D11*
X112954819Y-67953143D02*
X112954819Y-68048381D01*
X112954819Y-68048381D02*
X113002438Y-68143619D01*
X113002438Y-68143619D02*
X113050057Y-68191238D01*
X113050057Y-68191238D02*
X113145295Y-68238857D01*
X113145295Y-68238857D02*
X113335771Y-68286476D01*
X113335771Y-68286476D02*
X113573866Y-68286476D01*
X113573866Y-68286476D02*
X113764342Y-68238857D01*
X113764342Y-68238857D02*
X113859580Y-68191238D01*
X113859580Y-68191238D02*
X113907200Y-68143619D01*
X113907200Y-68143619D02*
X113954819Y-68048381D01*
X113954819Y-68048381D02*
X113954819Y-67953143D01*
X113954819Y-67953143D02*
X113907200Y-67857905D01*
X113907200Y-67857905D02*
X113859580Y-67810286D01*
X113859580Y-67810286D02*
X113764342Y-67762667D01*
X113764342Y-67762667D02*
X113573866Y-67715048D01*
X113573866Y-67715048D02*
X113335771Y-67715048D01*
X113335771Y-67715048D02*
X113145295Y-67762667D01*
X113145295Y-67762667D02*
X113050057Y-67810286D01*
X113050057Y-67810286D02*
X113002438Y-67857905D01*
X113002438Y-67857905D02*
X112954819Y-67953143D01*
X113859580Y-68715048D02*
X113907200Y-68762667D01*
X113907200Y-68762667D02*
X113954819Y-68715048D01*
X113954819Y-68715048D02*
X113907200Y-68667429D01*
X113907200Y-68667429D02*
X113859580Y-68715048D01*
X113859580Y-68715048D02*
X113954819Y-68715048D01*
X113954819Y-69715047D02*
X113954819Y-69143619D01*
X113954819Y-69429333D02*
X112954819Y-69429333D01*
X112954819Y-69429333D02*
X113097676Y-69334095D01*
X113097676Y-69334095D02*
X113192914Y-69238857D01*
X113192914Y-69238857D02*
X113240533Y-69143619D01*
X113288152Y-70572190D02*
X113954819Y-70572190D01*
X113288152Y-70143619D02*
X113811961Y-70143619D01*
X113811961Y-70143619D02*
X113907200Y-70191238D01*
X113907200Y-70191238D02*
X113954819Y-70286476D01*
X113954819Y-70286476D02*
X113954819Y-70429333D01*
X113954819Y-70429333D02*
X113907200Y-70524571D01*
X113907200Y-70524571D02*
X113859580Y-70572190D01*
X113431009Y-71381714D02*
X113431009Y-71048381D01*
X113954819Y-71048381D02*
X112954819Y-71048381D01*
X112954819Y-71048381D02*
X112954819Y-71524571D01*
D14*
X111999530Y-69274571D02*
X112023340Y-69250762D01*
X112023340Y-69250762D02*
X112047149Y-69179333D01*
X112047149Y-69179333D02*
X112047149Y-69131714D01*
X112047149Y-69131714D02*
X112023340Y-69060286D01*
X112023340Y-69060286D02*
X111975720Y-69012667D01*
X111975720Y-69012667D02*
X111928101Y-68988857D01*
X111928101Y-68988857D02*
X111832863Y-68965048D01*
X111832863Y-68965048D02*
X111761435Y-68965048D01*
X111761435Y-68965048D02*
X111666197Y-68988857D01*
X111666197Y-68988857D02*
X111618578Y-69012667D01*
X111618578Y-69012667D02*
X111570959Y-69060286D01*
X111570959Y-69060286D02*
X111547149Y-69131714D01*
X111547149Y-69131714D02*
X111547149Y-69179333D01*
X111547149Y-69179333D02*
X111570959Y-69250762D01*
X111570959Y-69250762D02*
X111594768Y-69274571D01*
X112047149Y-69750762D02*
X112047149Y-69465048D01*
X112047149Y-69607905D02*
X111547149Y-69607905D01*
X111547149Y-69607905D02*
X111618578Y-69560286D01*
X111618578Y-69560286D02*
X111666197Y-69512667D01*
X111666197Y-69512667D02*
X111690006Y-69465048D01*
X111547149Y-70060285D02*
X111547149Y-70107904D01*
X111547149Y-70107904D02*
X111570959Y-70155523D01*
X111570959Y-70155523D02*
X111594768Y-70179333D01*
X111594768Y-70179333D02*
X111642387Y-70203142D01*
X111642387Y-70203142D02*
X111737625Y-70226952D01*
X111737625Y-70226952D02*
X111856673Y-70226952D01*
X111856673Y-70226952D02*
X111951911Y-70203142D01*
X111951911Y-70203142D02*
X111999530Y-70179333D01*
X111999530Y-70179333D02*
X112023340Y-70155523D01*
X112023340Y-70155523D02*
X112047149Y-70107904D01*
X112047149Y-70107904D02*
X112047149Y-70060285D01*
X112047149Y-70060285D02*
X112023340Y-70012666D01*
X112023340Y-70012666D02*
X111999530Y-69988857D01*
X111999530Y-69988857D02*
X111951911Y-69965047D01*
X111951911Y-69965047D02*
X111856673Y-69941238D01*
X111856673Y-69941238D02*
X111737625Y-69941238D01*
X111737625Y-69941238D02*
X111642387Y-69965047D01*
X111642387Y-69965047D02*
X111594768Y-69988857D01*
X111594768Y-69988857D02*
X111570959Y-70012666D01*
X111570959Y-70012666D02*
X111547149Y-70060285D01*
D11*
X99767819Y-87026452D02*
X99767819Y-86455024D01*
X99767819Y-86740738D02*
X98767819Y-86740738D01*
X98767819Y-86740738D02*
X98910676Y-86645500D01*
X98910676Y-86645500D02*
X99005914Y-86550262D01*
X99005914Y-86550262D02*
X99053533Y-86455024D01*
X99767819Y-87455024D02*
X98767819Y-87455024D01*
X99386866Y-87550262D02*
X99767819Y-87835976D01*
X99101152Y-87835976D02*
X99482104Y-87455024D01*
D14*
X97890149Y-86824071D02*
X97652054Y-86657405D01*
X97890149Y-86538357D02*
X97390149Y-86538357D01*
X97390149Y-86538357D02*
X97390149Y-86728833D01*
X97390149Y-86728833D02*
X97413959Y-86776452D01*
X97413959Y-86776452D02*
X97437768Y-86800262D01*
X97437768Y-86800262D02*
X97485387Y-86824071D01*
X97485387Y-86824071D02*
X97556816Y-86824071D01*
X97556816Y-86824071D02*
X97604435Y-86800262D01*
X97604435Y-86800262D02*
X97628244Y-86776452D01*
X97628244Y-86776452D02*
X97652054Y-86728833D01*
X97652054Y-86728833D02*
X97652054Y-86538357D01*
X97390149Y-87252643D02*
X97390149Y-87157405D01*
X97390149Y-87157405D02*
X97413959Y-87109786D01*
X97413959Y-87109786D02*
X97437768Y-87085976D01*
X97437768Y-87085976D02*
X97509197Y-87038357D01*
X97509197Y-87038357D02*
X97604435Y-87014548D01*
X97604435Y-87014548D02*
X97794911Y-87014548D01*
X97794911Y-87014548D02*
X97842530Y-87038357D01*
X97842530Y-87038357D02*
X97866340Y-87062167D01*
X97866340Y-87062167D02*
X97890149Y-87109786D01*
X97890149Y-87109786D02*
X97890149Y-87205024D01*
X97890149Y-87205024D02*
X97866340Y-87252643D01*
X97866340Y-87252643D02*
X97842530Y-87276452D01*
X97842530Y-87276452D02*
X97794911Y-87300262D01*
X97794911Y-87300262D02*
X97675863Y-87300262D01*
X97675863Y-87300262D02*
X97628244Y-87276452D01*
X97628244Y-87276452D02*
X97604435Y-87252643D01*
X97604435Y-87252643D02*
X97580625Y-87205024D01*
X97580625Y-87205024D02*
X97580625Y-87109786D01*
X97580625Y-87109786D02*
X97604435Y-87062167D01*
X97604435Y-87062167D02*
X97628244Y-87038357D01*
X97628244Y-87038357D02*
X97675863Y-87014548D01*
X97604435Y-87585976D02*
X97580625Y-87538357D01*
X97580625Y-87538357D02*
X97556816Y-87514547D01*
X97556816Y-87514547D02*
X97509197Y-87490738D01*
X97509197Y-87490738D02*
X97485387Y-87490738D01*
X97485387Y-87490738D02*
X97437768Y-87514547D01*
X97437768Y-87514547D02*
X97413959Y-87538357D01*
X97413959Y-87538357D02*
X97390149Y-87585976D01*
X97390149Y-87585976D02*
X97390149Y-87681214D01*
X97390149Y-87681214D02*
X97413959Y-87728833D01*
X97413959Y-87728833D02*
X97437768Y-87752642D01*
X97437768Y-87752642D02*
X97485387Y-87776452D01*
X97485387Y-87776452D02*
X97509197Y-87776452D01*
X97509197Y-87776452D02*
X97556816Y-87752642D01*
X97556816Y-87752642D02*
X97580625Y-87728833D01*
X97580625Y-87728833D02*
X97604435Y-87681214D01*
X97604435Y-87681214D02*
X97604435Y-87585976D01*
X97604435Y-87585976D02*
X97628244Y-87538357D01*
X97628244Y-87538357D02*
X97652054Y-87514547D01*
X97652054Y-87514547D02*
X97699673Y-87490738D01*
X97699673Y-87490738D02*
X97794911Y-87490738D01*
X97794911Y-87490738D02*
X97842530Y-87514547D01*
X97842530Y-87514547D02*
X97866340Y-87538357D01*
X97866340Y-87538357D02*
X97890149Y-87585976D01*
X97890149Y-87585976D02*
X97890149Y-87681214D01*
X97890149Y-87681214D02*
X97866340Y-87728833D01*
X97866340Y-87728833D02*
X97842530Y-87752642D01*
X97842530Y-87752642D02*
X97794911Y-87776452D01*
X97794911Y-87776452D02*
X97699673Y-87776452D01*
X97699673Y-87776452D02*
X97652054Y-87752642D01*
X97652054Y-87752642D02*
X97628244Y-87728833D01*
X97628244Y-87728833D02*
X97604435Y-87681214D01*
D11*
X94687819Y-72969571D02*
X94687819Y-72398143D01*
X94687819Y-72683857D02*
X93687819Y-72683857D01*
X93687819Y-72683857D02*
X93830676Y-72588619D01*
X93830676Y-72588619D02*
X93925914Y-72493381D01*
X93925914Y-72493381D02*
X93973533Y-72398143D01*
X93687819Y-73588619D02*
X93687819Y-73683857D01*
X93687819Y-73683857D02*
X93735438Y-73779095D01*
X93735438Y-73779095D02*
X93783057Y-73826714D01*
X93783057Y-73826714D02*
X93878295Y-73874333D01*
X93878295Y-73874333D02*
X94068771Y-73921952D01*
X94068771Y-73921952D02*
X94306866Y-73921952D01*
X94306866Y-73921952D02*
X94497342Y-73874333D01*
X94497342Y-73874333D02*
X94592580Y-73826714D01*
X94592580Y-73826714D02*
X94640200Y-73779095D01*
X94640200Y-73779095D02*
X94687819Y-73683857D01*
X94687819Y-73683857D02*
X94687819Y-73588619D01*
X94687819Y-73588619D02*
X94640200Y-73493381D01*
X94640200Y-73493381D02*
X94592580Y-73445762D01*
X94592580Y-73445762D02*
X94497342Y-73398143D01*
X94497342Y-73398143D02*
X94306866Y-73350524D01*
X94306866Y-73350524D02*
X94068771Y-73350524D01*
X94068771Y-73350524D02*
X93878295Y-73398143D01*
X93878295Y-73398143D02*
X93783057Y-73445762D01*
X93783057Y-73445762D02*
X93735438Y-73493381D01*
X93735438Y-73493381D02*
X93687819Y-73588619D01*
X93687819Y-74541000D02*
X93687819Y-74636238D01*
X93687819Y-74636238D02*
X93735438Y-74731476D01*
X93735438Y-74731476D02*
X93783057Y-74779095D01*
X93783057Y-74779095D02*
X93878295Y-74826714D01*
X93878295Y-74826714D02*
X94068771Y-74874333D01*
X94068771Y-74874333D02*
X94306866Y-74874333D01*
X94306866Y-74874333D02*
X94497342Y-74826714D01*
X94497342Y-74826714D02*
X94592580Y-74779095D01*
X94592580Y-74779095D02*
X94640200Y-74731476D01*
X94640200Y-74731476D02*
X94687819Y-74636238D01*
X94687819Y-74636238D02*
X94687819Y-74541000D01*
X94687819Y-74541000D02*
X94640200Y-74445762D01*
X94640200Y-74445762D02*
X94592580Y-74398143D01*
X94592580Y-74398143D02*
X94497342Y-74350524D01*
X94497342Y-74350524D02*
X94306866Y-74302905D01*
X94306866Y-74302905D02*
X94068771Y-74302905D01*
X94068771Y-74302905D02*
X93878295Y-74350524D01*
X93878295Y-74350524D02*
X93783057Y-74398143D01*
X93783057Y-74398143D02*
X93735438Y-74445762D01*
X93735438Y-74445762D02*
X93687819Y-74541000D01*
X94687819Y-75302905D02*
X93687819Y-75302905D01*
X94306866Y-75398143D02*
X94687819Y-75683857D01*
X94021152Y-75683857D02*
X94402104Y-75302905D01*
D14*
X92810149Y-73719571D02*
X92572054Y-73552905D01*
X92810149Y-73433857D02*
X92310149Y-73433857D01*
X92310149Y-73433857D02*
X92310149Y-73624333D01*
X92310149Y-73624333D02*
X92333959Y-73671952D01*
X92333959Y-73671952D02*
X92357768Y-73695762D01*
X92357768Y-73695762D02*
X92405387Y-73719571D01*
X92405387Y-73719571D02*
X92476816Y-73719571D01*
X92476816Y-73719571D02*
X92524435Y-73695762D01*
X92524435Y-73695762D02*
X92548244Y-73671952D01*
X92548244Y-73671952D02*
X92572054Y-73624333D01*
X92572054Y-73624333D02*
X92572054Y-73433857D01*
X92310149Y-74148143D02*
X92310149Y-74052905D01*
X92310149Y-74052905D02*
X92333959Y-74005286D01*
X92333959Y-74005286D02*
X92357768Y-73981476D01*
X92357768Y-73981476D02*
X92429197Y-73933857D01*
X92429197Y-73933857D02*
X92524435Y-73910048D01*
X92524435Y-73910048D02*
X92714911Y-73910048D01*
X92714911Y-73910048D02*
X92762530Y-73933857D01*
X92762530Y-73933857D02*
X92786340Y-73957667D01*
X92786340Y-73957667D02*
X92810149Y-74005286D01*
X92810149Y-74005286D02*
X92810149Y-74100524D01*
X92810149Y-74100524D02*
X92786340Y-74148143D01*
X92786340Y-74148143D02*
X92762530Y-74171952D01*
X92762530Y-74171952D02*
X92714911Y-74195762D01*
X92714911Y-74195762D02*
X92595863Y-74195762D01*
X92595863Y-74195762D02*
X92548244Y-74171952D01*
X92548244Y-74171952D02*
X92524435Y-74148143D01*
X92524435Y-74148143D02*
X92500625Y-74100524D01*
X92500625Y-74100524D02*
X92500625Y-74005286D01*
X92500625Y-74005286D02*
X92524435Y-73957667D01*
X92524435Y-73957667D02*
X92548244Y-73933857D01*
X92548244Y-73933857D02*
X92595863Y-73910048D01*
X92810149Y-74671952D02*
X92810149Y-74386238D01*
X92810149Y-74529095D02*
X92310149Y-74529095D01*
X92310149Y-74529095D02*
X92381578Y-74481476D01*
X92381578Y-74481476D02*
X92429197Y-74433857D01*
X92429197Y-74433857D02*
X92453006Y-74386238D01*
D11*
X112954819Y-59698143D02*
X112954819Y-59793381D01*
X112954819Y-59793381D02*
X113002438Y-59888619D01*
X113002438Y-59888619D02*
X113050057Y-59936238D01*
X113050057Y-59936238D02*
X113145295Y-59983857D01*
X113145295Y-59983857D02*
X113335771Y-60031476D01*
X113335771Y-60031476D02*
X113573866Y-60031476D01*
X113573866Y-60031476D02*
X113764342Y-59983857D01*
X113764342Y-59983857D02*
X113859580Y-59936238D01*
X113859580Y-59936238D02*
X113907200Y-59888619D01*
X113907200Y-59888619D02*
X113954819Y-59793381D01*
X113954819Y-59793381D02*
X113954819Y-59698143D01*
X113954819Y-59698143D02*
X113907200Y-59602905D01*
X113907200Y-59602905D02*
X113859580Y-59555286D01*
X113859580Y-59555286D02*
X113764342Y-59507667D01*
X113764342Y-59507667D02*
X113573866Y-59460048D01*
X113573866Y-59460048D02*
X113335771Y-59460048D01*
X113335771Y-59460048D02*
X113145295Y-59507667D01*
X113145295Y-59507667D02*
X113050057Y-59555286D01*
X113050057Y-59555286D02*
X113002438Y-59602905D01*
X113002438Y-59602905D02*
X112954819Y-59698143D01*
X113859580Y-60460048D02*
X113907200Y-60507667D01*
X113907200Y-60507667D02*
X113954819Y-60460048D01*
X113954819Y-60460048D02*
X113907200Y-60412429D01*
X113907200Y-60412429D02*
X113859580Y-60460048D01*
X113859580Y-60460048D02*
X113954819Y-60460048D01*
X113954819Y-61460047D02*
X113954819Y-60888619D01*
X113954819Y-61174333D02*
X112954819Y-61174333D01*
X112954819Y-61174333D02*
X113097676Y-61079095D01*
X113097676Y-61079095D02*
X113192914Y-60983857D01*
X113192914Y-60983857D02*
X113240533Y-60888619D01*
X113288152Y-62317190D02*
X113954819Y-62317190D01*
X113288152Y-61888619D02*
X113811961Y-61888619D01*
X113811961Y-61888619D02*
X113907200Y-61936238D01*
X113907200Y-61936238D02*
X113954819Y-62031476D01*
X113954819Y-62031476D02*
X113954819Y-62174333D01*
X113954819Y-62174333D02*
X113907200Y-62269571D01*
X113907200Y-62269571D02*
X113859580Y-62317190D01*
X113431009Y-63126714D02*
X113431009Y-62793381D01*
X113954819Y-62793381D02*
X112954819Y-62793381D01*
X112954819Y-62793381D02*
X112954819Y-63269571D01*
D14*
X111999530Y-61019571D02*
X112023340Y-60995762D01*
X112023340Y-60995762D02*
X112047149Y-60924333D01*
X112047149Y-60924333D02*
X112047149Y-60876714D01*
X112047149Y-60876714D02*
X112023340Y-60805286D01*
X112023340Y-60805286D02*
X111975720Y-60757667D01*
X111975720Y-60757667D02*
X111928101Y-60733857D01*
X111928101Y-60733857D02*
X111832863Y-60710048D01*
X111832863Y-60710048D02*
X111761435Y-60710048D01*
X111761435Y-60710048D02*
X111666197Y-60733857D01*
X111666197Y-60733857D02*
X111618578Y-60757667D01*
X111618578Y-60757667D02*
X111570959Y-60805286D01*
X111570959Y-60805286D02*
X111547149Y-60876714D01*
X111547149Y-60876714D02*
X111547149Y-60924333D01*
X111547149Y-60924333D02*
X111570959Y-60995762D01*
X111570959Y-60995762D02*
X111594768Y-61019571D01*
X112047149Y-61495762D02*
X112047149Y-61210048D01*
X112047149Y-61352905D02*
X111547149Y-61352905D01*
X111547149Y-61352905D02*
X111618578Y-61305286D01*
X111618578Y-61305286D02*
X111666197Y-61257667D01*
X111666197Y-61257667D02*
X111690006Y-61210048D01*
X112047149Y-61971952D02*
X112047149Y-61686238D01*
X112047149Y-61829095D02*
X111547149Y-61829095D01*
X111547149Y-61829095D02*
X111618578Y-61781476D01*
X111618578Y-61781476D02*
X111666197Y-61733857D01*
X111666197Y-61733857D02*
X111690006Y-61686238D01*
D11*
X131785219Y-89355143D02*
X131785219Y-89450381D01*
X131785219Y-89450381D02*
X131832838Y-89545619D01*
X131832838Y-89545619D02*
X131880457Y-89593238D01*
X131880457Y-89593238D02*
X131975695Y-89640857D01*
X131975695Y-89640857D02*
X132166171Y-89688476D01*
X132166171Y-89688476D02*
X132404266Y-89688476D01*
X132404266Y-89688476D02*
X132594742Y-89640857D01*
X132594742Y-89640857D02*
X132689980Y-89593238D01*
X132689980Y-89593238D02*
X132737600Y-89545619D01*
X132737600Y-89545619D02*
X132785219Y-89450381D01*
X132785219Y-89450381D02*
X132785219Y-89355143D01*
X132785219Y-89355143D02*
X132737600Y-89259905D01*
X132737600Y-89259905D02*
X132689980Y-89212286D01*
X132689980Y-89212286D02*
X132594742Y-89164667D01*
X132594742Y-89164667D02*
X132404266Y-89117048D01*
X132404266Y-89117048D02*
X132166171Y-89117048D01*
X132166171Y-89117048D02*
X131975695Y-89164667D01*
X131975695Y-89164667D02*
X131880457Y-89212286D01*
X131880457Y-89212286D02*
X131832838Y-89259905D01*
X131832838Y-89259905D02*
X131785219Y-89355143D01*
X132689980Y-90117048D02*
X132737600Y-90164667D01*
X132737600Y-90164667D02*
X132785219Y-90117048D01*
X132785219Y-90117048D02*
X132737600Y-90069429D01*
X132737600Y-90069429D02*
X132689980Y-90117048D01*
X132689980Y-90117048D02*
X132785219Y-90117048D01*
X132785219Y-91117047D02*
X132785219Y-90545619D01*
X132785219Y-90831333D02*
X131785219Y-90831333D01*
X131785219Y-90831333D02*
X131928076Y-90736095D01*
X131928076Y-90736095D02*
X132023314Y-90640857D01*
X132023314Y-90640857D02*
X132070933Y-90545619D01*
X132118552Y-91974190D02*
X132785219Y-91974190D01*
X132118552Y-91545619D02*
X132642361Y-91545619D01*
X132642361Y-91545619D02*
X132737600Y-91593238D01*
X132737600Y-91593238D02*
X132785219Y-91688476D01*
X132785219Y-91688476D02*
X132785219Y-91831333D01*
X132785219Y-91831333D02*
X132737600Y-91926571D01*
X132737600Y-91926571D02*
X132689980Y-91974190D01*
X132261409Y-92783714D02*
X132261409Y-92450381D01*
X132785219Y-92450381D02*
X131785219Y-92450381D01*
X131785219Y-92450381D02*
X131785219Y-92926571D01*
D14*
X134189930Y-90914666D02*
X134213740Y-90890857D01*
X134213740Y-90890857D02*
X134237549Y-90819428D01*
X134237549Y-90819428D02*
X134237549Y-90771809D01*
X134237549Y-90771809D02*
X134213740Y-90700381D01*
X134213740Y-90700381D02*
X134166120Y-90652762D01*
X134166120Y-90652762D02*
X134118501Y-90628952D01*
X134118501Y-90628952D02*
X134023263Y-90605143D01*
X134023263Y-90605143D02*
X133951835Y-90605143D01*
X133951835Y-90605143D02*
X133856597Y-90628952D01*
X133856597Y-90628952D02*
X133808978Y-90652762D01*
X133808978Y-90652762D02*
X133761359Y-90700381D01*
X133761359Y-90700381D02*
X133737549Y-90771809D01*
X133737549Y-90771809D02*
X133737549Y-90819428D01*
X133737549Y-90819428D02*
X133761359Y-90890857D01*
X133761359Y-90890857D02*
X133785168Y-90914666D01*
X134237549Y-91390857D02*
X134237549Y-91105143D01*
X134237549Y-91248000D02*
X133737549Y-91248000D01*
X133737549Y-91248000D02*
X133808978Y-91200381D01*
X133808978Y-91200381D02*
X133856597Y-91152762D01*
X133856597Y-91152762D02*
X133880406Y-91105143D01*
D11*
X113102819Y-89917733D02*
X113102819Y-89346305D01*
X113102819Y-89632019D02*
X112102819Y-89632019D01*
X112102819Y-89632019D02*
X112245676Y-89536781D01*
X112245676Y-89536781D02*
X112340914Y-89441543D01*
X112340914Y-89441543D02*
X112388533Y-89346305D01*
X112102819Y-90536781D02*
X112102819Y-90632019D01*
X112102819Y-90632019D02*
X112150438Y-90727257D01*
X112150438Y-90727257D02*
X112198057Y-90774876D01*
X112198057Y-90774876D02*
X112293295Y-90822495D01*
X112293295Y-90822495D02*
X112483771Y-90870114D01*
X112483771Y-90870114D02*
X112721866Y-90870114D01*
X112721866Y-90870114D02*
X112912342Y-90822495D01*
X112912342Y-90822495D02*
X113007580Y-90774876D01*
X113007580Y-90774876D02*
X113055200Y-90727257D01*
X113055200Y-90727257D02*
X113102819Y-90632019D01*
X113102819Y-90632019D02*
X113102819Y-90536781D01*
X113102819Y-90536781D02*
X113055200Y-90441543D01*
X113055200Y-90441543D02*
X113007580Y-90393924D01*
X113007580Y-90393924D02*
X112912342Y-90346305D01*
X112912342Y-90346305D02*
X112721866Y-90298686D01*
X112721866Y-90298686D02*
X112483771Y-90298686D01*
X112483771Y-90298686D02*
X112293295Y-90346305D01*
X112293295Y-90346305D02*
X112198057Y-90393924D01*
X112198057Y-90393924D02*
X112150438Y-90441543D01*
X112150438Y-90441543D02*
X112102819Y-90536781D01*
X112102819Y-91489162D02*
X112102819Y-91584400D01*
X112102819Y-91584400D02*
X112150438Y-91679638D01*
X112150438Y-91679638D02*
X112198057Y-91727257D01*
X112198057Y-91727257D02*
X112293295Y-91774876D01*
X112293295Y-91774876D02*
X112483771Y-91822495D01*
X112483771Y-91822495D02*
X112721866Y-91822495D01*
X112721866Y-91822495D02*
X112912342Y-91774876D01*
X112912342Y-91774876D02*
X113007580Y-91727257D01*
X113007580Y-91727257D02*
X113055200Y-91679638D01*
X113055200Y-91679638D02*
X113102819Y-91584400D01*
X113102819Y-91584400D02*
X113102819Y-91489162D01*
X113102819Y-91489162D02*
X113055200Y-91393924D01*
X113055200Y-91393924D02*
X113007580Y-91346305D01*
X113007580Y-91346305D02*
X112912342Y-91298686D01*
X112912342Y-91298686D02*
X112721866Y-91251067D01*
X112721866Y-91251067D02*
X112483771Y-91251067D01*
X112483771Y-91251067D02*
X112293295Y-91298686D01*
X112293295Y-91298686D02*
X112198057Y-91346305D01*
X112198057Y-91346305D02*
X112150438Y-91393924D01*
X112150438Y-91393924D02*
X112102819Y-91489162D01*
X113102819Y-92251067D02*
X112102819Y-92251067D01*
X113102819Y-92822495D02*
X112531390Y-92393924D01*
X112102819Y-92822495D02*
X112674247Y-92251067D01*
D14*
X111225149Y-90762971D02*
X110987054Y-90596305D01*
X111225149Y-90477257D02*
X110725149Y-90477257D01*
X110725149Y-90477257D02*
X110725149Y-90667733D01*
X110725149Y-90667733D02*
X110748959Y-90715352D01*
X110748959Y-90715352D02*
X110772768Y-90739162D01*
X110772768Y-90739162D02*
X110820387Y-90762971D01*
X110820387Y-90762971D02*
X110891816Y-90762971D01*
X110891816Y-90762971D02*
X110939435Y-90739162D01*
X110939435Y-90739162D02*
X110963244Y-90715352D01*
X110963244Y-90715352D02*
X110987054Y-90667733D01*
X110987054Y-90667733D02*
X110987054Y-90477257D01*
X110891816Y-91191543D02*
X111225149Y-91191543D01*
X110701340Y-91072495D02*
X111058482Y-90953448D01*
X111058482Y-90953448D02*
X111058482Y-91262971D01*
X110772768Y-91429638D02*
X110748959Y-91453447D01*
X110748959Y-91453447D02*
X110725149Y-91501066D01*
X110725149Y-91501066D02*
X110725149Y-91620114D01*
X110725149Y-91620114D02*
X110748959Y-91667733D01*
X110748959Y-91667733D02*
X110772768Y-91691542D01*
X110772768Y-91691542D02*
X110820387Y-91715352D01*
X110820387Y-91715352D02*
X110868006Y-91715352D01*
X110868006Y-91715352D02*
X110939435Y-91691542D01*
X110939435Y-91691542D02*
X111225149Y-91405828D01*
X111225149Y-91405828D02*
X111225149Y-91715352D01*
D11*
X94738619Y-53792571D02*
X94738619Y-53221143D01*
X94738619Y-53506857D02*
X93738619Y-53506857D01*
X93738619Y-53506857D02*
X93881476Y-53411619D01*
X93881476Y-53411619D02*
X93976714Y-53316381D01*
X93976714Y-53316381D02*
X94024333Y-53221143D01*
X93738619Y-54411619D02*
X93738619Y-54506857D01*
X93738619Y-54506857D02*
X93786238Y-54602095D01*
X93786238Y-54602095D02*
X93833857Y-54649714D01*
X93833857Y-54649714D02*
X93929095Y-54697333D01*
X93929095Y-54697333D02*
X94119571Y-54744952D01*
X94119571Y-54744952D02*
X94357666Y-54744952D01*
X94357666Y-54744952D02*
X94548142Y-54697333D01*
X94548142Y-54697333D02*
X94643380Y-54649714D01*
X94643380Y-54649714D02*
X94691000Y-54602095D01*
X94691000Y-54602095D02*
X94738619Y-54506857D01*
X94738619Y-54506857D02*
X94738619Y-54411619D01*
X94738619Y-54411619D02*
X94691000Y-54316381D01*
X94691000Y-54316381D02*
X94643380Y-54268762D01*
X94643380Y-54268762D02*
X94548142Y-54221143D01*
X94548142Y-54221143D02*
X94357666Y-54173524D01*
X94357666Y-54173524D02*
X94119571Y-54173524D01*
X94119571Y-54173524D02*
X93929095Y-54221143D01*
X93929095Y-54221143D02*
X93833857Y-54268762D01*
X93833857Y-54268762D02*
X93786238Y-54316381D01*
X93786238Y-54316381D02*
X93738619Y-54411619D01*
X93738619Y-55364000D02*
X93738619Y-55459238D01*
X93738619Y-55459238D02*
X93786238Y-55554476D01*
X93786238Y-55554476D02*
X93833857Y-55602095D01*
X93833857Y-55602095D02*
X93929095Y-55649714D01*
X93929095Y-55649714D02*
X94119571Y-55697333D01*
X94119571Y-55697333D02*
X94357666Y-55697333D01*
X94357666Y-55697333D02*
X94548142Y-55649714D01*
X94548142Y-55649714D02*
X94643380Y-55602095D01*
X94643380Y-55602095D02*
X94691000Y-55554476D01*
X94691000Y-55554476D02*
X94738619Y-55459238D01*
X94738619Y-55459238D02*
X94738619Y-55364000D01*
X94738619Y-55364000D02*
X94691000Y-55268762D01*
X94691000Y-55268762D02*
X94643380Y-55221143D01*
X94643380Y-55221143D02*
X94548142Y-55173524D01*
X94548142Y-55173524D02*
X94357666Y-55125905D01*
X94357666Y-55125905D02*
X94119571Y-55125905D01*
X94119571Y-55125905D02*
X93929095Y-55173524D01*
X93929095Y-55173524D02*
X93833857Y-55221143D01*
X93833857Y-55221143D02*
X93786238Y-55268762D01*
X93786238Y-55268762D02*
X93738619Y-55364000D01*
X94738619Y-56125905D02*
X93738619Y-56125905D01*
X94357666Y-56221143D02*
X94738619Y-56506857D01*
X94071952Y-56506857D02*
X94452904Y-56125905D01*
D14*
X92860949Y-54542571D02*
X92622854Y-54375905D01*
X92860949Y-54256857D02*
X92360949Y-54256857D01*
X92360949Y-54256857D02*
X92360949Y-54447333D01*
X92360949Y-54447333D02*
X92384759Y-54494952D01*
X92384759Y-54494952D02*
X92408568Y-54518762D01*
X92408568Y-54518762D02*
X92456187Y-54542571D01*
X92456187Y-54542571D02*
X92527616Y-54542571D01*
X92527616Y-54542571D02*
X92575235Y-54518762D01*
X92575235Y-54518762D02*
X92599044Y-54494952D01*
X92599044Y-54494952D02*
X92622854Y-54447333D01*
X92622854Y-54447333D02*
X92622854Y-54256857D01*
X92360949Y-54994952D02*
X92360949Y-54756857D01*
X92360949Y-54756857D02*
X92599044Y-54733048D01*
X92599044Y-54733048D02*
X92575235Y-54756857D01*
X92575235Y-54756857D02*
X92551425Y-54804476D01*
X92551425Y-54804476D02*
X92551425Y-54923524D01*
X92551425Y-54923524D02*
X92575235Y-54971143D01*
X92575235Y-54971143D02*
X92599044Y-54994952D01*
X92599044Y-54994952D02*
X92646663Y-55018762D01*
X92646663Y-55018762D02*
X92765711Y-55018762D01*
X92765711Y-55018762D02*
X92813330Y-54994952D01*
X92813330Y-54994952D02*
X92837140Y-54971143D01*
X92837140Y-54971143D02*
X92860949Y-54923524D01*
X92860949Y-54923524D02*
X92860949Y-54804476D01*
X92860949Y-54804476D02*
X92837140Y-54756857D01*
X92837140Y-54756857D02*
X92813330Y-54733048D01*
X92575235Y-55304476D02*
X92551425Y-55256857D01*
X92551425Y-55256857D02*
X92527616Y-55233047D01*
X92527616Y-55233047D02*
X92479997Y-55209238D01*
X92479997Y-55209238D02*
X92456187Y-55209238D01*
X92456187Y-55209238D02*
X92408568Y-55233047D01*
X92408568Y-55233047D02*
X92384759Y-55256857D01*
X92384759Y-55256857D02*
X92360949Y-55304476D01*
X92360949Y-55304476D02*
X92360949Y-55399714D01*
X92360949Y-55399714D02*
X92384759Y-55447333D01*
X92384759Y-55447333D02*
X92408568Y-55471142D01*
X92408568Y-55471142D02*
X92456187Y-55494952D01*
X92456187Y-55494952D02*
X92479997Y-55494952D01*
X92479997Y-55494952D02*
X92527616Y-55471142D01*
X92527616Y-55471142D02*
X92551425Y-55447333D01*
X92551425Y-55447333D02*
X92575235Y-55399714D01*
X92575235Y-55399714D02*
X92575235Y-55304476D01*
X92575235Y-55304476D02*
X92599044Y-55256857D01*
X92599044Y-55256857D02*
X92622854Y-55233047D01*
X92622854Y-55233047D02*
X92670473Y-55209238D01*
X92670473Y-55209238D02*
X92765711Y-55209238D01*
X92765711Y-55209238D02*
X92813330Y-55233047D01*
X92813330Y-55233047D02*
X92837140Y-55256857D01*
X92837140Y-55256857D02*
X92860949Y-55304476D01*
X92860949Y-55304476D02*
X92860949Y-55399714D01*
X92860949Y-55399714D02*
X92837140Y-55447333D01*
X92837140Y-55447333D02*
X92813330Y-55471142D01*
X92813330Y-55471142D02*
X92765711Y-55494952D01*
X92765711Y-55494952D02*
X92670473Y-55494952D01*
X92670473Y-55494952D02*
X92622854Y-55471142D01*
X92622854Y-55471142D02*
X92599044Y-55447333D01*
X92599044Y-55447333D02*
X92575235Y-55399714D01*
D11*
X133170819Y-60301333D02*
X133170819Y-59729905D01*
X133170819Y-60015619D02*
X132170819Y-60015619D01*
X132170819Y-60015619D02*
X132313676Y-59920381D01*
X132313676Y-59920381D02*
X132408914Y-59825143D01*
X132408914Y-59825143D02*
X132456533Y-59729905D01*
X132170819Y-60920381D02*
X132170819Y-61015619D01*
X132170819Y-61015619D02*
X132218438Y-61110857D01*
X132218438Y-61110857D02*
X132266057Y-61158476D01*
X132266057Y-61158476D02*
X132361295Y-61206095D01*
X132361295Y-61206095D02*
X132551771Y-61253714D01*
X132551771Y-61253714D02*
X132789866Y-61253714D01*
X132789866Y-61253714D02*
X132980342Y-61206095D01*
X132980342Y-61206095D02*
X133075580Y-61158476D01*
X133075580Y-61158476D02*
X133123200Y-61110857D01*
X133123200Y-61110857D02*
X133170819Y-61015619D01*
X133170819Y-61015619D02*
X133170819Y-60920381D01*
X133170819Y-60920381D02*
X133123200Y-60825143D01*
X133123200Y-60825143D02*
X133075580Y-60777524D01*
X133075580Y-60777524D02*
X132980342Y-60729905D01*
X132980342Y-60729905D02*
X132789866Y-60682286D01*
X132789866Y-60682286D02*
X132551771Y-60682286D01*
X132551771Y-60682286D02*
X132361295Y-60729905D01*
X132361295Y-60729905D02*
X132266057Y-60777524D01*
X132266057Y-60777524D02*
X132218438Y-60825143D01*
X132218438Y-60825143D02*
X132170819Y-60920381D01*
X132170819Y-61872762D02*
X132170819Y-61968000D01*
X132170819Y-61968000D02*
X132218438Y-62063238D01*
X132218438Y-62063238D02*
X132266057Y-62110857D01*
X132266057Y-62110857D02*
X132361295Y-62158476D01*
X132361295Y-62158476D02*
X132551771Y-62206095D01*
X132551771Y-62206095D02*
X132789866Y-62206095D01*
X132789866Y-62206095D02*
X132980342Y-62158476D01*
X132980342Y-62158476D02*
X133075580Y-62110857D01*
X133075580Y-62110857D02*
X133123200Y-62063238D01*
X133123200Y-62063238D02*
X133170819Y-61968000D01*
X133170819Y-61968000D02*
X133170819Y-61872762D01*
X133170819Y-61872762D02*
X133123200Y-61777524D01*
X133123200Y-61777524D02*
X133075580Y-61729905D01*
X133075580Y-61729905D02*
X132980342Y-61682286D01*
X132980342Y-61682286D02*
X132789866Y-61634667D01*
X132789866Y-61634667D02*
X132551771Y-61634667D01*
X132551771Y-61634667D02*
X132361295Y-61682286D01*
X132361295Y-61682286D02*
X132266057Y-61729905D01*
X132266057Y-61729905D02*
X132218438Y-61777524D01*
X132218438Y-61777524D02*
X132170819Y-61872762D01*
X133170819Y-62634667D02*
X132170819Y-62634667D01*
X133170819Y-63206095D02*
X132599390Y-62777524D01*
X132170819Y-63206095D02*
X132742247Y-62634667D01*
D14*
X134593149Y-61146571D02*
X134355054Y-60979905D01*
X134593149Y-60860857D02*
X134093149Y-60860857D01*
X134093149Y-60860857D02*
X134093149Y-61051333D01*
X134093149Y-61051333D02*
X134116959Y-61098952D01*
X134116959Y-61098952D02*
X134140768Y-61122762D01*
X134140768Y-61122762D02*
X134188387Y-61146571D01*
X134188387Y-61146571D02*
X134259816Y-61146571D01*
X134259816Y-61146571D02*
X134307435Y-61122762D01*
X134307435Y-61122762D02*
X134331244Y-61098952D01*
X134331244Y-61098952D02*
X134355054Y-61051333D01*
X134355054Y-61051333D02*
X134355054Y-60860857D01*
X134093149Y-61598952D02*
X134093149Y-61360857D01*
X134093149Y-61360857D02*
X134331244Y-61337048D01*
X134331244Y-61337048D02*
X134307435Y-61360857D01*
X134307435Y-61360857D02*
X134283625Y-61408476D01*
X134283625Y-61408476D02*
X134283625Y-61527524D01*
X134283625Y-61527524D02*
X134307435Y-61575143D01*
X134307435Y-61575143D02*
X134331244Y-61598952D01*
X134331244Y-61598952D02*
X134378863Y-61622762D01*
X134378863Y-61622762D02*
X134497911Y-61622762D01*
X134497911Y-61622762D02*
X134545530Y-61598952D01*
X134545530Y-61598952D02*
X134569340Y-61575143D01*
X134569340Y-61575143D02*
X134593149Y-61527524D01*
X134593149Y-61527524D02*
X134593149Y-61408476D01*
X134593149Y-61408476D02*
X134569340Y-61360857D01*
X134569340Y-61360857D02*
X134545530Y-61337048D01*
X134093149Y-61932285D02*
X134093149Y-61979904D01*
X134093149Y-61979904D02*
X134116959Y-62027523D01*
X134116959Y-62027523D02*
X134140768Y-62051333D01*
X134140768Y-62051333D02*
X134188387Y-62075142D01*
X134188387Y-62075142D02*
X134283625Y-62098952D01*
X134283625Y-62098952D02*
X134402673Y-62098952D01*
X134402673Y-62098952D02*
X134497911Y-62075142D01*
X134497911Y-62075142D02*
X134545530Y-62051333D01*
X134545530Y-62051333D02*
X134569340Y-62027523D01*
X134569340Y-62027523D02*
X134593149Y-61979904D01*
X134593149Y-61979904D02*
X134593149Y-61932285D01*
X134593149Y-61932285D02*
X134569340Y-61884666D01*
X134569340Y-61884666D02*
X134545530Y-61860857D01*
X134545530Y-61860857D02*
X134497911Y-61837047D01*
X134497911Y-61837047D02*
X134402673Y-61813238D01*
X134402673Y-61813238D02*
X134283625Y-61813238D01*
X134283625Y-61813238D02*
X134188387Y-61837047D01*
X134188387Y-61837047D02*
X134140768Y-61860857D01*
X134140768Y-61860857D02*
X134116959Y-61884666D01*
X134116959Y-61884666D02*
X134093149Y-61932285D01*
D11*
X127455819Y-68330933D02*
X127455819Y-67759505D01*
X127455819Y-68045219D02*
X126455819Y-68045219D01*
X126455819Y-68045219D02*
X126598676Y-67949981D01*
X126598676Y-67949981D02*
X126693914Y-67854743D01*
X126693914Y-67854743D02*
X126741533Y-67759505D01*
X126455819Y-68949981D02*
X126455819Y-69045219D01*
X126455819Y-69045219D02*
X126503438Y-69140457D01*
X126503438Y-69140457D02*
X126551057Y-69188076D01*
X126551057Y-69188076D02*
X126646295Y-69235695D01*
X126646295Y-69235695D02*
X126836771Y-69283314D01*
X126836771Y-69283314D02*
X127074866Y-69283314D01*
X127074866Y-69283314D02*
X127265342Y-69235695D01*
X127265342Y-69235695D02*
X127360580Y-69188076D01*
X127360580Y-69188076D02*
X127408200Y-69140457D01*
X127408200Y-69140457D02*
X127455819Y-69045219D01*
X127455819Y-69045219D02*
X127455819Y-68949981D01*
X127455819Y-68949981D02*
X127408200Y-68854743D01*
X127408200Y-68854743D02*
X127360580Y-68807124D01*
X127360580Y-68807124D02*
X127265342Y-68759505D01*
X127265342Y-68759505D02*
X127074866Y-68711886D01*
X127074866Y-68711886D02*
X126836771Y-68711886D01*
X126836771Y-68711886D02*
X126646295Y-68759505D01*
X126646295Y-68759505D02*
X126551057Y-68807124D01*
X126551057Y-68807124D02*
X126503438Y-68854743D01*
X126503438Y-68854743D02*
X126455819Y-68949981D01*
X126455819Y-69902362D02*
X126455819Y-69997600D01*
X126455819Y-69997600D02*
X126503438Y-70092838D01*
X126503438Y-70092838D02*
X126551057Y-70140457D01*
X126551057Y-70140457D02*
X126646295Y-70188076D01*
X126646295Y-70188076D02*
X126836771Y-70235695D01*
X126836771Y-70235695D02*
X127074866Y-70235695D01*
X127074866Y-70235695D02*
X127265342Y-70188076D01*
X127265342Y-70188076D02*
X127360580Y-70140457D01*
X127360580Y-70140457D02*
X127408200Y-70092838D01*
X127408200Y-70092838D02*
X127455819Y-69997600D01*
X127455819Y-69997600D02*
X127455819Y-69902362D01*
X127455819Y-69902362D02*
X127408200Y-69807124D01*
X127408200Y-69807124D02*
X127360580Y-69759505D01*
X127360580Y-69759505D02*
X127265342Y-69711886D01*
X127265342Y-69711886D02*
X127074866Y-69664267D01*
X127074866Y-69664267D02*
X126836771Y-69664267D01*
X126836771Y-69664267D02*
X126646295Y-69711886D01*
X126646295Y-69711886D02*
X126551057Y-69759505D01*
X126551057Y-69759505D02*
X126503438Y-69807124D01*
X126503438Y-69807124D02*
X126455819Y-69902362D01*
X127455819Y-70664267D02*
X126455819Y-70664267D01*
X127455819Y-71235695D02*
X126884390Y-70807124D01*
X126455819Y-71235695D02*
X127027247Y-70664267D01*
D14*
X128878149Y-69176171D02*
X128640054Y-69009505D01*
X128878149Y-68890457D02*
X128378149Y-68890457D01*
X128378149Y-68890457D02*
X128378149Y-69080933D01*
X128378149Y-69080933D02*
X128401959Y-69128552D01*
X128401959Y-69128552D02*
X128425768Y-69152362D01*
X128425768Y-69152362D02*
X128473387Y-69176171D01*
X128473387Y-69176171D02*
X128544816Y-69176171D01*
X128544816Y-69176171D02*
X128592435Y-69152362D01*
X128592435Y-69152362D02*
X128616244Y-69128552D01*
X128616244Y-69128552D02*
X128640054Y-69080933D01*
X128640054Y-69080933D02*
X128640054Y-68890457D01*
X128544816Y-69604743D02*
X128878149Y-69604743D01*
X128354340Y-69485695D02*
X128711482Y-69366648D01*
X128711482Y-69366648D02*
X128711482Y-69676171D01*
X128878149Y-69890457D02*
X128878149Y-69985695D01*
X128878149Y-69985695D02*
X128854340Y-70033314D01*
X128854340Y-70033314D02*
X128830530Y-70057123D01*
X128830530Y-70057123D02*
X128759101Y-70104742D01*
X128759101Y-70104742D02*
X128663863Y-70128552D01*
X128663863Y-70128552D02*
X128473387Y-70128552D01*
X128473387Y-70128552D02*
X128425768Y-70104742D01*
X128425768Y-70104742D02*
X128401959Y-70080933D01*
X128401959Y-70080933D02*
X128378149Y-70033314D01*
X128378149Y-70033314D02*
X128378149Y-69938076D01*
X128378149Y-69938076D02*
X128401959Y-69890457D01*
X128401959Y-69890457D02*
X128425768Y-69866647D01*
X128425768Y-69866647D02*
X128473387Y-69842838D01*
X128473387Y-69842838D02*
X128592435Y-69842838D01*
X128592435Y-69842838D02*
X128640054Y-69866647D01*
X128640054Y-69866647D02*
X128663863Y-69890457D01*
X128663863Y-69890457D02*
X128687673Y-69938076D01*
X128687673Y-69938076D02*
X128687673Y-70033314D01*
X128687673Y-70033314D02*
X128663863Y-70080933D01*
X128663863Y-70080933D02*
X128640054Y-70104742D01*
X128640054Y-70104742D02*
X128592435Y-70128552D01*
D11*
X88439285Y-70022057D02*
X88391666Y-69974438D01*
X88391666Y-69974438D02*
X88296428Y-69926819D01*
X88296428Y-69926819D02*
X88058333Y-69926819D01*
X88058333Y-69926819D02*
X87963095Y-69974438D01*
X87963095Y-69974438D02*
X87915476Y-70022057D01*
X87915476Y-70022057D02*
X87867857Y-70117295D01*
X87867857Y-70117295D02*
X87867857Y-70212533D01*
X87867857Y-70212533D02*
X87915476Y-70355390D01*
X87915476Y-70355390D02*
X88486904Y-70926819D01*
X88486904Y-70926819D02*
X87867857Y-70926819D01*
X87439285Y-70926819D02*
X87439285Y-69926819D01*
X87439285Y-69926819D02*
X86867857Y-70926819D01*
X86867857Y-70926819D02*
X86867857Y-69926819D01*
X86486904Y-69926819D02*
X85820238Y-69926819D01*
X85820238Y-69926819D02*
X86248809Y-70926819D01*
X85248809Y-69926819D02*
X85153571Y-69926819D01*
X85153571Y-69926819D02*
X85058333Y-69974438D01*
X85058333Y-69974438D02*
X85010714Y-70022057D01*
X85010714Y-70022057D02*
X84963095Y-70117295D01*
X84963095Y-70117295D02*
X84915476Y-70307771D01*
X84915476Y-70307771D02*
X84915476Y-70545866D01*
X84915476Y-70545866D02*
X84963095Y-70736342D01*
X84963095Y-70736342D02*
X85010714Y-70831580D01*
X85010714Y-70831580D02*
X85058333Y-70879200D01*
X85058333Y-70879200D02*
X85153571Y-70926819D01*
X85153571Y-70926819D02*
X85248809Y-70926819D01*
X85248809Y-70926819D02*
X85344047Y-70879200D01*
X85344047Y-70879200D02*
X85391666Y-70831580D01*
X85391666Y-70831580D02*
X85439285Y-70736342D01*
X85439285Y-70736342D02*
X85486904Y-70545866D01*
X85486904Y-70545866D02*
X85486904Y-70307771D01*
X85486904Y-70307771D02*
X85439285Y-70117295D01*
X85439285Y-70117295D02*
X85391666Y-70022057D01*
X85391666Y-70022057D02*
X85344047Y-69974438D01*
X85344047Y-69974438D02*
X85248809Y-69926819D01*
X84296428Y-69926819D02*
X84201190Y-69926819D01*
X84201190Y-69926819D02*
X84105952Y-69974438D01*
X84105952Y-69974438D02*
X84058333Y-70022057D01*
X84058333Y-70022057D02*
X84010714Y-70117295D01*
X84010714Y-70117295D02*
X83963095Y-70307771D01*
X83963095Y-70307771D02*
X83963095Y-70545866D01*
X83963095Y-70545866D02*
X84010714Y-70736342D01*
X84010714Y-70736342D02*
X84058333Y-70831580D01*
X84058333Y-70831580D02*
X84105952Y-70879200D01*
X84105952Y-70879200D02*
X84201190Y-70926819D01*
X84201190Y-70926819D02*
X84296428Y-70926819D01*
X84296428Y-70926819D02*
X84391666Y-70879200D01*
X84391666Y-70879200D02*
X84439285Y-70831580D01*
X84439285Y-70831580D02*
X84486904Y-70736342D01*
X84486904Y-70736342D02*
X84534523Y-70545866D01*
X84534523Y-70545866D02*
X84534523Y-70307771D01*
X84534523Y-70307771D02*
X84486904Y-70117295D01*
X84486904Y-70117295D02*
X84439285Y-70022057D01*
X84439285Y-70022057D02*
X84391666Y-69974438D01*
X84391666Y-69974438D02*
X84296428Y-69926819D01*
X83582142Y-70022057D02*
X83534523Y-69974438D01*
X83534523Y-69974438D02*
X83439285Y-69926819D01*
X83439285Y-69926819D02*
X83201190Y-69926819D01*
X83201190Y-69926819D02*
X83105952Y-69974438D01*
X83105952Y-69974438D02*
X83058333Y-70022057D01*
X83058333Y-70022057D02*
X83010714Y-70117295D01*
X83010714Y-70117295D02*
X83010714Y-70212533D01*
X83010714Y-70212533D02*
X83058333Y-70355390D01*
X83058333Y-70355390D02*
X83629761Y-70926819D01*
X83629761Y-70926819D02*
X83010714Y-70926819D01*
D15*
X85755476Y-68247914D02*
X85785952Y-68232676D01*
X85785952Y-68232676D02*
X85816428Y-68202200D01*
X85816428Y-68202200D02*
X85862142Y-68156485D01*
X85862142Y-68156485D02*
X85892619Y-68141247D01*
X85892619Y-68141247D02*
X85923095Y-68141247D01*
X85907857Y-68217438D02*
X85938333Y-68202200D01*
X85938333Y-68202200D02*
X85968809Y-68171723D01*
X85968809Y-68171723D02*
X85984047Y-68110771D01*
X85984047Y-68110771D02*
X85984047Y-68004104D01*
X85984047Y-68004104D02*
X85968809Y-67943152D01*
X85968809Y-67943152D02*
X85938333Y-67912676D01*
X85938333Y-67912676D02*
X85907857Y-67897438D01*
X85907857Y-67897438D02*
X85846904Y-67897438D01*
X85846904Y-67897438D02*
X85816428Y-67912676D01*
X85816428Y-67912676D02*
X85785952Y-67943152D01*
X85785952Y-67943152D02*
X85770714Y-68004104D01*
X85770714Y-68004104D02*
X85770714Y-68110771D01*
X85770714Y-68110771D02*
X85785952Y-68171723D01*
X85785952Y-68171723D02*
X85816428Y-68202200D01*
X85816428Y-68202200D02*
X85846904Y-68217438D01*
X85846904Y-68217438D02*
X85907857Y-68217438D01*
X85465952Y-68217438D02*
X85648809Y-68217438D01*
X85557381Y-68217438D02*
X85557381Y-67897438D01*
X85557381Y-67897438D02*
X85587857Y-67943152D01*
X85587857Y-67943152D02*
X85618333Y-67973628D01*
X85618333Y-67973628D02*
X85648809Y-67988866D01*
D11*
X99767819Y-54774152D02*
X99767819Y-54202724D01*
X99767819Y-54488438D02*
X98767819Y-54488438D01*
X98767819Y-54488438D02*
X98910676Y-54393200D01*
X98910676Y-54393200D02*
X99005914Y-54297962D01*
X99005914Y-54297962D02*
X99053533Y-54202724D01*
X99767819Y-55202724D02*
X98767819Y-55202724D01*
X99386866Y-55297962D02*
X99767819Y-55583676D01*
X99101152Y-55583676D02*
X99482104Y-55202724D01*
D14*
X97890149Y-54571771D02*
X97652054Y-54405105D01*
X97890149Y-54286057D02*
X97390149Y-54286057D01*
X97390149Y-54286057D02*
X97390149Y-54476533D01*
X97390149Y-54476533D02*
X97413959Y-54524152D01*
X97413959Y-54524152D02*
X97437768Y-54547962D01*
X97437768Y-54547962D02*
X97485387Y-54571771D01*
X97485387Y-54571771D02*
X97556816Y-54571771D01*
X97556816Y-54571771D02*
X97604435Y-54547962D01*
X97604435Y-54547962D02*
X97628244Y-54524152D01*
X97628244Y-54524152D02*
X97652054Y-54476533D01*
X97652054Y-54476533D02*
X97652054Y-54286057D01*
X97556816Y-55000343D02*
X97890149Y-55000343D01*
X97366340Y-54881295D02*
X97723482Y-54762248D01*
X97723482Y-54762248D02*
X97723482Y-55071771D01*
X97390149Y-55214628D02*
X97390149Y-55547961D01*
X97390149Y-55547961D02*
X97890149Y-55333676D01*
D11*
X124800219Y-53583152D02*
X124800219Y-53678390D01*
X124800219Y-53678390D02*
X124847838Y-53773628D01*
X124847838Y-53773628D02*
X124895457Y-53821247D01*
X124895457Y-53821247D02*
X124990695Y-53868866D01*
X124990695Y-53868866D02*
X125181171Y-53916485D01*
X125181171Y-53916485D02*
X125419266Y-53916485D01*
X125419266Y-53916485D02*
X125609742Y-53868866D01*
X125609742Y-53868866D02*
X125704980Y-53821247D01*
X125704980Y-53821247D02*
X125752600Y-53773628D01*
X125752600Y-53773628D02*
X125800219Y-53678390D01*
X125800219Y-53678390D02*
X125800219Y-53583152D01*
X125800219Y-53583152D02*
X125752600Y-53487914D01*
X125752600Y-53487914D02*
X125704980Y-53440295D01*
X125704980Y-53440295D02*
X125609742Y-53392676D01*
X125609742Y-53392676D02*
X125419266Y-53345057D01*
X125419266Y-53345057D02*
X125181171Y-53345057D01*
X125181171Y-53345057D02*
X124990695Y-53392676D01*
X124990695Y-53392676D02*
X124895457Y-53440295D01*
X124895457Y-53440295D02*
X124847838Y-53487914D01*
X124847838Y-53487914D02*
X124800219Y-53583152D01*
X125704980Y-54345057D02*
X125752600Y-54392676D01*
X125752600Y-54392676D02*
X125800219Y-54345057D01*
X125800219Y-54345057D02*
X125752600Y-54297438D01*
X125752600Y-54297438D02*
X125704980Y-54345057D01*
X125704980Y-54345057D02*
X125800219Y-54345057D01*
X124895457Y-54773628D02*
X124847838Y-54821247D01*
X124847838Y-54821247D02*
X124800219Y-54916485D01*
X124800219Y-54916485D02*
X124800219Y-55154580D01*
X124800219Y-55154580D02*
X124847838Y-55249818D01*
X124847838Y-55249818D02*
X124895457Y-55297437D01*
X124895457Y-55297437D02*
X124990695Y-55345056D01*
X124990695Y-55345056D02*
X125085933Y-55345056D01*
X125085933Y-55345056D02*
X125228790Y-55297437D01*
X125228790Y-55297437D02*
X125800219Y-54726009D01*
X125800219Y-54726009D02*
X125800219Y-55345056D01*
X124895457Y-55726009D02*
X124847838Y-55773628D01*
X124847838Y-55773628D02*
X124800219Y-55868866D01*
X124800219Y-55868866D02*
X124800219Y-56106961D01*
X124800219Y-56106961D02*
X124847838Y-56202199D01*
X124847838Y-56202199D02*
X124895457Y-56249818D01*
X124895457Y-56249818D02*
X124990695Y-56297437D01*
X124990695Y-56297437D02*
X125085933Y-56297437D01*
X125085933Y-56297437D02*
X125228790Y-56249818D01*
X125228790Y-56249818D02*
X125800219Y-55678390D01*
X125800219Y-55678390D02*
X125800219Y-56297437D01*
X125133552Y-57154580D02*
X125800219Y-57154580D01*
X125133552Y-56726009D02*
X125657361Y-56726009D01*
X125657361Y-56726009D02*
X125752600Y-56773628D01*
X125752600Y-56773628D02*
X125800219Y-56868866D01*
X125800219Y-56868866D02*
X125800219Y-57011723D01*
X125800219Y-57011723D02*
X125752600Y-57106961D01*
X125752600Y-57106961D02*
X125704980Y-57154580D01*
X125276409Y-57964104D02*
X125276409Y-57630771D01*
X125800219Y-57630771D02*
X124800219Y-57630771D01*
X124800219Y-57630771D02*
X124800219Y-58106961D01*
D14*
X127204930Y-55618866D02*
X127228740Y-55595057D01*
X127228740Y-55595057D02*
X127252549Y-55523628D01*
X127252549Y-55523628D02*
X127252549Y-55476009D01*
X127252549Y-55476009D02*
X127228740Y-55404581D01*
X127228740Y-55404581D02*
X127181120Y-55356962D01*
X127181120Y-55356962D02*
X127133501Y-55333152D01*
X127133501Y-55333152D02*
X127038263Y-55309343D01*
X127038263Y-55309343D02*
X126966835Y-55309343D01*
X126966835Y-55309343D02*
X126871597Y-55333152D01*
X126871597Y-55333152D02*
X126823978Y-55356962D01*
X126823978Y-55356962D02*
X126776359Y-55404581D01*
X126776359Y-55404581D02*
X126752549Y-55476009D01*
X126752549Y-55476009D02*
X126752549Y-55523628D01*
X126752549Y-55523628D02*
X126776359Y-55595057D01*
X126776359Y-55595057D02*
X126800168Y-55618866D01*
X126752549Y-56047438D02*
X126752549Y-55952200D01*
X126752549Y-55952200D02*
X126776359Y-55904581D01*
X126776359Y-55904581D02*
X126800168Y-55880771D01*
X126800168Y-55880771D02*
X126871597Y-55833152D01*
X126871597Y-55833152D02*
X126966835Y-55809343D01*
X126966835Y-55809343D02*
X127157311Y-55809343D01*
X127157311Y-55809343D02*
X127204930Y-55833152D01*
X127204930Y-55833152D02*
X127228740Y-55856962D01*
X127228740Y-55856962D02*
X127252549Y-55904581D01*
X127252549Y-55904581D02*
X127252549Y-55999819D01*
X127252549Y-55999819D02*
X127228740Y-56047438D01*
X127228740Y-56047438D02*
X127204930Y-56071247D01*
X127204930Y-56071247D02*
X127157311Y-56095057D01*
X127157311Y-56095057D02*
X127038263Y-56095057D01*
X127038263Y-56095057D02*
X126990644Y-56071247D01*
X126990644Y-56071247D02*
X126966835Y-56047438D01*
X126966835Y-56047438D02*
X126943025Y-55999819D01*
X126943025Y-55999819D02*
X126943025Y-55904581D01*
X126943025Y-55904581D02*
X126966835Y-55856962D01*
X126966835Y-55856962D02*
X126990644Y-55833152D01*
X126990644Y-55833152D02*
X127038263Y-55809343D01*
D11*
X126496819Y-59284852D02*
X126496819Y-59380090D01*
X126496819Y-59380090D02*
X126544438Y-59475328D01*
X126544438Y-59475328D02*
X126592057Y-59522947D01*
X126592057Y-59522947D02*
X126687295Y-59570566D01*
X126687295Y-59570566D02*
X126877771Y-59618185D01*
X126877771Y-59618185D02*
X127115866Y-59618185D01*
X127115866Y-59618185D02*
X127306342Y-59570566D01*
X127306342Y-59570566D02*
X127401580Y-59522947D01*
X127401580Y-59522947D02*
X127449200Y-59475328D01*
X127449200Y-59475328D02*
X127496819Y-59380090D01*
X127496819Y-59380090D02*
X127496819Y-59284852D01*
X127496819Y-59284852D02*
X127449200Y-59189614D01*
X127449200Y-59189614D02*
X127401580Y-59141995D01*
X127401580Y-59141995D02*
X127306342Y-59094376D01*
X127306342Y-59094376D02*
X127115866Y-59046757D01*
X127115866Y-59046757D02*
X126877771Y-59046757D01*
X126877771Y-59046757D02*
X126687295Y-59094376D01*
X126687295Y-59094376D02*
X126592057Y-59141995D01*
X126592057Y-59141995D02*
X126544438Y-59189614D01*
X126544438Y-59189614D02*
X126496819Y-59284852D01*
X127401580Y-60046757D02*
X127449200Y-60094376D01*
X127449200Y-60094376D02*
X127496819Y-60046757D01*
X127496819Y-60046757D02*
X127449200Y-59999138D01*
X127449200Y-59999138D02*
X127401580Y-60046757D01*
X127401580Y-60046757D02*
X127496819Y-60046757D01*
X126592057Y-60475328D02*
X126544438Y-60522947D01*
X126544438Y-60522947D02*
X126496819Y-60618185D01*
X126496819Y-60618185D02*
X126496819Y-60856280D01*
X126496819Y-60856280D02*
X126544438Y-60951518D01*
X126544438Y-60951518D02*
X126592057Y-60999137D01*
X126592057Y-60999137D02*
X126687295Y-61046756D01*
X126687295Y-61046756D02*
X126782533Y-61046756D01*
X126782533Y-61046756D02*
X126925390Y-60999137D01*
X126925390Y-60999137D02*
X127496819Y-60427709D01*
X127496819Y-60427709D02*
X127496819Y-61046756D01*
X126592057Y-61427709D02*
X126544438Y-61475328D01*
X126544438Y-61475328D02*
X126496819Y-61570566D01*
X126496819Y-61570566D02*
X126496819Y-61808661D01*
X126496819Y-61808661D02*
X126544438Y-61903899D01*
X126544438Y-61903899D02*
X126592057Y-61951518D01*
X126592057Y-61951518D02*
X126687295Y-61999137D01*
X126687295Y-61999137D02*
X126782533Y-61999137D01*
X126782533Y-61999137D02*
X126925390Y-61951518D01*
X126925390Y-61951518D02*
X127496819Y-61380090D01*
X127496819Y-61380090D02*
X127496819Y-61999137D01*
X126830152Y-62856280D02*
X127496819Y-62856280D01*
X126830152Y-62427709D02*
X127353961Y-62427709D01*
X127353961Y-62427709D02*
X127449200Y-62475328D01*
X127449200Y-62475328D02*
X127496819Y-62570566D01*
X127496819Y-62570566D02*
X127496819Y-62713423D01*
X127496819Y-62713423D02*
X127449200Y-62808661D01*
X127449200Y-62808661D02*
X127401580Y-62856280D01*
X126973009Y-63665804D02*
X126973009Y-63332471D01*
X127496819Y-63332471D02*
X126496819Y-63332471D01*
X126496819Y-63332471D02*
X126496819Y-63808661D01*
D14*
X128901530Y-61082471D02*
X128925340Y-61058662D01*
X128925340Y-61058662D02*
X128949149Y-60987233D01*
X128949149Y-60987233D02*
X128949149Y-60939614D01*
X128949149Y-60939614D02*
X128925340Y-60868186D01*
X128925340Y-60868186D02*
X128877720Y-60820567D01*
X128877720Y-60820567D02*
X128830101Y-60796757D01*
X128830101Y-60796757D02*
X128734863Y-60772948D01*
X128734863Y-60772948D02*
X128663435Y-60772948D01*
X128663435Y-60772948D02*
X128568197Y-60796757D01*
X128568197Y-60796757D02*
X128520578Y-60820567D01*
X128520578Y-60820567D02*
X128472959Y-60868186D01*
X128472959Y-60868186D02*
X128449149Y-60939614D01*
X128449149Y-60939614D02*
X128449149Y-60987233D01*
X128449149Y-60987233D02*
X128472959Y-61058662D01*
X128472959Y-61058662D02*
X128496768Y-61082471D01*
X128949149Y-61558662D02*
X128949149Y-61272948D01*
X128949149Y-61415805D02*
X128449149Y-61415805D01*
X128449149Y-61415805D02*
X128520578Y-61368186D01*
X128520578Y-61368186D02*
X128568197Y-61320567D01*
X128568197Y-61320567D02*
X128592006Y-61272948D01*
X128615816Y-61987233D02*
X128949149Y-61987233D01*
X128425340Y-61868185D02*
X128782482Y-61749138D01*
X128782482Y-61749138D02*
X128782482Y-62058661D01*
D11*
X97146856Y-107560819D02*
X97051618Y-107560819D01*
X97051618Y-107560819D02*
X96956380Y-107608438D01*
X96956380Y-107608438D02*
X96908761Y-107656057D01*
X96908761Y-107656057D02*
X96861142Y-107751295D01*
X96861142Y-107751295D02*
X96813523Y-107941771D01*
X96813523Y-107941771D02*
X96813523Y-108179866D01*
X96813523Y-108179866D02*
X96861142Y-108370342D01*
X96861142Y-108370342D02*
X96908761Y-108465580D01*
X96908761Y-108465580D02*
X96956380Y-108513200D01*
X96956380Y-108513200D02*
X97051618Y-108560819D01*
X97051618Y-108560819D02*
X97146856Y-108560819D01*
X97146856Y-108560819D02*
X97242094Y-108513200D01*
X97242094Y-108513200D02*
X97289713Y-108465580D01*
X97289713Y-108465580D02*
X97337332Y-108370342D01*
X97337332Y-108370342D02*
X97384951Y-108179866D01*
X97384951Y-108179866D02*
X97384951Y-107941771D01*
X97384951Y-107941771D02*
X97337332Y-107751295D01*
X97337332Y-107751295D02*
X97289713Y-107656057D01*
X97289713Y-107656057D02*
X97242094Y-107608438D01*
X97242094Y-107608438D02*
X97146856Y-107560819D01*
X96384951Y-108465580D02*
X96337332Y-108513200D01*
X96337332Y-108513200D02*
X96384951Y-108560819D01*
X96384951Y-108560819D02*
X96432570Y-108513200D01*
X96432570Y-108513200D02*
X96384951Y-108465580D01*
X96384951Y-108465580D02*
X96384951Y-108560819D01*
X95384952Y-108560819D02*
X95956380Y-108560819D01*
X95670666Y-108560819D02*
X95670666Y-107560819D01*
X95670666Y-107560819D02*
X95765904Y-107703676D01*
X95765904Y-107703676D02*
X95861142Y-107798914D01*
X95861142Y-107798914D02*
X95956380Y-107846533D01*
X94527809Y-107894152D02*
X94527809Y-108560819D01*
X94956380Y-107894152D02*
X94956380Y-108417961D01*
X94956380Y-108417961D02*
X94908761Y-108513200D01*
X94908761Y-108513200D02*
X94813523Y-108560819D01*
X94813523Y-108560819D02*
X94670666Y-108560819D01*
X94670666Y-108560819D02*
X94575428Y-108513200D01*
X94575428Y-108513200D02*
X94527809Y-108465580D01*
X93718285Y-108037009D02*
X94051618Y-108037009D01*
X94051618Y-108560819D02*
X94051618Y-107560819D01*
X94051618Y-107560819D02*
X93575428Y-107560819D01*
D14*
X95825428Y-106605530D02*
X95849237Y-106629340D01*
X95849237Y-106629340D02*
X95920666Y-106653149D01*
X95920666Y-106653149D02*
X95968285Y-106653149D01*
X95968285Y-106653149D02*
X96039713Y-106629340D01*
X96039713Y-106629340D02*
X96087332Y-106581720D01*
X96087332Y-106581720D02*
X96111142Y-106534101D01*
X96111142Y-106534101D02*
X96134951Y-106438863D01*
X96134951Y-106438863D02*
X96134951Y-106367435D01*
X96134951Y-106367435D02*
X96111142Y-106272197D01*
X96111142Y-106272197D02*
X96087332Y-106224578D01*
X96087332Y-106224578D02*
X96039713Y-106176959D01*
X96039713Y-106176959D02*
X95968285Y-106153149D01*
X95968285Y-106153149D02*
X95920666Y-106153149D01*
X95920666Y-106153149D02*
X95849237Y-106176959D01*
X95849237Y-106176959D02*
X95825428Y-106200768D01*
X95349237Y-106653149D02*
X95634951Y-106653149D01*
X95492094Y-106653149D02*
X95492094Y-106153149D01*
X95492094Y-106153149D02*
X95539713Y-106224578D01*
X95539713Y-106224578D02*
X95587332Y-106272197D01*
X95587332Y-106272197D02*
X95634951Y-106296006D01*
X95063523Y-106367435D02*
X95111142Y-106343625D01*
X95111142Y-106343625D02*
X95134952Y-106319816D01*
X95134952Y-106319816D02*
X95158761Y-106272197D01*
X95158761Y-106272197D02*
X95158761Y-106248387D01*
X95158761Y-106248387D02*
X95134952Y-106200768D01*
X95134952Y-106200768D02*
X95111142Y-106176959D01*
X95111142Y-106176959D02*
X95063523Y-106153149D01*
X95063523Y-106153149D02*
X94968285Y-106153149D01*
X94968285Y-106153149D02*
X94920666Y-106176959D01*
X94920666Y-106176959D02*
X94896857Y-106200768D01*
X94896857Y-106200768D02*
X94873047Y-106248387D01*
X94873047Y-106248387D02*
X94873047Y-106272197D01*
X94873047Y-106272197D02*
X94896857Y-106319816D01*
X94896857Y-106319816D02*
X94920666Y-106343625D01*
X94920666Y-106343625D02*
X94968285Y-106367435D01*
X94968285Y-106367435D02*
X95063523Y-106367435D01*
X95063523Y-106367435D02*
X95111142Y-106391244D01*
X95111142Y-106391244D02*
X95134952Y-106415054D01*
X95134952Y-106415054D02*
X95158761Y-106462673D01*
X95158761Y-106462673D02*
X95158761Y-106557911D01*
X95158761Y-106557911D02*
X95134952Y-106605530D01*
X95134952Y-106605530D02*
X95111142Y-106629340D01*
X95111142Y-106629340D02*
X95063523Y-106653149D01*
X95063523Y-106653149D02*
X94968285Y-106653149D01*
X94968285Y-106653149D02*
X94920666Y-106629340D01*
X94920666Y-106629340D02*
X94896857Y-106605530D01*
X94896857Y-106605530D02*
X94873047Y-106557911D01*
X94873047Y-106557911D02*
X94873047Y-106462673D01*
X94873047Y-106462673D02*
X94896857Y-106415054D01*
X94896857Y-106415054D02*
X94920666Y-106391244D01*
X94920666Y-106391244D02*
X94968285Y-106367435D01*
D11*
X121216152Y-60580685D02*
X121882819Y-60580685D01*
X120835200Y-60342590D02*
X121549485Y-60104495D01*
X121549485Y-60104495D02*
X121549485Y-60723542D01*
X120882819Y-61009257D02*
X120882819Y-61675923D01*
X120882819Y-61675923D02*
X121882819Y-61247352D01*
X121882819Y-62056876D02*
X120882819Y-62056876D01*
X121882819Y-62628304D02*
X121311390Y-62199733D01*
X120882819Y-62628304D02*
X121454247Y-62056876D01*
D14*
X123305149Y-61044971D02*
X123067054Y-60878305D01*
X123305149Y-60759257D02*
X122805149Y-60759257D01*
X122805149Y-60759257D02*
X122805149Y-60949733D01*
X122805149Y-60949733D02*
X122828959Y-60997352D01*
X122828959Y-60997352D02*
X122852768Y-61021162D01*
X122852768Y-61021162D02*
X122900387Y-61044971D01*
X122900387Y-61044971D02*
X122971816Y-61044971D01*
X122971816Y-61044971D02*
X123019435Y-61021162D01*
X123019435Y-61021162D02*
X123043244Y-60997352D01*
X123043244Y-60997352D02*
X123067054Y-60949733D01*
X123067054Y-60949733D02*
X123067054Y-60759257D01*
X122971816Y-61473543D02*
X123305149Y-61473543D01*
X122781340Y-61354495D02*
X123138482Y-61235448D01*
X123138482Y-61235448D02*
X123138482Y-61544971D01*
X122805149Y-61830685D02*
X122805149Y-61878304D01*
X122805149Y-61878304D02*
X122828959Y-61925923D01*
X122828959Y-61925923D02*
X122852768Y-61949733D01*
X122852768Y-61949733D02*
X122900387Y-61973542D01*
X122900387Y-61973542D02*
X122995625Y-61997352D01*
X122995625Y-61997352D02*
X123114673Y-61997352D01*
X123114673Y-61997352D02*
X123209911Y-61973542D01*
X123209911Y-61973542D02*
X123257530Y-61949733D01*
X123257530Y-61949733D02*
X123281340Y-61925923D01*
X123281340Y-61925923D02*
X123305149Y-61878304D01*
X123305149Y-61878304D02*
X123305149Y-61830685D01*
X123305149Y-61830685D02*
X123281340Y-61783066D01*
X123281340Y-61783066D02*
X123257530Y-61759257D01*
X123257530Y-61759257D02*
X123209911Y-61735447D01*
X123209911Y-61735447D02*
X123114673Y-61711638D01*
X123114673Y-61711638D02*
X122995625Y-61711638D01*
X122995625Y-61711638D02*
X122900387Y-61735447D01*
X122900387Y-61735447D02*
X122852768Y-61759257D01*
X122852768Y-61759257D02*
X122828959Y-61783066D01*
X122828959Y-61783066D02*
X122805149Y-61830685D01*
D11*
X118198819Y-60364809D02*
X118198819Y-59888619D01*
X118198819Y-59888619D02*
X118675009Y-59841000D01*
X118675009Y-59841000D02*
X118627390Y-59888619D01*
X118627390Y-59888619D02*
X118579771Y-59983857D01*
X118579771Y-59983857D02*
X118579771Y-60221952D01*
X118579771Y-60221952D02*
X118627390Y-60317190D01*
X118627390Y-60317190D02*
X118675009Y-60364809D01*
X118675009Y-60364809D02*
X118770247Y-60412428D01*
X118770247Y-60412428D02*
X119008342Y-60412428D01*
X119008342Y-60412428D02*
X119103580Y-60364809D01*
X119103580Y-60364809D02*
X119151200Y-60317190D01*
X119151200Y-60317190D02*
X119198819Y-60221952D01*
X119198819Y-60221952D02*
X119198819Y-59983857D01*
X119198819Y-59983857D02*
X119151200Y-59888619D01*
X119151200Y-59888619D02*
X119103580Y-59841000D01*
X119103580Y-60841000D02*
X119151200Y-60888619D01*
X119151200Y-60888619D02*
X119198819Y-60841000D01*
X119198819Y-60841000D02*
X119151200Y-60793381D01*
X119151200Y-60793381D02*
X119103580Y-60841000D01*
X119103580Y-60841000D02*
X119198819Y-60841000D01*
X119198819Y-61840999D02*
X119198819Y-61269571D01*
X119198819Y-61555285D02*
X118198819Y-61555285D01*
X118198819Y-61555285D02*
X118341676Y-61460047D01*
X118341676Y-61460047D02*
X118436914Y-61364809D01*
X118436914Y-61364809D02*
X118484533Y-61269571D01*
X119198819Y-62269571D02*
X118198819Y-62269571D01*
X119198819Y-62840999D02*
X118627390Y-62412428D01*
X118198819Y-62840999D02*
X118770247Y-62269571D01*
D14*
X117321149Y-61019571D02*
X117083054Y-60852905D01*
X117321149Y-60733857D02*
X116821149Y-60733857D01*
X116821149Y-60733857D02*
X116821149Y-60924333D01*
X116821149Y-60924333D02*
X116844959Y-60971952D01*
X116844959Y-60971952D02*
X116868768Y-60995762D01*
X116868768Y-60995762D02*
X116916387Y-61019571D01*
X116916387Y-61019571D02*
X116987816Y-61019571D01*
X116987816Y-61019571D02*
X117035435Y-60995762D01*
X117035435Y-60995762D02*
X117059244Y-60971952D01*
X117059244Y-60971952D02*
X117083054Y-60924333D01*
X117083054Y-60924333D02*
X117083054Y-60733857D01*
X116821149Y-61186238D02*
X116821149Y-61495762D01*
X116821149Y-61495762D02*
X117011625Y-61329095D01*
X117011625Y-61329095D02*
X117011625Y-61400524D01*
X117011625Y-61400524D02*
X117035435Y-61448143D01*
X117035435Y-61448143D02*
X117059244Y-61471952D01*
X117059244Y-61471952D02*
X117106863Y-61495762D01*
X117106863Y-61495762D02*
X117225911Y-61495762D01*
X117225911Y-61495762D02*
X117273530Y-61471952D01*
X117273530Y-61471952D02*
X117297340Y-61448143D01*
X117297340Y-61448143D02*
X117321149Y-61400524D01*
X117321149Y-61400524D02*
X117321149Y-61257667D01*
X117321149Y-61257667D02*
X117297340Y-61210048D01*
X117297340Y-61210048D02*
X117273530Y-61186238D01*
X116821149Y-61924333D02*
X116821149Y-61829095D01*
X116821149Y-61829095D02*
X116844959Y-61781476D01*
X116844959Y-61781476D02*
X116868768Y-61757666D01*
X116868768Y-61757666D02*
X116940197Y-61710047D01*
X116940197Y-61710047D02*
X117035435Y-61686238D01*
X117035435Y-61686238D02*
X117225911Y-61686238D01*
X117225911Y-61686238D02*
X117273530Y-61710047D01*
X117273530Y-61710047D02*
X117297340Y-61733857D01*
X117297340Y-61733857D02*
X117321149Y-61781476D01*
X117321149Y-61781476D02*
X117321149Y-61876714D01*
X117321149Y-61876714D02*
X117297340Y-61924333D01*
X117297340Y-61924333D02*
X117273530Y-61948142D01*
X117273530Y-61948142D02*
X117225911Y-61971952D01*
X117225911Y-61971952D02*
X117106863Y-61971952D01*
X117106863Y-61971952D02*
X117059244Y-61948142D01*
X117059244Y-61948142D02*
X117035435Y-61924333D01*
X117035435Y-61924333D02*
X117011625Y-61876714D01*
X117011625Y-61876714D02*
X117011625Y-61781476D01*
X117011625Y-61781476D02*
X117035435Y-61733857D01*
X117035435Y-61733857D02*
X117059244Y-61710047D01*
X117059244Y-61710047D02*
X117106863Y-61686238D01*
D10*
%TO.C,R44*%
X79873000Y-67072000D02*
X78623000Y-67072000D01*
X79873000Y-69072000D02*
X79873000Y-67072000D01*
X78623000Y-69072000D02*
X79873000Y-69072000D01*
X78623000Y-67072000D02*
X78623000Y-69072000D01*
%TO.C,R28*%
X78623000Y-88272500D02*
X79873000Y-88272500D01*
X78623000Y-86272500D02*
X78623000Y-88272500D01*
X79873000Y-86272500D02*
X78623000Y-86272500D01*
X79873000Y-88272500D02*
X79873000Y-86272500D01*
%TO.C,Q4*%
X86375000Y-56314000D02*
X86375000Y-53739000D01*
X86375000Y-53739000D02*
X86050000Y-53414000D01*
X86050000Y-53414000D02*
X85075000Y-53414000D01*
X85075000Y-56314000D02*
X86375000Y-56314000D01*
X85075000Y-53414000D02*
X85075000Y-56314000D01*
%TO.C,R31*%
X118958200Y-56674900D02*
X120208200Y-56674900D01*
X120208200Y-56674900D02*
X120208200Y-54674900D01*
X118958200Y-54674900D02*
X118958200Y-56674900D01*
X120208200Y-54674900D02*
X118958200Y-54674900D01*
%TO.C,Q2*%
X86375000Y-88661500D02*
X86375000Y-86086500D01*
X86375000Y-86086500D02*
X86050000Y-85761500D01*
X86050000Y-85761500D02*
X85075000Y-85761500D01*
X85075000Y-88661500D02*
X86375000Y-88661500D01*
X85075000Y-85761500D02*
X85075000Y-88661500D01*
%TO.C,R67*%
X93233400Y-67046600D02*
X91983400Y-67046600D01*
X91983400Y-67046600D02*
X91983400Y-69046600D01*
X93233400Y-69046600D02*
X93233400Y-67046600D01*
X91983400Y-69046600D02*
X93233400Y-69046600D01*
%TO.C,C3*%
X112537400Y-54814000D02*
X111287400Y-54814000D01*
X111287400Y-54814000D02*
X111287400Y-56814000D01*
X112537400Y-56814000D02*
X112537400Y-54814000D01*
X111287400Y-56814000D02*
X112537400Y-56814000D01*
%TO.C,R39*%
X122311000Y-70469000D02*
X123561000Y-70469000D01*
X123561000Y-70469000D02*
X123561000Y-68469000D01*
X122311000Y-68469000D02*
X122311000Y-70469000D01*
X123561000Y-68469000D02*
X122311000Y-68469000D01*
%TO.C,R60*%
X98288000Y-67072000D02*
X97038000Y-67072000D01*
X97038000Y-67072000D02*
X97038000Y-69072000D01*
X98288000Y-69072000D02*
X98288000Y-67072000D01*
X97038000Y-69072000D02*
X98288000Y-69072000D01*
%TO.C,R59*%
X98288000Y-73041000D02*
X97038000Y-73041000D01*
X97038000Y-73041000D02*
X97038000Y-75041000D01*
X98288000Y-75041000D02*
X98288000Y-73041000D01*
X97038000Y-75041000D02*
X98288000Y-75041000D01*
%TO.C,R41*%
X126609000Y-90031700D02*
X125359000Y-90031700D01*
X125359000Y-90031700D02*
X125359000Y-92031700D01*
X126609000Y-92031700D02*
X126609000Y-90031700D01*
X125359000Y-92031700D02*
X126609000Y-92031700D01*
%TO.C,R69*%
X93208000Y-86145500D02*
X91958000Y-86145500D01*
X91958000Y-86145500D02*
X91958000Y-88145500D01*
X93208000Y-88145500D02*
X93208000Y-86145500D01*
X91958000Y-88145500D02*
X93208000Y-88145500D01*
%TO.C,R35*%
X117765300Y-68469000D02*
X116515300Y-68469000D01*
X116515300Y-68469000D02*
X116515300Y-70469000D01*
X117765300Y-70469000D02*
X117765300Y-68469000D01*
X116515300Y-70469000D02*
X117765300Y-70469000D01*
%TO.C,C13*%
X133741000Y-70469000D02*
X134991000Y-70469000D01*
X134991000Y-70469000D02*
X134991000Y-68469000D01*
X133741000Y-68469000D02*
X133741000Y-70469000D01*
X134991000Y-68469000D02*
X133741000Y-68469000D01*
%TO.C,Q3*%
X86375000Y-75872000D02*
X86375000Y-73297000D01*
X86375000Y-73297000D02*
X86050000Y-72972000D01*
X86050000Y-72972000D02*
X85075000Y-72972000D01*
X85075000Y-75872000D02*
X86375000Y-75872000D01*
X85075000Y-72972000D02*
X85075000Y-75872000D01*
%TO.C,R48*%
X133842600Y-56674900D02*
X135092600Y-56674900D01*
X135092600Y-56674900D02*
X135092600Y-54674900D01*
X133842600Y-54674900D02*
X133842600Y-56674900D01*
X135092600Y-54674900D02*
X133842600Y-54674900D01*
%TO.C,C2*%
X120106600Y-90120000D02*
X118856600Y-90120000D01*
X118856600Y-90120000D02*
X118856600Y-92120000D01*
X120106600Y-92120000D02*
X120106600Y-90120000D01*
X118856600Y-92120000D02*
X120106600Y-92120000D01*
%TO.C,C10*%
X112445000Y-68596000D02*
X111195000Y-68596000D01*
X111195000Y-68596000D02*
X111195000Y-70596000D01*
X112445000Y-70596000D02*
X112445000Y-68596000D01*
X111195000Y-70596000D02*
X112445000Y-70596000D01*
%TO.C,R68*%
X98288000Y-86145500D02*
X97038000Y-86145500D01*
X97038000Y-86145500D02*
X97038000Y-88145500D01*
X98288000Y-88145500D02*
X98288000Y-86145500D01*
X97038000Y-88145500D02*
X98288000Y-88145500D01*
%TO.C,R61*%
X93208000Y-73041000D02*
X91958000Y-73041000D01*
X91958000Y-73041000D02*
X91958000Y-75041000D01*
X93208000Y-75041000D02*
X93208000Y-73041000D01*
X91958000Y-75041000D02*
X93208000Y-75041000D01*
%TO.C,C11*%
X112445000Y-60341000D02*
X111195000Y-60341000D01*
X111195000Y-60341000D02*
X111195000Y-62341000D01*
X112445000Y-62341000D02*
X112445000Y-60341000D01*
X111195000Y-62341000D02*
X112445000Y-62341000D01*
%TO.C,C1*%
X133385400Y-91998000D02*
X134635400Y-91998000D01*
X134635400Y-91998000D02*
X134635400Y-89998000D01*
X133385400Y-89998000D02*
X133385400Y-91998000D01*
X134635400Y-89998000D02*
X133385400Y-89998000D01*
%TO.C,R42*%
X111623000Y-90084400D02*
X110373000Y-90084400D01*
X110373000Y-90084400D02*
X110373000Y-92084400D01*
X111623000Y-92084400D02*
X111623000Y-90084400D01*
X110373000Y-92084400D02*
X111623000Y-92084400D01*
%TO.C,R58*%
X93258800Y-53864000D02*
X92008800Y-53864000D01*
X92008800Y-53864000D02*
X92008800Y-55864000D01*
X93258800Y-55864000D02*
X93258800Y-53864000D01*
X92008800Y-55864000D02*
X93258800Y-55864000D01*
%TO.C,R50*%
X133741000Y-62468000D02*
X134991000Y-62468000D01*
X134991000Y-62468000D02*
X134991000Y-60468000D01*
X133741000Y-60468000D02*
X133741000Y-62468000D01*
X134991000Y-60468000D02*
X133741000Y-60468000D01*
%TO.C,R49*%
X128026000Y-70497600D02*
X129276000Y-70497600D01*
X129276000Y-70497600D02*
X129276000Y-68497600D01*
X128026000Y-68497600D02*
X128026000Y-70497600D01*
X129276000Y-68497600D02*
X128026000Y-68497600D01*
%TO.C,Q1*%
X86375000Y-69522000D02*
X86375000Y-66947000D01*
X86375000Y-66947000D02*
X86050000Y-66622000D01*
X86050000Y-66622000D02*
X85075000Y-66622000D01*
X85075000Y-69522000D02*
X86375000Y-69522000D01*
X85075000Y-66622000D02*
X85075000Y-69522000D01*
%TO.C,R47*%
X98288000Y-53893200D02*
X97038000Y-53893200D01*
X97038000Y-53893200D02*
X97038000Y-55893200D01*
X98288000Y-55893200D02*
X98288000Y-53893200D01*
X97038000Y-55893200D02*
X98288000Y-55893200D01*
%TO.C,C6*%
X126400400Y-56702200D02*
X127650400Y-56702200D01*
X127650400Y-56702200D02*
X127650400Y-54702200D01*
X126400400Y-54702200D02*
X126400400Y-56702200D01*
X127650400Y-54702200D02*
X126400400Y-54702200D01*
%TO.C,C14*%
X128097000Y-62403900D02*
X129347000Y-62403900D01*
X129347000Y-62403900D02*
X129347000Y-60403900D01*
X128097000Y-60403900D02*
X128097000Y-62403900D01*
X129347000Y-60403900D02*
X128097000Y-60403900D01*
%TO.C,C18*%
X96504000Y-107051000D02*
X96504000Y-105801000D01*
X96504000Y-105801000D02*
X94504000Y-105801000D01*
X94504000Y-107051000D02*
X96504000Y-107051000D01*
X94504000Y-105801000D02*
X94504000Y-107051000D01*
%TO.C,R40*%
X122453000Y-62366400D02*
X123703000Y-62366400D01*
X123703000Y-62366400D02*
X123703000Y-60366400D01*
X122453000Y-60366400D02*
X122453000Y-62366400D01*
X123703000Y-60366400D02*
X122453000Y-60366400D01*
%TO.C,R36*%
X117719000Y-60341000D02*
X116469000Y-60341000D01*
X116469000Y-60341000D02*
X116469000Y-62341000D01*
X117719000Y-62341000D02*
X117719000Y-60341000D01*
X116469000Y-62341000D02*
X117719000Y-62341000D01*
%TD*%
M02*
